<svg width="980" height="551" xmlns="http://www.w3.org/2000/svg" xmlns:xlink="http://www.w3.org/1999/xlink">
<path fill="#ff595e" d="M 176.10 155.27 Q 176.10 155.27 177.72 154.09 179.33 152.91 180.49 152.82 181.65 152.74 183.31 152.69 184.97 152.64 186.37 152.63 187.77 152.62 189.12 152.62 190.47 152.61 191.52 152.61 192.57 152.61 193.87 152.61 195.16 152.61 196.49 152.61 197.82 152.61 199.16 152.61 200.49 152.61 201.83 152.61 203.16 152.61 204.50 152.61 205.83 152.61 207.17 152.61 208.50 152.61 209.57 152.61 210.63 152.61 211.92 152.61 213.20 152.61 214.53 152.61 215.86 152.61 217.19 152.61 218.52 152.61 219.86 152.61 221.19 152.61 222.53 152.61 223.87 152.61 225.20 152.61 226.54 152.61 228.15 152.61 229.76 152.61 230.87 152.61 231.98 152.61 233.27 152.61 234.57 152.61 235.90 152.61 237.23 152.61 238.56 152.61 239.90 152.61 241.79 152.82 243.69 153.03 245.13 153.13 246.56 153.23 248.18 153.25 249.79 153.27 251.18 153.28 252.56 153.28 253.91 153.28 255.25 153.28 256.59 153.28 257.93 153.28 259.26 153.28 260.60 153.28 261.66 153.28 262.72 153.28 264.01 153.28 265.30 153.28 266.62 153.28 267.95 153.28 269.28 153.28 270.62 153.28 271.95 153.28 273.29 153.28 274.62 153.28 275.96 153.28 278.31 154.28 280.66 155.27 280.66 155.28 280.66 155.28 280.66 155.29 280.66 155.29 278.31 156.29 275.96 157.28 274.62 157.28 273.29 157.28 271.95 157.28 270.62 157.28 269.28 157.28 267.95 157.28 266.62 157.28 265.30 157.28 264.01 157.28 262.72 157.28 261.66 157.28 260.60 157.28 259.26 157.28 257.93 157.28 256.59 157.28 255.25 157.28 253.90 157.28 252.56 157.28 251.16 157.28 249.76 157.27 248.07 157.25 246.38 157.23 244.68 157.10 242.98 156.97 241.44 156.79 239.90 156.61 238.56 156.61 237.23 156.61 235.90 156.61 234.57 156.61 233.27 156.61 231.98 156.61 230.87 156.61 229.76 156.61 228.15 156.61 226.54 156.61 225.20 156.61 223.87 156.61 222.53 156.61 221.19 156.61 219.86 156.61 218.52 156.61 217.19 156.61 215.86 156.61 214.53 156.61 213.20 156.61 211.92 156.61 210.63 156.61 209.57 156.61 208.50 156.61 207.17 156.61 205.83 156.61 204.50 156.61 203.16 156.61 201.83 156.61 200.49 156.61 199.16 156.61 197.82 156.61 196.49 156.61 195.16 156.61 193.87 156.61 192.57 156.61 191.52 156.61 190.47 156.61 189.13 156.62 187.79 156.62 186.42 156.63 185.05 156.63 183.49 156.68 181.94 156.73 180.86 156.81 179.78 156.89 177.94 156.09 176.10 155.29 176.10 155.28 Z" data-drauu_index="0"></path><path fill="#ffca3a" d="M 144.71 212.71 Q 144.71 212.71 146.05 211.71 147.40 210.72 149.53 210.72 151.65 210.72 153.15 210.73 154.64 210.74 155.83 211.21 157.03 211.67 158.49 211.84 159.95 212.01 161.20 212.03 162.46 212.05 163.59 212.05 164.72 212.05 166.21 212.05 167.70 212.05 168.96 212.05 170.22 212.05 172.67 212.78 175.12 213.50 175.12 213.50 175.13 213.51 175.13 213.51 175.13 213.52 172.67 214.79 170.22 216.05 168.96 216.05 167.69 216.05 166.20 216.05 164.71 216.05 163.57 216.05 162.42 216.05 161.09 216.03 159.75 216.01 158.49 215.89 157.22 215.77 155.85 215.23 154.47 214.70 153.06 214.71 151.65 214.72 149.53 214.72 147.40 214.72 146.05 213.72 144.71 212.73 144.71 212.72 Z" data-drauu_index="2"></path><path fill="#8ac926" d="M 144.71 277.49 Q 144.71 277.49 146.19 276.72 147.67 275.94 149.49 276.00 151.31 276.05 152.68 276.09 154.06 276.12 155.21 276.13 156.36 276.15 158.58 275.89 160.80 275.62 162.52 275.57 164.24 275.52 165.33 275.21 166.42 274.90 167.82 274.58 169.22 274.25 170.52 274.22 171.81 274.18 173.13 274.17 174.45 274.17 175.88 274.17 177.32 274.17 179.50 274.17 181.69 274.17 183.15 274.17 184.61 274.17 185.88 274.17 187.16 274.17 188.39 274.38 189.61 274.58 191.04 274.68 192.47 274.79 193.81 274.81 195.16 274.83 196.23 275.05 197.31 275.27 198.33 275.67 199.36 276.07 200.95 276.11 202.55 276.16 203.89 276.17 205.23 276.18 206.61 276.81 207.99 277.43 209.48 277.46 210.97 277.48 212.78 277.49 214.58 277.50 216.16 277.50 217.75 277.51 219.13 277.51 220.51 277.51 221.74 277.71 222.98 277.92 224.08 277.99 225.19 278.06 226.81 278.11 228.43 278.15 229.54 278.16 230.65 278.17 231.94 278.17 233.23 278.17 234.95 278.17 236.66 278.17 238.23 278.17 239.79 278.17 241.17 278.20 242.55 278.23 244.29 279.20 246.02 280.16 246.02 280.17 246.02 280.17 246.02 280.18 246.02 280.18 244.29 281.15 242.55 282.12 241.17 282.15 239.79 282.17 238.23 282.17 236.66 282.17 234.94 282.17 233.23 282.17 231.93 282.17 230.63 282.17 229.49 282.16 228.36 282.15 226.64 282.10 224.92 282.05 222.71 281.78 220.50 281.51 219.12 281.51 217.74 281.51 216.15 281.50 214.56 281.50 213.47 281.50 212.38 281.49 210.73 281.46 209.09 281.43 207.45 281.10 205.82 280.77 204.83 280.47 203.83 280.16 202.49 280.15 201.15 280.14 199.74 280.03 198.32 279.93 197.36 279.55 196.41 279.16 195.07 278.99 193.73 278.81 192.22 278.76 190.71 278.70 188.93 278.44 187.15 278.17 185.88 278.17 184.61 278.17 183.15 278.17 181.69 278.17 179.50 278.17 177.32 278.17 175.89 278.17 174.46 278.17 173.16 278.17 171.86 278.18 170.77 278.20 169.68 278.23 168.56 278.60 167.43 278.98 165.87 279.25 164.31 279.52 162.69 279.57 161.06 279.62 159.94 279.68 158.82 279.75 157.57 279.95 156.32 280.15 155.14 280.13 153.96 280.12 152.55 280.08 151.14 280.05 149.13 279.94 147.12 279.83 145.91 278.67 144.71 277.51 144.71 277.50 Z" data-drauu_index="3"></path>
</svg>