<svg width="980" height="551" xmlns="http://www.w3.org/2000/svg" xmlns:xlink="http://www.w3.org/1999/xlink">
<path fill="#ff595e" d="M 234.86 477.20 Q 234.86 477.20 233.87 476.05 232.88 474.89 232.88 473.06 232.88 471.22 233.16 469.88 233.43 468.54 233.48 467.30 233.53 466.06 233.95 465.10 234.37 464.14 235.22 463.55 236.07 462.97 237.33 462.77 238.60 462.57 239.99 462.56 241.38 462.56 242.47 463.05 243.56 463.54 245.11 463.67 246.66 463.80 247.68 463.81 248.70 463.83 250.26 463.83 251.82 463.84 253.58 463.84 255.34 463.84 256.94 463.84 258.55 463.84 260.13 464.04 261.71 464.25 263.39 464.32 265.08 464.39 266.20 464.43 267.32 464.46 269.05 464.53 270.79 464.60 271.96 465.35 273.14 466.10 274.79 466.27 276.44 466.45 277.54 466.47 278.64 466.49 280.46 466.50 282.27 466.50 283.62 466.51 284.97 466.51 286.78 466.53 288.58 466.54 289.71 467.03 290.83 467.51 291.84 467.64 292.85 467.76 294.11 467.80 295.36 467.83 296.68 467.84 298.01 467.85 299.34 467.85 300.67 467.85 302.11 467.85 303.54 467.85 305.73 467.85 307.91 467.85 309.19 467.85 310.46 467.85 312.16 467.85 313.87 467.85 315.54 467.85 317.22 467.85 318.62 467.85 320.01 467.85 321.36 467.85 322.71 467.85 323.76 467.85 324.81 467.85 326.03 467.85 327.24 467.85 329.10 467.85 330.96 467.85 333.29 467.58 335.62 467.31 336.99 467.27 338.36 467.24 339.36 467.04 340.35 466.85 342.00 466.45 343.65 466.05 345.16 465.96 346.67 465.88 349.58 465.87 352.49 465.85 353.81 465.85 355.14 465.85 356.47 465.85 357.80 465.85 360.03 465.85 362.26 465.85 363.27 465.85 364.28 465.85 365.48 465.85 366.68 465.85 368.33 465.85 369.99 465.85 371.38 465.85 372.78 465.85 373.85 465.85 374.92 465.85 375.94 465.85 376.96 465.85 378.16 465.85 379.36 465.85 381.02 465.85 382.68 465.85 384.07 465.85 385.47 465.85 386.54 465.85 387.61 465.85 388.90 465.85 390.19 465.85 391.52 465.85 392.84 465.85 394.18 465.85 395.51 465.85 397.12 465.85 398.73 465.85 399.84 465.85 400.96 465.86 402.11 466.14 403.26 466.41 404.43 466.45 405.60 466.49 406.90 466.50 408.21 466.51 409.54 466.51 410.87 466.51 412.21 466.52 413.54 466.52 415.15 466.52 416.76 466.52 417.85 466.52 418.93 466.52 420.16 466.52 421.39 466.52 423.45 466.52 425.51 466.52 427.91 466.52 430.31 466.52 431.89 466.52 433.47 466.52 434.85 466.52 436.23 466.52 437.57 466.52 438.92 466.52 440.26 466.52 441.59 466.52 443.20 466.52 444.81 466.52 446.20 466.52 447.58 466.52 448.93 466.52 450.27 466.52 451.61 466.52 452.95 466.52 454.28 466.52 455.62 466.52 456.95 466.52 458.29 466.52 459.35 466.52 460.41 466.52 461.70 466.52 462.99 466.52 464.31 466.52 465.64 466.52 467.41 466.62 469.18 466.73 470.17 468.13 471.16 469.52 471.22 470.87 471.28 472.22 470.74 473.81 470.21 475.40 468.82 477.01 467.44 478.63 467.44 478.62 467.43 478.62 467.43 478.62 467.42 478.62 466.89 476.87 466.36 475.13 466.82 473.71 467.28 472.30 467.74 471.30 468.20 470.30 466.92 470.41 465.64 470.52 464.31 470.52 462.99 470.52 461.70 470.52 460.41 470.52 459.35 470.52 458.29 470.52 456.95 470.52 455.62 470.52 454.28 470.52 452.95 470.52 451.61 470.52 450.27 470.52 448.93 470.52 447.58 470.52 446.20 470.52 444.81 470.52 443.20 470.52 441.59 470.52 440.26 470.52 438.92 470.52 437.57 470.52 436.23 470.52 434.85 470.52 433.47 470.52 431.89 470.52 430.31 470.52 427.91 470.52 425.51 470.52 423.45 470.52 421.39 470.52 420.16 470.52 418.93 470.52 417.10 470.52 415.26 470.52 413.73 470.52 412.21 470.52 410.87 470.51 409.53 470.51 408.19 470.51 406.85 470.51 405.50 470.48 404.14 470.46 402.49 470.15 400.84 469.84 399.79 469.84 398.73 469.85 397.12 469.85 395.51 469.85 394.18 469.85 392.84 469.85 391.52 469.85 390.19 469.85 388.90 469.85 387.61 469.85 386.54 469.85 385.47 469.85 384.07 469.85 382.68 469.85 381.02 469.85 379.36 469.85 378.16 469.85 376.96 469.85 375.94 469.85 374.92 469.85 373.85 469.85 372.78 469.85 371.38 469.85 369.99 469.85 368.33 469.85 366.68 469.85 365.48 469.85 364.28 469.85 363.27 469.85 362.26 469.85 360.03 469.85 357.80 469.85 356.47 469.85 355.14 469.85 353.82 469.85 352.50 469.85 350.30 469.86 348.11 469.86 346.81 469.89 345.51 469.92 344.28 470.04 343.06 470.17 342.06 470.48 341.06 470.79 339.77 471.01 338.47 471.23 337.17 471.27 335.86 471.30 334.83 471.31 333.81 471.31 332.39 471.58 330.96 471.85 329.10 471.85 327.24 471.85 326.03 471.85 324.81 471.85 323.76 471.85 322.71 471.85 321.36 471.85 320.01 471.85 318.62 471.85 317.22 471.85 315.54 471.85 313.87 471.85 312.16 471.85 310.46 471.85 309.19 471.85 307.91 471.85 305.73 471.85 303.54 471.85 301.44 471.85 299.33 471.85 297.99 471.85 296.65 471.84 295.27 471.82 293.90 471.81 292.36 471.68 290.83 471.56 289.59 471.02 288.36 470.49 286.66 470.50 284.96 470.51 283.61 470.51 282.25 470.50 280.41 470.50 278.58 470.49 277.41 470.47 276.24 470.45 274.42 470.24 272.60 470.04 271.40 469.22 270.20 468.40 268.69 468.43 267.19 468.46 266.04 468.42 264.89 468.39 263.04 468.30 261.18 468.21 259.86 468.03 258.54 467.84 256.94 467.84 255.34 467.84 253.57 467.84 251.81 467.84 250.23 467.83 248.65 467.83 247.57 467.81 246.49 467.80 244.96 467.67 243.44 467.55 241.73 467.04 240.02 466.53 238.76 466.39 237.51 466.25 237.45 467.65 237.40 469.04 237.13 470.16 236.87 471.28 236.86 473.09 236.86 474.89 235.87 476.05 234.88 477.20 234.87 477.20 Z" data-drauu_index="4"></path><path fill="#ff595e" d="M 347.73 466.51 Q 347.73 466.51 346.74 464.40 345.74 462.29 345.74 460.05 345.74 457.80 345.74 455.70 345.74 453.59 345.74 451.36 345.74 449.12 345.74 447.59 345.74 446.06 345.55 444.16 345.37 442.27 345.28 440.02 345.20 437.77 344.80 435.85 344.40 433.92 344.20 431.97 344.01 430.03 343.75 427.93 343.48 425.83 343.18 423.19 342.87 420.54 342.73 418.61 342.60 416.68 342.18 414.66 341.76 412.65 341.55 409.88 341.35 407.11 340.70 403.40 340.06 399.68 339.78 397.86 339.50 396.03 339.00 393.57 338.51 391.12 338.28 389.01 338.05 386.89 337.60 384.80 337.14 382.70 336.92 380.51 336.70 378.31 336.11 376.92 335.51 375.53 334.99 373.12 334.46 370.72 334.08 369.24 333.70 367.75 333.18 366.45 332.67 365.14 332.07 363.82 331.47 362.49 331.14 361.15 330.82 359.80 330.51 358.12 330.20 356.44 329.90 355.45 329.60 354.46 329.43 352.46 329.25 350.46 328.85 349.12 328.44 347.78 328.22 346.21 328.00 344.65 327.92 343.41 327.83 342.16 327.61 340.58 327.39 338.99 327.11 337.36 326.83 335.73 326.69 332.99 326.56 330.24 326.14 327.90 325.71 325.57 325.52 323.08 325.32 320.60 324.50 317.65 323.69 314.71 322.78 312.31 321.87 309.92 321.43 307.54 320.98 305.16 320.80 303.38 320.62 301.59 320.55 300.06 320.47 298.52 320.10 297.34 319.72 296.17 319.51 294.65 319.30 293.13 319.22 292.12 319.14 291.10 319.11 289.88 319.08 288.66 318.71 287.21 318.33 285.75 318.14 283.76 317.95 281.77 317.53 280.40 317.11 279.03 316.88 277.45 316.66 275.88 316.57 274.43 316.48 272.98 316.46 271.63 316.43 270.29 315.86 268.51 315.29 266.74 314.76 264.81 314.22 262.89 313.48 261.04 312.74 259.19 312.25 257.08 311.77 254.97 311.37 253.11 310.97 251.26 310.47 249.71 309.96 248.16 309.87 246.97 309.78 245.77 309.19 244.44 308.60 243.12 309.16 240.95 309.72 238.79 309.72 238.79 309.73 238.79 309.73 238.79 309.74 238.79 310.95 240.14 312.15 241.48 312.96 243.48 313.76 245.48 313.93 246.84 314.09 248.20 314.48 249.31 314.88 250.42 315.27 252.24 315.67 254.07 316.28 256.73 316.89 259.40 317.47 260.56 318.05 261.73 318.36 262.79 318.68 263.86 319.04 265.79 319.39 267.73 319.89 268.87 320.38 270.01 320.43 271.38 320.47 272.74 320.55 274.04 320.62 275.34 320.79 276.62 320.95 277.91 321.44 279.65 321.93 281.39 322.08 283.11 322.22 284.82 322.65 286.68 323.07 288.53 323.17 290.58 323.27 292.62 323.42 293.83 323.56 295.04 324.01 296.67 324.46 298.30 324.53 299.75 324.60 301.20 324.76 302.83 324.92 304.45 325.27 306.49 325.62 308.52 326.58 311.09 327.55 313.66 328.43 316.97 329.30 320.28 329.48 322.58 329.65 324.87 330.10 327.46 330.55 330.05 330.66 332.55 330.77 335.06 331.06 336.75 331.36 338.45 331.59 340.17 331.82 341.89 331.90 343.01 331.97 344.12 332.13 345.40 332.29 346.68 332.76 348.41 333.24 350.14 333.34 351.74 333.44 353.35 333.78 354.53 334.13 355.71 334.62 358.28 335.12 360.86 335.76 362.28 336.40 363.69 336.98 365.22 337.57 366.75 337.97 368.32 338.38 369.90 338.80 371.97 339.23 374.05 339.95 375.97 340.68 377.89 340.86 379.87 341.05 381.86 341.54 384.16 342.03 386.47 342.23 388.40 342.43 390.33 342.94 392.88 343.45 395.42 343.73 397.21 344.00 399.01 344.67 402.92 345.34 406.82 345.51 409.34 345.68 411.85 346.13 414.12 346.59 416.40 346.72 418.24 346.84 420.08 347.15 422.71 347.45 425.33 347.72 427.49 347.99 429.64 348.16 431.39 348.32 433.13 348.76 435.37 349.19 437.61 349.27 439.75 349.35 441.88 349.55 443.97 349.74 446.06 349.74 447.59 349.74 449.12 349.74 451.36 349.74 453.59 349.74 455.70 349.74 457.80 349.74 460.05 349.74 462.29 348.75 464.40 347.75 466.51 347.74 466.51 Z" data-drauu_index="6"></path><path fill="#ff595e" d="M 309.67 238.11 Q 309.67 238.11 308.19 238.90 306.70 239.69 305.29 239.76 303.88 239.83 302.32 239.94 300.76 240.05 299.37 240.07 297.99 240.09 296.84 240.09 295.69 240.10 294.47 240.10 293.25 240.10 292.21 240.10 291.17 240.10 289.23 240.10 287.28 240.10 285.66 240.10 284.03 240.10 282.57 240.10 281.11 240.10 279.72 240.10 278.33 240.10 276.78 240.10 275.23 240.10 274.19 240.10 273.15 240.10 271.93 240.10 270.72 240.10 268.86 240.10 267.01 240.10 265.06 240.10 263.12 240.10 261.91 240.10 260.70 240.10 258.84 240.10 256.98 240.10 255.81 239.89 254.64 239.68 253.26 239.58 251.88 239.48 250.82 239.46 249.77 239.45 247.99 238.93 246.21 238.41 244.28 238.29 242.35 238.17 240.59 238.15 238.83 238.13 236.92 238.12 235.01 238.11 232.69 237.70 230.36 237.30 228.39 237.15 226.42 237.00 224.80 236.93 223.19 236.86 220.99 236.43 218.80 235.99 217.60 235.83 216.41 235.66 215.19 235.60 213.97 235.53 212.68 235.50 211.40 235.47 208.68 235.04 205.96 234.60 204.66 234.46 203.36 234.32 201.46 234.22 199.55 234.13 197.66 234.11 195.76 234.10 194.52 234.09 193.28 234.09 191.38 233.68 189.49 233.27 187.58 233.13 185.66 232.99 183.68 232.92 181.70 232.85 179.70 232.82 177.71 232.79 175.52 232.78 173.33 232.77 171.82 232.76 170.31 232.76 168.90 232.76 167.49 232.75 166.13 232.75 164.76 232.75 162.62 232.75 160.47 232.75 158.82 232.75 157.17 232.75 156.08 232.75 155.00 232.75 152.13 232.12 149.26 231.49 148.25 231.28 147.25 231.06 145.62 230.94 143.99 230.81 142.40 230.37 140.81 229.93 139.51 229.72 138.21 229.51 136.93 229.47 135.65 229.43 134.61 229.43 133.57 229.42 132.00 229.42 130.43 229.41 129.06 229.41 127.68 229.41 126.34 229.41 124.99 229.41 123.28 228.91 121.56 228.41 120.58 226.89 119.61 225.37 119.49 224.11 119.37 222.85 120.35 220.26 121.32 217.68 121.33 217.68 121.33 217.68 121.34 217.68 121.34 217.68 122.32 219.46 123.29 221.23 123.35 222.34 123.41 223.45 124.20 224.43 124.99 225.41 126.34 225.41 127.68 225.41 129.06 225.41 130.44 225.41 132.01 225.42 133.59 225.42 134.66 225.43 135.73 225.43 137.17 225.48 138.62 225.53 140.28 225.81 141.94 226.09 143.07 226.45 144.20 226.82 146.16 226.99 148.11 227.16 149.32 227.43 150.54 227.70 152.77 228.23 155.00 228.75 156.08 228.75 157.17 228.75 158.82 228.75 160.48 228.75 162.62 228.75 164.76 228.75 166.13 228.75 167.50 228.75 168.91 228.76 170.32 228.76 171.84 228.76 173.35 228.77 175.56 228.78 177.77 228.80 179.80 228.83 181.83 228.86 183.91 228.93 185.98 229.00 188.18 229.19 190.38 229.37 191.84 229.73 193.31 230.09 194.55 230.09 195.78 230.10 197.73 230.11 199.67 230.13 200.71 230.16 201.75 230.20 202.78 230.27 203.82 230.35 205.37 230.53 206.93 230.72 209.21 231.10 211.49 231.47 212.85 231.50 214.20 231.54 215.58 231.62 216.96 231.70 218.28 231.89 219.59 232.07 221.48 232.47 223.37 232.86 225.05 232.94 226.73 233.01 228.90 233.19 231.07 233.36 233.06 233.74 235.04 234.11 236.96 234.12 238.88 234.13 240.71 234.15 242.54 234.17 243.65 234.22 244.76 234.28 246.09 234.44 247.42 234.60 248.65 235.03 249.87 235.46 251.75 235.51 253.62 235.56 255.31 235.83 257.00 236.10 258.85 236.10 260.70 236.10 261.91 236.10 263.12 236.10 265.06 236.10 267.01 236.10 268.86 236.10 270.72 236.10 271.93 236.10 273.15 236.10 274.19 236.10 275.23 236.10 276.78 236.10 278.33 236.10 279.72 236.10 281.11 236.10 282.57 236.10 284.03 236.10 285.66 236.10 287.28 236.10 289.23 236.10 291.17 236.10 292.21 236.10 293.24 236.10 294.46 236.10 295.68 236.10 296.82 236.09 297.96 236.09 299.28 236.07 300.59 236.06 301.85 235.98 303.11 235.90 304.16 235.73 305.22 235.56 306.25 235.65 307.27 235.73 308.47 236.91 309.67 238.09 309.67 238.10 Z" data-drauu_index="7"></path><path fill="#ff595e" d="M 307.00 237.42 Q 307.00 237.42 308.82 236.24 310.64 235.06 311.87 234.97 313.11 234.89 314.81 234.84 316.52 234.78 317.93 234.78 319.34 234.77 320.50 234.76 321.65 234.76 322.88 234.76 324.10 234.76 325.41 234.76 326.73 234.76 328.06 234.76 329.39 234.76 330.44 234.76 331.49 234.76 332.52 234.76 333.54 234.76 334.74 234.76 335.95 234.76 338.19 234.76 340.42 234.76 341.95 234.76 343.48 234.76 344.90 234.76 346.31 234.76 348.10 234.76 349.89 234.76 351.31 234.76 352.73 234.76 353.79 234.76 354.85 234.76 356.24 234.76 357.62 234.76 358.88 234.76 360.14 234.76 361.47 234.76 362.79 234.76 364.06 234.78 365.32 234.80 366.49 234.26 367.65 233.72 369.58 233.60 371.51 233.47 374.67 233.46 377.83 233.45 379.55 233.44 381.26 233.43 382.96 233.43 384.66 233.43 386.06 233.43 387.47 233.43 388.81 233.43 390.16 233.43 391.50 233.43 392.84 233.43 393.98 233.43 395.13 233.43 396.48 233.43 397.83 233.43 399.75 233.43 401.67 233.43 403.07 233.43 404.46 233.43 405.82 233.43 407.18 233.43 408.52 233.43 409.87 233.43 411.21 233.43 412.55 233.43 414.29 233.43 416.03 233.43 417.44 233.43 418.85 233.43 420.20 233.43 421.55 233.43 423.00 233.43 424.45 233.43 428.27 233.43 432.10 233.43 436.26 233.43 440.43 233.43 443.93 233.43 447.43 233.43 449.68 233.43 451.94 233.43 453.86 233.43 455.77 233.43 456.97 233.43 458.17 233.43 459.64 233.43 461.10 233.43 462.38 233.43 463.66 233.43 464.90 233.43 466.13 233.43 467.81 233.43 469.49 233.43 470.78 233.43 472.07 233.43 473.38 233.43 474.70 233.43 476.60 233.43 478.50 233.43 480.46 233.43 482.43 233.43 484.03 233.43 485.63 233.43 487.08 233.43 488.53 233.43 489.91 233.43 491.29 233.43 492.79 233.43 494.29 233.43 495.65 233.43 497.01 233.43 498.36 233.43 499.70 233.43 500.94 233.43 502.19 233.43 503.98 233.43 505.78 233.43 507.00 233.43 508.23 233.43 509.51 233.43 510.80 233.43 512.90 233.43 514.99 233.43 516.26 233.43 517.52 233.43 518.63 233.43 519.75 233.43 521.73 233.43 523.72 233.43 525.34 233.43 526.96 233.43 528.34 233.43 529.73 233.43 530.80 233.43 531.87 233.43 533.59 232.91 535.30 232.39 536.45 232.01 537.61 231.63 537.75 230.62 537.89 229.61 538.61 228.01 539.32 226.41 539.69 225.28 540.06 224.14 541.07 222.38 542.08 220.62 542.09 220.62 542.09 220.62 542.10 220.62 542.10 220.62 542.98 223.31 543.86 225.99 543.19 227.35 542.53 228.70 542.08 229.85 541.63 231.01 541.29 232.23 540.95 233.45 539.93 234.51 538.90 235.56 537.17 235.98 535.44 236.39 533.66 236.91 531.87 237.43 530.80 237.43 529.73 237.43 528.34 237.43 526.96 237.43 525.34 237.43 523.72 237.43 521.73 237.43 519.75 237.43 518.63 237.43 517.52 237.43 516.26 237.43 514.99 237.43 512.90 237.43 510.80 237.43 509.51 237.43 508.23 237.43 507.00 237.43 505.78 237.43 503.98 237.43 502.19 237.43 500.94 237.43 499.70 237.43 498.36 237.43 497.01 237.43 495.65 237.43 494.29 237.43 492.79 237.43 491.29 237.43 489.91 237.43 488.53 237.43 487.08 237.43 485.63 237.43 484.03 237.43 482.43 237.43 480.46 237.43 478.50 237.43 476.60 237.43 474.70 237.43 473.38 237.43 472.07 237.43 470.78 237.43 469.49 237.43 467.81 237.43 466.13 237.43 464.90 237.43 463.66 237.43 462.38 237.43 461.10 237.43 459.64 237.43 458.17 237.43 456.97 237.43 455.77 237.43 453.86 237.43 451.94 237.43 449.68 237.43 447.43 237.43 443.93 237.43 440.43 237.43 436.26 237.43 432.10 237.43 428.27 237.43 424.45 237.43 423.00 237.43 421.55 237.43 420.20 237.43 418.85 237.43 417.44 237.43 416.03 237.43 414.29 237.43 412.55 237.43 411.21 237.43 409.87 237.43 408.52 237.43 407.18 237.43 405.82 237.43 404.46 237.43 403.07 237.43 401.67 237.43 399.75 237.43 397.83 237.43 396.48 237.43 395.13 237.43 393.98 237.43 392.84 237.43 391.50 237.43 390.16 237.43 388.81 237.43 387.47 237.43 386.07 237.43 384.67 237.43 382.97 237.43 381.28 237.43 379.56 237.44 377.85 237.45 374.73 237.46 371.62 237.47 369.70 237.60 367.77 237.74 366.68 238.23 365.59 238.73 364.19 238.74 362.79 238.76 361.47 238.76 360.14 238.76 358.88 238.76 357.62 238.76 356.24 238.76 354.85 238.76 353.79 238.76 352.73 238.76 351.31 238.76 349.89 238.76 348.10 238.76 346.31 238.76 344.90 238.76 343.48 238.76 341.95 238.76 340.42 238.76 338.19 238.76 335.95 238.76 334.74 238.76 333.54 238.76 332.52 238.76 331.49 238.76 330.44 238.76 329.39 238.76 328.06 238.76 326.73 238.76 325.41 238.76 324.10 238.76 322.88 238.76 321.66 238.76 320.51 238.76 319.35 238.77 317.98 238.77 316.60 238.78 314.99 238.83 313.38 238.88 312.21 238.96 311.04 239.04 309.02 238.24 307.00 237.44 307.00 237.43 Z" data-drauu_index="8"></path><path fill="#ffca3a" d="M 495.33 461.83 Q 495.33 461.83 494.98 459.94 494.63 458.05 495.55 456.62 496.47 455.20 497.56 453.37 498.65 451.55 499.50 450.02 500.34 448.49 500.89 447.45 501.44 446.42 501.97 445.33 502.50 444.24 503.08 442.25 503.65 440.26 504.27 439.16 504.88 438.06 505.40 436.78 505.93 435.50 506.89 434.64 507.86 433.77 508.51 432.38 509.15 431.00 509.63 429.88 510.11 428.76 510.73 427.44 511.35 426.12 513.29 423.83 515.22 421.53 516.10 420.18 516.97 418.82 518.15 417.04 519.32 415.27 520.18 413.79 521.03 412.32 521.77 410.94 522.51 409.55 522.99 408.45 523.47 407.34 524.29 405.89 525.10 404.44 525.93 403.45 526.76 402.45 527.44 400.29 528.13 398.14 528.78 396.93 529.43 395.73 530.67 393.68 531.91 391.64 532.76 389.91 533.62 388.18 533.91 385.97 534.21 383.75 534.77 381.44 535.34 379.14 535.96 376.84 536.58 374.53 537.23 372.21 537.88 369.88 538.54 367.72 539.21 365.56 540.06 362.74 540.92 359.92 541.25 357.70 541.58 355.48 542.34 352.82 543.10 350.16 543.59 347.80 544.08 345.44 545.72 342.24 547.37 339.04 547.97 337.17 548.57 335.30 548.82 334.15 549.08 333.00 549.18 331.46 549.28 329.92 549.76 328.39 550.24 326.87 550.38 325.55 550.52 324.24 550.60 322.89 550.67 321.55 551.11 319.62 551.55 317.70 551.72 316.64 551.88 315.59 552.15 313.95 552.42 312.32 552.75 311.13 553.08 309.94 553.63 308.61 554.18 307.27 554.34 306.20 554.49 305.12 554.57 303.72 554.66 302.31 555.11 300.52 555.56 298.73 556.24 296.35 556.91 293.96 557.26 292.58 557.62 291.20 558.00 290.11 558.38 289.02 558.72 288.02 559.06 287.03 559.40 286.03 559.73 285.03 560.41 283.29 561.09 281.56 561.38 280.52 561.66 279.47 562.01 278.34 562.37 277.21 563.35 275.24 564.33 273.28 565.30 271.36 566.26 269.44 566.61 268.20 566.96 266.96 567.82 265.54 568.69 264.13 569.33 262.77 569.98 261.42 570.43 260.12 570.89 258.82 571.83 257.57 572.77 256.32 573.59 254.88 574.42 253.43 575.24 252.30 576.07 251.17 576.48 249.97 576.90 248.77 577.87 247.71 578.84 246.65 579.58 244.58 580.31 242.50 580.88 241.23 581.45 239.96 581.86 238.70 582.28 237.44 582.82 236.18 583.36 234.91 583.90 233.93 584.43 232.95 585.03 231.36 585.63 229.77 586.03 228.84 586.44 227.92 586.89 226.89 587.35 225.86 587.99 224.25 588.63 222.64 588.70 221.21 588.78 219.78 589.39 218.15 590.01 216.51 590.27 214.82 590.52 213.12 590.98 211.40 591.43 209.68 591.78 208.56 592.12 207.44 590.75 207.17 589.37 206.90 588.24 206.51 587.12 206.11 585.45 204.76 583.79 203.41 583.79 203.41 583.79 203.40 583.79 203.40 583.79 203.39 586.15 202.81 588.52 202.22 589.44 202.63 590.37 203.03 591.77 203.63 593.18 204.22 594.35 204.96 595.52 205.71 595.74 207.50 595.95 209.29 595.31 210.53 594.67 211.77 594.57 212.79 594.46 213.80 594.22 215.24 593.97 216.67 593.54 217.86 593.11 219.05 592.88 220.42 592.64 221.80 592.18 223.52 591.71 225.24 591.20 226.93 590.69 228.62 590.02 229.93 589.35 231.23 588.89 232.39 588.44 233.55 587.80 234.84 587.17 236.13 586.62 237.43 586.07 238.72 585.58 240.16 585.10 241.59 584.01 243.73 582.93 245.88 581.74 248.08 580.56 250.29 579.94 251.90 579.31 253.50 578.59 254.47 577.88 255.44 576.25 257.83 574.63 260.22 574.10 261.69 573.58 263.16 572.82 264.72 572.06 266.28 571.42 267.21 570.78 268.13 570.31 269.67 569.84 271.22 568.87 273.15 567.90 275.08 567.04 276.75 566.18 278.42 565.83 279.52 565.49 280.62 565.00 282.12 564.52 283.61 564.02 284.96 563.53 286.30 563.19 287.31 562.85 288.32 562.17 290.27 561.49 292.22 561.07 293.80 560.65 295.37 560.24 296.41 559.83 297.45 559.63 298.60 559.43 299.75 559.04 301.16 558.65 302.57 558.54 304.18 558.44 305.79 558.16 307.29 557.88 308.80 557.40 309.91 556.92 311.03 556.64 312.00 556.36 312.97 556.10 314.59 555.83 316.21 555.64 317.42 555.44 318.62 555.05 320.20 554.66 321.78 554.58 323.25 554.49 324.72 554.26 326.43 554.03 328.13 553.65 329.18 553.26 330.24 553.12 332.06 552.98 333.88 552.67 335.21 552.37 336.55 551.64 338.72 550.91 340.90 549.44 343.60 547.98 346.29 547.46 348.78 546.94 351.26 546.24 353.68 545.54 356.09 545.14 358.58 544.75 361.07 543.89 363.90 543.03 366.74 542.38 368.85 541.73 370.96 541.09 373.27 540.44 375.57 539.83 377.84 539.22 380.10 538.69 382.23 538.16 384.35 537.69 387.13 537.22 389.91 536.27 391.81 535.33 393.71 534.13 395.68 532.94 397.64 532.38 398.65 531.83 399.67 531.35 400.80 530.87 401.93 529.74 404.15 528.61 406.36 527.87 407.65 527.14 408.95 526.59 410.19 526.04 411.44 525.26 412.89 524.49 414.33 523.57 415.90 522.66 417.47 521.49 419.24 520.32 421.01 519.29 422.57 518.25 424.14 516.60 426.00 514.95 427.86 514.36 429.10 513.78 430.34 513.22 431.63 512.66 432.92 512.12 433.81 511.58 434.70 511.13 435.62 510.68 436.55 509.82 437.34 508.96 438.14 508.23 439.74 507.50 441.34 506.92 443.33 506.35 445.31 505.66 446.80 504.97 448.30 504.40 449.36 503.84 450.42 502.96 452.01 502.09 453.60 500.94 455.51 499.80 457.42 499.08 458.45 498.36 459.48 496.86 460.66 495.35 461.84 495.34 461.84 Z" data-drauu_index="9"></path><path fill="#ffca3a" d="M 592.85 207.37 Q 592.85 207.37 594.01 206.38 595.16 205.39 596.21 205.38 597.26 205.38 598.91 205.07 600.56 204.76 601.86 204.75 603.17 204.73 604.40 204.16 605.62 203.60 608.00 203.35 610.37 203.11 610.37 203.12 610.38 203.12 610.38 203.12 610.38 203.13 609.19 204.92 607.99 206.71 606.47 207.44 604.96 208.17 603.47 208.45 601.98 208.73 600.92 208.76 599.85 208.80 598.58 209.09 597.31 209.37 596.23 209.37 595.16 209.36 594.01 208.37 592.85 207.39 592.85 207.38 Z" data-drauu_index="10"></path><path fill="#8ac926" d="M 535.41 457.16 Q 535.41 457.16 536.27 453.60 537.13 450.04 538.61 447.05 540.08 444.06 541.32 441.78 542.55 439.50 543.60 437.08 544.66 434.66 545.77 432.89 546.88 431.12 548.33 429.21 549.78 427.30 550.65 425.35 551.52 423.41 552.35 421.87 553.18 420.33 553.70 419.33 554.23 418.33 554.65 417.18 555.07 416.03 556.29 414.95 557.51 413.87 558.67 411.79 559.82 409.70 561.60 407.38 563.38 405.07 564.02 403.89 564.66 402.70 565.74 400.79 566.82 398.88 568.02 396.56 569.23 394.25 570.55 392.05 571.87 389.85 573.20 387.76 574.53 385.67 575.45 384.07 576.37 382.46 577.21 381.29 578.05 380.12 578.72 378.97 579.38 377.82 580.51 376.26 581.63 374.70 582.67 373.29 583.71 371.89 584.26 370.83 584.82 369.78 586.16 368.15 587.50 366.53 588.75 364.81 590.00 363.10 590.89 361.64 591.77 360.19 592.93 358.21 594.08 356.24 595.62 354.32 597.15 352.40 597.64 351.26 598.14 350.11 599.43 348.08 600.71 346.04 602.07 344.37 603.42 342.70 604.88 340.56 606.34 338.42 607.10 336.83 607.86 335.24 609.08 333.59 610.30 331.94 610.89 330.85 611.49 329.75 612.14 328.49 612.80 327.23 613.54 326.19 614.28 325.15 614.97 323.43 615.67 321.71 616.31 319.83 616.94 317.95 618.19 317.15 619.43 316.35 620.35 315.30 621.27 314.24 621.96 313.18 622.66 312.12 623.27 311.15 623.87 310.17 624.67 309.07 625.47 307.98 626.32 306.40 627.18 304.82 627.62 303.76 628.06 302.70 629.00 301.50 629.93 300.29 630.25 299.20 630.57 298.10 631.03 296.71 631.50 295.32 632.20 293.85 632.89 292.37 633.50 291.13 634.10 289.89 634.74 288.83 635.38 287.77 636.01 286.51 636.63 285.25 636.94 284.18 637.25 283.11 637.92 281.57 638.59 280.03 638.75 278.80 638.90 277.58 639.74 275.71 640.57 273.83 640.72 272.06 640.88 270.29 640.90 269.10 640.92 267.91 641.13 266.32 641.33 264.72 641.41 263.58 641.49 262.44 641.57 260.37 641.64 258.30 642.36 256.98 643.08 255.66 643.28 254.60 643.48 253.54 643.54 251.57 643.60 249.61 643.61 248.06 643.61 246.51 643.83 245.42 644.04 244.33 644.14 242.66 644.23 240.98 644.25 239.41 644.27 237.85 644.59 236.23 644.90 234.62 645.23 233.34 645.55 232.06 646.19 230.56 646.83 229.05 647.27 227.50 647.72 225.94 648.50 224.44 649.29 222.95 649.44 221.73 649.59 220.51 649.94 219.43 650.29 218.36 651.00 217.45 651.71 216.55 652.32 215.32 652.93 214.08 653.26 212.99 653.59 211.90 654.28 210.63 654.97 209.37 656.19 208.33 657.40 207.30 658.72 207.04 660.03 206.78 661.35 206.75 662.67 206.72 663.91 206.72 665.16 206.72 666.84 206.71 668.52 206.71 670.38 207.16 672.24 207.61 673.39 207.72 674.53 207.82 677.31 208.56 680.09 209.29 681.37 209.62 682.64 209.95 683.60 210.53 684.57 211.10 686.07 211.23 687.57 211.37 688.82 211.37 690.08 211.38 690.21 209.90 690.35 208.43 690.35 206.98 690.36 205.53 690.36 204.52 690.36 203.52 690.36 202.17 690.37 200.82 690.37 199.57 690.37 198.31 689.36 197.85 688.36 197.39 686.39 197.56 684.42 197.72 683.05 197.81 681.68 197.90 680.14 197.95 678.59 198.00 677.28 198.01 675.97 198.02 675.00 198.31 674.03 198.61 672.91 198.93 671.79 199.26 670.79 199.40 669.80 199.54 668.68 200.00 667.57 200.46 667.00 202.01 666.43 203.56 665.38 204.62 664.32 205.67 662.40 207.28 660.47 208.88 660.47 208.88 660.46 208.88 660.46 208.88 660.46 208.88 660.62 206.69 660.78 204.50 661.91 203.09 663.04 201.68 663.28 200.17 663.52 198.65 664.41 197.96 665.30 197.26 666.69 196.60 668.08 195.93 669.39 195.63 670.70 195.33 671.82 194.94 672.93 194.56 674.45 194.29 675.96 194.02 677.22 194.01 678.49 194.00 679.96 193.95 681.43 193.91 682.61 193.84 683.80 193.77 685.15 193.57 686.50 193.37 688.09 193.41 689.67 193.46 690.66 193.57 691.66 193.67 692.54 194.17 693.43 194.67 693.90 196.49 694.37 198.31 694.37 199.57 694.37 200.82 694.36 202.17 694.36 203.52 694.36 204.53 694.36 205.54 694.35 207.02 694.35 208.50 694.29 209.75 694.24 211.00 693.74 212.47 693.25 213.94 692.33 214.58 691.41 215.22 690.08 215.30 688.75 215.38 687.49 215.35 686.23 215.33 684.92 215.15 683.62 214.98 682.68 214.40 681.74 213.82 680.20 213.42 678.65 213.02 677.36 212.48 676.07 211.93 675.07 211.86 674.06 211.79 672.45 211.57 670.83 211.35 669.67 211.03 668.52 210.71 666.85 210.71 665.17 210.72 663.32 210.73 661.46 210.74 660.23 210.81 659.00 210.89 658.27 211.63 657.54 212.36 657.09 213.59 656.63 214.81 656.14 215.92 655.65 217.02 655.17 218.06 654.70 219.10 654.11 220.06 653.53 221.01 653.32 222.38 653.12 223.74 652.26 225.41 651.41 227.09 651.07 228.21 650.74 229.34 650.14 230.82 649.54 232.31 649.46 233.45 649.39 234.59 648.83 236.24 648.27 237.88 648.25 239.50 648.23 241.11 648.19 242.28 648.15 243.44 647.88 244.99 647.61 246.54 647.61 248.09 647.60 249.64 647.57 251.34 647.54 253.03 647.35 254.45 647.15 255.86 646.34 257.28 645.53 258.70 645.51 260.71 645.48 262.73 645.39 263.99 645.30 265.26 645.11 266.62 644.92 267.98 644.90 269.22 644.88 270.46 644.67 272.48 644.45 274.50 643.63 275.63 642.80 276.77 642.82 277.92 642.83 279.07 642.58 280.27 642.32 281.47 641.70 282.86 641.09 284.24 640.81 285.20 640.52 286.16 640.07 287.59 639.62 289.01 638.79 289.90 637.95 290.78 637.49 291.73 637.04 292.67 636.52 294.04 636.01 295.42 635.48 296.34 634.94 297.26 634.63 298.39 634.31 299.52 633.95 300.46 633.58 301.40 632.89 302.35 632.21 303.30 631.79 304.44 631.37 305.58 630.49 306.90 629.61 308.21 629.17 309.26 628.72 310.31 627.59 311.82 626.46 313.33 625.58 314.81 624.69 316.30 624.06 317.25 623.43 318.21 621.64 319.77 619.85 321.33 619.58 322.35 619.31 323.37 618.83 324.40 618.36 325.42 617.95 326.43 617.54 327.45 616.94 328.26 616.35 329.08 615.67 330.38 614.99 331.69 614.24 333.01 613.50 334.34 612.47 335.67 611.45 337.01 610.55 338.84 609.64 340.67 608.08 342.94 606.53 345.22 605.31 346.71 604.08 348.20 602.93 349.99 601.77 351.79 601.03 353.34 600.28 354.88 598.91 356.57 597.53 358.26 596.36 360.27 595.18 362.28 594.21 363.86 593.23 365.45 591.90 367.28 590.56 369.11 589.45 370.40 588.33 371.69 587.63 372.97 586.93 374.26 585.90 375.65 584.87 377.04 583.85 378.44 582.83 379.84 582.06 381.15 581.29 382.46 580.56 383.46 579.84 384.45 578.87 386.14 577.90 387.82 576.60 389.86 575.30 391.91 574.04 394.00 572.78 396.10 571.54 398.47 570.30 400.85 569.23 402.74 568.16 404.63 567.35 406.07 566.55 407.52 564.94 409.57 563.33 411.62 562.45 413.22 561.57 414.83 560.09 416.25 558.61 417.68 558.19 418.93 557.77 420.18 557.23 421.21 556.70 422.23 555.92 423.66 555.15 425.08 554.06 427.39 552.97 429.70 551.62 431.49 550.26 433.27 549.29 434.77 548.32 436.27 547.19 438.84 546.07 441.40 544.87 443.62 543.67 445.84 542.14 448.92 540.62 452.00 538.02 454.58 535.42 457.17 535.42 457.16 Z" data-drauu_index="11"></path><path fill="#1982c4" d="M 571.47 465.84 Q 571.47 465.84 572.43 463.10 573.39 460.35 575.04 457.98 576.68 455.61 578.37 453.23 580.05 450.84 582.49 447.34 584.93 443.84 586.68 440.53 588.42 437.21 591.62 433.47 594.81 429.73 597.23 426.54 599.65 423.34 601.84 420.43 604.04 417.52 606.36 414.88 608.69 412.24 609.98 410.45 611.27 408.66 612.19 407.16 613.11 405.66 614.50 403.61 615.89 401.57 616.78 399.69 617.67 397.81 618.43 395.71 619.19 393.61 619.97 392.15 620.75 390.69 621.41 389.24 622.07 387.79 622.51 386.30 622.95 384.81 623.84 383.32 624.73 381.83 626.07 380.07 627.41 378.32 627.82 377.08 628.23 375.85 628.87 374.39 629.52 372.93 630.17 371.54 630.83 370.16 631.56 369.08 632.29 368.00 632.62 366.36 632.96 364.73 633.77 362.62 634.59 360.52 634.87 359.07 635.15 357.62 635.72 356.03 636.28 354.44 636.91 352.99 637.54 351.55 638.16 349.86 638.78 348.17 639.52 346.89 640.25 345.61 641.19 344.43 642.13 343.25 643.00 341.95 643.86 340.65 644.02 339.53 644.19 338.41 644.66 337.10 645.14 335.79 645.75 334.64 646.37 333.50 646.74 332.44 647.11 331.37 647.94 329.92 648.78 328.47 649.47 327.19 650.16 325.91 650.61 324.86 651.07 323.80 651.70 322.66 652.33 321.53 653.02 319.14 653.71 316.76 654.12 315.79 654.54 314.82 655.53 312.89 656.52 310.96 657.30 309.69 658.08 308.43 658.53 307.11 658.97 305.79 659.16 304.71 659.35 303.62 659.93 302.45 660.51 301.27 661.18 300.36 661.86 299.46 662.42 298.47 662.98 297.49 663.40 296.54 663.81 295.59 664.29 294.17 664.77 292.75 664.83 291.62 664.89 290.50 665.37 289.13 665.84 287.76 666.19 286.23 666.54 284.70 667.45 283.46 668.37 282.21 668.92 280.90 669.48 279.60 670.17 278.16 670.86 276.73 671.78 275.26 672.70 273.79 673.42 272.48 674.15 271.18 674.80 269.56 675.45 267.95 676.15 266.41 676.85 264.87 677.18 263.28 677.52 261.70 678.23 260.33 678.93 258.96 679.76 257.47 680.59 255.98 681.62 255.42 682.65 254.85 683.78 253.14 684.90 251.44 685.83 251.01 686.77 250.58 689.29 250.24 691.81 249.90 691.81 249.91 691.82 249.91 691.82 249.91 691.82 249.92 690.95 251.53 690.07 253.14 688.52 253.97 686.98 254.80 685.93 256.48 684.87 258.16 683.92 258.97 682.97 259.77 682.39 260.77 681.80 261.77 681.49 262.98 681.17 264.20 680.83 265.36 680.49 266.52 679.82 267.99 679.15 269.46 678.40 271.29 677.64 273.12 676.86 274.52 676.08 275.92 675.27 277.19 674.46 278.46 673.79 279.86 673.12 281.26 671.74 283.51 670.35 285.77 669.61 288.28 668.87 290.79 668.80 292.08 668.72 293.38 668.09 295.30 667.46 297.22 666.95 298.35 666.45 299.49 665.74 300.69 665.03 301.89 664.15 303.15 663.27 304.41 663.00 305.76 662.74 307.12 662.12 308.82 661.49 310.52 660.23 312.45 658.97 314.38 658.21 316.28 657.44 318.19 657.00 319.32 656.55 320.45 656.20 321.94 655.84 323.43 655.29 324.41 654.74 325.39 654.21 326.60 653.68 327.81 652.95 329.16 652.22 330.51 651.55 331.62 650.87 332.73 650.37 334.07 649.88 335.41 649.02 337.15 648.15 338.88 647.80 340.66 647.44 342.43 646.34 344.10 645.24 345.77 644.47 346.70 643.70 347.63 643.12 348.60 642.53 349.56 641.87 351.36 641.21 353.15 640.62 354.47 640.04 355.80 639.56 357.11 639.07 358.43 638.69 360.20 638.32 361.97 637.58 363.82 636.84 365.67 636.23 367.92 635.63 370.18 635.03 371.03 634.44 371.88 633.81 373.21 633.17 374.55 632.58 375.89 631.99 377.23 631.30 378.97 630.61 380.70 629.37 382.32 628.12 383.94 627.45 384.97 626.77 386.00 626.24 387.72 625.71 389.44 624.99 391.03 624.26 392.61 623.60 393.79 622.94 394.97 622.11 397.26 621.28 399.55 620.24 401.68 619.20 403.81 617.86 405.78 616.52 407.75 615.51 409.38 614.51 411.00 613.10 412.94 611.69 414.88 609.46 417.41 607.23 419.93 605.03 422.85 602.84 425.76 600.34 429.05 597.84 432.34 594.89 435.72 591.94 439.11 590.08 442.61 588.21 446.12 585.77 449.64 583.32 453.15 581.64 455.52 579.97 457.89 578.23 460.39 576.49 462.89 573.99 464.37 571.49 465.85 571.48 465.84 Z" data-drauu_index="13"></path><path fill="#1982c4" d="M 705.72 248.77 Q 705.72 248.77 706.49 247.61 707.25 246.44 709.43 246.30 711.61 246.17 713.41 246.15 715.21 246.13 716.32 245.87 717.44 245.62 718.78 245.54 720.13 245.47 721.45 245.46 722.78 245.45 724.11 245.45 725.44 245.45 726.59 245.45 727.73 245.45 728.87 245.45 730.00 245.45 731.39 245.45 732.77 245.45 733.83 245.45 734.88 245.45 736.10 245.45 737.32 245.45 738.99 245.45 740.66 245.45 742.05 245.45 743.45 245.45 744.79 245.45 746.14 245.45 747.29 245.45 748.43 245.45 749.65 245.46 750.87 245.47 752.85 246.45 754.83 247.44 754.83 247.44 754.83 247.45 754.83 247.45 754.83 247.46 752.85 248.44 750.87 249.43 749.65 249.44 748.43 249.45 747.29 249.45 746.14 249.45 744.79 249.45 743.45 249.45 742.05 249.45 740.66 249.45 738.99 249.45 737.32 249.45 736.10 249.45 734.88 249.45 733.83 249.45 732.77 249.45 731.39 249.45 730.00 249.45 728.87 249.45 727.73 249.45 726.59 249.45 725.45 249.45 724.12 249.45 722.79 249.45 721.51 249.46 720.23 249.47 719.09 249.51 717.96 249.55 716.60 249.84 715.24 250.13 713.47 250.15 711.71 250.17 709.87 250.26 708.04 250.36 706.88 249.58 705.73 248.79 705.72 248.78 Z" data-drauu_index="14"></path><path fill="#8ac926" d="M 538.76 449.15 Q 538.76 449.15 538.89 451.13 539.01 453.11 537.70 454.84 536.39 456.56 535.78 457.92 535.17 459.28 534.71 460.33 534.25 461.37 533.58 462.85 532.92 464.33 532.37 465.99 531.82 467.65 531.67 468.70 531.51 469.74 531.47 470.99 531.43 472.24 530.42 474.89 529.42 477.55 529.41 477.55 529.41 477.55 529.40 477.55 529.40 477.55 528.41 475.53 527.43 473.52 527.44 472.13 527.46 470.75 527.61 469.17 527.76 467.60 528.40 466.14 529.04 464.69 529.70 462.56 530.36 460.43 530.93 459.05 531.51 457.67 531.97 456.63 532.44 455.59 533.16 454.53 533.88 453.46 534.66 452.39 535.43 451.33 537.09 450.23 538.75 449.14 538.75 449.15 Z" data-drauu_index="1"></path><path fill="#6a4c93" d="M 623.57 463.17 Q 623.57 463.17 622.99 461.55 622.42 459.93 622.78 458.77 623.14 457.60 623.47 456.21 623.79 454.83 624.36 453.32 624.93 451.82 625.11 450.81 625.30 449.79 625.88 448.64 626.46 447.48 627.34 446.38 628.22 445.28 628.47 443.98 628.73 442.68 629.30 440.61 629.87 438.53 630.47 436.33 631.07 434.13 631.52 432.36 631.96 430.59 632.37 429.38 632.77 428.17 633.32 427.07 633.86 425.97 634.27 424.68 634.67 423.40 634.77 421.33 634.86 419.26 635.11 418.21 635.35 417.16 636.09 415.64 636.83 414.13 637.14 412.60 637.45 411.08 637.98 409.93 638.51 408.77 639.10 406.34 639.69 403.91 639.85 402.85 640.02 401.79 640.58 400.63 641.14 399.47 641.76 397.17 642.38 394.88 642.53 393.76 642.69 392.63 643.24 391.43 643.79 390.22 644.58 386.64 645.37 383.05 646.05 380.74 646.73 378.44 647.70 376.85 648.67 375.26 649.17 374.21 649.67 373.16 650.07 372.16 650.47 371.16 654.33 364.28 658.19 357.39 660.44 353.87 662.68 350.36 663.58 348.58 664.48 346.80 665.32 345.53 666.17 344.25 666.85 343.04 667.52 341.84 668.00 340.78 668.48 339.72 669.87 338.37 671.26 337.01 672.41 335.53 673.56 334.06 674.22 332.92 674.87 331.78 676.04 330.34 677.21 328.91 678.47 327.55 679.74 326.18 680.85 325.03 681.96 323.88 682.81 323.01 683.67 322.13 684.54 321.08 685.41 320.03 686.47 319.08 687.53 318.12 688.29 317.41 689.05 316.69 690.12 315.63 691.20 314.58 692.49 313.16 693.79 311.75 695.16 311.03 696.54 310.31 697.55 308.53 698.57 306.76 699.36 306.10 700.15 305.45 701.45 303.32 702.76 301.20 703.35 300.37 703.94 299.54 704.72 298.09 705.50 296.64 706.22 295.46 706.94 294.27 707.82 292.80 708.71 291.33 709.29 290.50 709.87 289.66 710.77 288.64 711.66 287.62 712.50 286.18 713.33 284.75 715.34 281.14 717.35 277.53 718.34 276.04 719.32 274.55 720.08 273.21 720.85 271.88 722.14 269.57 723.43 267.26 724.20 266.04 724.97 264.82 725.59 263.67 726.21 262.53 726.90 261.64 727.58 260.76 727.73 260.57 727.88 260.38 728.07 260.22 728.25 260.07 728.47 259.97 728.69 259.87 728.93 259.83 729.16 259.78 729.41 259.79 729.65 259.80 729.88 259.87 730.11 259.94 730.32 260.07 730.52 260.19 730.70 260.36 730.87 260.53 730.99 260.73 731.12 260.94 731.20 261.17 731.27 261.40 731.29 261.64 731.30 261.88 731.26 262.11 731.22 262.35 731.12 262.57 731.03 262.79 727.69 263.00 724.34 263.20 723.01 263.09 721.67 262.97 720.61 263.28 719.56 263.59 718.09 264.10 716.61 264.62 715.65 264.88 714.68 265.14 712.06 264.30 709.45 263.47 709.45 263.46 709.45 263.46 709.45 263.45 709.45 263.45 712.16 262.23 714.87 261.02 716.74 260.36 718.61 259.71 720.27 259.35 721.94 258.99 723.38 259.11 724.81 259.23 726.20 259.99 727.58 260.76 727.73 260.57 727.88 260.38 728.07 260.23 728.25 260.07 728.47 259.97 728.69 259.87 728.93 259.83 729.16 259.78 729.41 259.79 729.65 259.80 729.88 259.87 730.11 259.94 730.32 260.07 730.52 260.19 730.70 260.36 730.87 260.53 730.99 260.73 731.12 260.94 731.20 261.17 731.27 261.40 731.29 261.64 731.30 261.88 731.26 262.11 731.22 262.35 731.12 262.57 731.03 262.79 730.52 263.28 730.01 263.76 729.18 265.36 728.36 266.95 727.64 268.09 726.92 269.22 725.62 271.54 724.32 273.87 723.49 275.31 722.66 276.76 721.71 278.19 720.76 279.61 719.03 282.39 717.30 285.17 716.50 286.67 715.70 288.18 715.20 289.20 714.69 290.22 713.92 291.08 713.15 291.95 712.52 292.85 711.90 293.74 711.13 295.05 710.35 296.35 709.29 298.04 708.23 299.74 707.19 301.52 706.15 303.31 705.28 304.72 704.40 306.13 703.02 307.72 701.64 309.32 700.95 310.40 700.27 311.49 699.66 312.44 699.05 313.39 697.17 314.33 695.28 315.28 694.66 316.33 694.04 317.38 693.29 318.13 692.54 318.87 691.72 319.66 690.89 320.44 689.80 321.37 688.71 322.30 687.62 323.62 686.53 324.93 685.68 325.79 684.84 326.66 683.75 327.78 682.67 328.90 681.48 330.18 680.29 331.46 679.31 332.63 678.32 333.80 677.51 335.17 676.70 336.54 675.32 338.26 673.94 339.98 672.99 340.73 672.04 341.47 671.52 342.64 671.01 343.81 670.25 345.14 669.49 346.47 668.77 347.54 668.04 348.62 667.05 350.56 666.05 352.51 663.85 355.95 661.65 359.39 657.92 366.02 654.18 372.66 653.73 373.78 653.27 374.91 652.66 376.16 652.04 377.41 651.30 378.51 650.55 379.61 649.90 381.82 649.25 384.03 648.60 386.56 647.96 389.10 647.29 391.20 646.62 393.30 646.38 394.78 646.13 396.26 645.71 397.34 645.29 398.43 644.62 400.47 643.95 402.51 643.72 403.82 643.50 405.13 643.07 406.43 642.64 407.73 642.02 409.67 641.40 411.62 640.90 413.77 640.40 415.93 639.63 417.67 638.86 419.41 638.80 421.03 638.75 422.64 638.33 424.32 637.92 426.00 637.31 427.41 636.70 428.82 636.41 430.14 636.12 431.47 635.70 432.48 635.27 433.49 635.05 434.51 634.82 435.54 634.43 436.48 634.05 437.43 633.91 438.44 633.76 439.45 633.23 441.31 632.70 443.17 632.01 445.49 631.32 447.81 630.26 449.21 629.20 450.61 628.94 451.92 628.67 453.24 628.18 454.50 627.69 455.76 627.32 457.27 626.96 458.78 626.62 459.91 626.27 461.03 624.93 462.10 623.58 463.18 623.58 463.17 Z" data-drauu_index="2"></path><path fill="#6a4c93" d="M 729.10 262.80 Q 729.10 262.80 730.25 261.81 731.40 260.82 733.03 260.82 734.66 260.81 735.86 260.81 737.06 260.81 738.28 260.81 739.51 260.81 740.83 260.81 742.15 260.81 744.81 261.80 747.48 262.80 747.48 262.80 747.48 262.81 747.48 262.81 747.48 262.82 744.81 263.81 742.15 264.81 740.83 264.81 739.51 264.81 738.28 264.81 737.06 264.81 735.86 264.81 734.66 264.81 733.03 264.80 731.40 264.80 730.25 263.81 729.10 262.82 729.10 262.81 Z" data-drauu_index="3"></path><path fill="#ff595e" d="M 658.96 471.85 Q 658.96 471.85 658.38 470.08 657.80 468.30 657.94 466.46 658.07 464.62 658.55 462.48 659.02 460.34 659.63 458.61 660.24 456.88 660.99 454.55 661.74 452.22 661.97 451.06 662.20 449.91 662.77 448.19 663.33 446.47 663.47 444.55 663.61 442.63 663.63 441.40 663.65 440.18 664.11 438.93 664.57 437.68 665.22 435.59 665.87 433.51 666.04 432.12 666.21 430.73 666.26 429.38 666.31 428.04 666.94 426.67 667.57 425.30 667.58 423.21 667.59 421.11 667.61 419.94 667.63 418.76 668.07 417.23 668.50 415.70 668.70 414.20 668.90 412.71 668.93 411.67 668.95 410.62 669.40 409.12 669.84 407.62 670.49 405.49 671.13 403.37 671.48 402.03 671.83 400.68 672.24 399.74 672.64 398.79 672.78 397.41 672.91 396.03 672.94 394.98 672.97 393.93 673.41 392.42 673.85 390.92 674.04 389.09 674.24 387.27 674.81 385.44 675.39 383.62 676.07 382.76 676.74 381.90 676.81 380.80 676.88 379.70 677.13 378.55 677.39 377.41 677.68 376.19 677.97 374.97 678.46 373.42 678.96 371.87 680.78 370.62 682.61 369.37 682.61 369.37 682.62 369.38 682.62 369.38 682.63 369.38 682.65 371.06 682.67 372.73 682.27 374.33 681.86 375.93 681.36 377.99 680.87 380.06 680.73 381.32 680.58 382.58 679.85 383.79 679.11 385.00 678.67 386.27 678.23 387.54 678.14 388.81 678.06 390.08 677.86 391.11 677.66 392.14 677.31 393.11 676.96 394.07 676.85 396.07 676.75 398.07 676.22 399.89 675.70 401.72 675.27 403.28 674.85 404.83 674.45 405.81 674.05 406.78 673.85 407.81 673.65 408.84 673.30 409.81 672.95 410.77 672.83 412.79 672.72 414.80 672.52 415.84 672.32 416.88 671.97 417.88 671.62 418.88 671.60 420.05 671.58 421.22 671.52 423.20 671.46 425.18 671.19 426.30 670.93 427.42 670.60 428.51 670.27 429.60 670.13 431.26 670.00 432.91 669.35 434.69 668.71 436.48 668.16 438.41 667.62 440.34 667.61 441.54 667.61 442.75 667.57 443.88 667.53 445.01 667.16 446.74 666.79 448.47 666.48 449.44 666.17 450.42 665.81 452.06 665.45 453.70 665.01 454.78 664.57 455.86 664.29 457.04 664.01 458.22 663.47 459.73 662.92 461.23 662.49 463.09 662.06 464.95 661.87 467.11 661.68 469.26 660.33 470.56 658.98 471.86 658.97 471.85 Z" data-drauu_index="6"></path><path fill="#ffca3a" d="M 692.36 467.17 Q 692.36 467.17 693.00 465.13 693.64 463.08 694.90 461.45 696.15 459.82 697.44 457.81 698.73 455.81 700.09 453.92 701.46 452.03 702.76 449.96 704.06 447.88 705.50 446.27 706.93 444.66 708.36 442.79 709.78 440.93 710.38 439.97 710.99 439.01 711.83 437.60 712.67 436.20 713.33 435.28 713.98 434.37 714.58 433.50 715.18 432.63 715.78 431.56 716.38 430.49 716.80 429.52 717.23 428.54 717.82 427.30 718.41 426.07 718.58 424.84 718.75 423.61 719.28 422.06 719.81 420.50 720.43 419.07 721.04 417.65 721.22 416.17 721.41 414.68 721.94 413.01 722.47 411.34 723.33 409.77 724.18 408.19 724.61 406.30 725.05 404.40 725.90 402.38 726.75 400.37 727.22 398.21 727.70 396.04 728.11 393.58 728.51 391.11 729.48 387.63 730.45 384.14 731.42 380.24 732.39 376.33 733.19 372.95 733.99 369.56 735.13 366.46 736.27 363.36 737.32 360.56 738.37 357.75 739.80 354.58 741.23 351.41 741.78 349.45 742.33 347.48 743.64 345.21 744.95 342.94 745.84 341.34 746.72 339.74 747.62 337.26 748.51 334.78 749.11 333.10 749.71 331.42 750.79 329.41 751.88 327.40 752.43 325.62 752.99 323.85 753.87 321.94 754.76 320.03 755.51 318.49 756.26 316.96 757.20 315.45 758.14 313.94 758.61 312.41 759.08 310.87 759.73 309.28 760.39 307.69 761.08 306.39 761.77 305.08 763.06 303.13 764.34 301.19 766.53 296.67 768.72 292.16 769.86 289.64 770.99 287.12 772.26 284.48 773.53 281.84 774.64 279.57 775.76 277.30 776.87 275.64 777.99 273.98 778.79 272.61 779.58 271.24 780.44 270.28 781.30 269.32 782.07 267.84 782.83 266.36 783.27 265.44 783.71 264.53 785.07 263.21 786.43 261.89 787.96 261.71 789.50 261.53 790.83 261.51 792.17 261.50 793.84 261.18 795.51 260.86 798.21 261.83 800.91 262.80 800.91 262.81 800.91 262.81 800.91 262.82 800.91 262.82 798.94 263.82 796.97 264.81 795.80 264.86 794.63 264.91 793.47 265.19 792.31 265.48 791.01 265.50 789.71 265.53 788.69 265.43 787.66 265.33 787.33 266.34 786.99 267.36 786.26 268.58 785.54 269.80 784.28 271.54 783.03 273.27 782.16 274.75 781.30 276.23 780.32 277.64 779.34 279.06 778.24 281.32 777.13 283.57 775.89 286.17 774.64 288.77 773.48 291.34 772.31 293.91 770.00 298.65 767.68 303.40 766.49 305.18 765.30 306.96 764.69 308.09 764.08 309.22 763.48 310.67 762.88 312.11 762.21 314.08 761.54 316.05 760.70 317.38 759.86 318.70 759.12 320.22 758.38 321.74 757.59 323.41 756.79 325.07 756.09 327.19 755.39 329.31 754.43 331.04 753.47 332.76 752.87 334.46 752.27 336.15 751.25 338.91 750.23 341.66 749.31 343.32 748.39 344.99 747.28 346.80 746.16 348.61 745.52 350.83 744.88 353.05 743.50 356.10 742.12 359.15 741.07 361.95 740.02 364.75 738.95 367.62 737.88 370.48 737.08 373.89 736.27 377.30 735.29 381.26 734.30 385.22 733.38 388.49 732.46 391.76 732.03 394.35 731.60 396.93 731.01 399.43 730.43 401.93 729.68 403.65 728.93 405.36 728.31 407.74 727.69 410.11 726.98 411.35 726.27 412.59 725.81 413.93 725.36 415.26 725.04 417.24 724.72 419.21 724.15 420.52 723.59 421.82 723.14 423.05 722.69 424.29 722.36 426.02 722.04 427.75 721.46 428.95 720.89 430.15 720.38 431.30 719.87 432.46 719.17 433.68 718.47 434.91 717.38 436.42 716.28 437.92 715.30 439.56 714.33 441.21 712.81 443.08 711.29 444.96 710.60 446.14 709.92 447.32 708.68 448.67 707.44 450.02 706.07 452.20 704.70 454.38 703.39 456.18 702.09 457.97 700.70 460.12 699.31 462.27 697.89 464.09 696.47 465.90 694.42 466.55 692.37 467.19 692.37 467.18 Z" data-drauu_index="7"></path><path fill="#8ac926" d="M 733.10 469.18 Q 733.10 469.18 732.38 467.56 731.66 465.93 732.76 464.71 733.85 463.48 734.76 462.61 735.67 461.74 736.56 460.32 737.45 458.91 739.14 457.98 740.84 457.04 741.68 455.86 742.53 454.67 743.62 453.46 744.72 452.25 745.40 450.64 746.08 449.04 746.93 447.88 747.78 446.71 748.60 445.25 749.43 443.79 750.51 442.57 751.59 441.34 752.66 439.68 753.74 438.01 755.01 436.09 756.28 434.17 757.38 432.42 758.48 430.67 759.26 428.72 760.04 426.78 761.24 424.79 762.44 422.81 762.82 421.30 763.20 419.80 764.05 418.10 764.91 416.40 765.96 413.56 767.01 410.72 768.15 408.90 769.28 407.08 770.29 405.44 771.30 403.80 772.25 401.67 773.20 399.54 774.40 396.86 775.59 394.19 777.08 391.10 778.56 388.02 779.74 385.22 780.92 382.43 783.45 378.74 785.97 375.06 787.29 371.83 788.61 368.60 790.25 366.03 791.90 363.47 793.62 358.98 795.35 354.48 796.10 352.16 796.85 349.84 798.20 347.16 799.55 344.47 800.47 342.64 801.40 340.80 801.71 338.93 802.02 337.06 802.58 334.75 803.15 332.44 804.41 329.76 805.68 327.07 806.55 325.08 807.43 323.09 808.21 321.44 808.98 319.80 809.66 318.02 810.34 316.24 811.02 314.50 811.71 312.75 811.95 311.24 812.19 309.73 812.73 308.09 813.28 306.45 813.46 305.20 813.64 303.96 814.19 302.72 814.75 301.47 814.95 299.55 815.14 297.62 815.61 296.16 816.08 294.70 816.29 292.80 816.50 290.89 816.98 289.59 817.46 288.28 817.64 286.29 817.83 284.30 818.29 282.83 818.76 281.36 818.89 280.25 819.02 279.14 819.09 278.08 819.16 277.03 819.19 275.82 819.22 274.62 819.24 272.95 819.26 271.28 819.09 269.68 818.91 268.08 818.82 266.75 818.72 265.42 818.67 263.70 818.62 261.98 818.31 260.77 818.00 259.57 817.69 258.09 817.38 256.61 817.18 255.48 816.99 254.36 816.39 252.04 815.78 249.73 815.79 249.72 815.79 249.72 815.79 249.72 815.79 249.71 818.23 251.07 820.67 252.42 820.99 253.70 821.30 254.98 821.48 256.47 821.67 257.96 822.14 259.93 822.62 261.90 822.67 263.53 822.71 265.15 822.78 266.27 822.85 267.38 823.05 269.35 823.26 271.31 823.24 273.02 823.22 274.72 823.19 276.01 823.15 277.29 823.07 278.49 822.99 279.68 822.77 281.15 822.55 282.63 822.18 283.62 821.81 284.61 821.73 285.76 821.65 286.92 821.06 289.08 820.47 291.24 820.39 292.36 820.31 293.47 820.09 294.73 819.87 295.99 819.49 296.98 819.12 297.97 819.03 299.13 818.93 300.29 818.25 302.45 817.57 304.62 817.32 306.17 817.07 307.73 816.60 309.07 816.13 310.41 815.78 312.31 815.44 314.20 814.76 315.94 814.07 317.68 813.34 319.59 812.60 321.50 811.85 323.10 811.09 324.71 810.19 326.76 809.28 328.80 808.16 331.10 807.03 333.41 806.49 335.60 805.95 337.79 805.47 340.17 804.99 342.56 804.05 344.42 803.11 346.28 801.88 348.69 800.65 351.09 799.86 353.51 799.07 355.93 797.17 360.78 795.26 365.63 793.78 367.89 792.30 370.14 790.78 373.73 789.27 377.32 786.93 380.66 784.60 384.00 783.38 386.88 782.16 389.75 780.70 392.78 779.25 395.82 778.05 398.50 776.85 401.19 775.78 403.54 774.71 405.89 773.68 407.56 772.66 409.23 771.70 410.68 770.75 412.13 769.61 415.18 768.46 418.23 767.75 419.56 767.05 420.88 766.46 422.87 765.87 424.86 764.81 426.58 763.74 428.30 762.81 430.54 761.87 432.79 760.75 434.59 759.62 436.38 758.35 438.29 757.09 440.20 755.82 442.11 754.55 444.03 753.72 444.90 752.89 445.78 751.93 447.45 750.97 449.13 750.34 449.92 749.71 450.71 748.72 452.80 747.72 454.88 746.68 456.04 745.63 457.20 744.16 458.87 742.69 460.55 741.63 460.92 740.57 461.28 739.52 462.94 738.46 464.60 736.89 465.83 735.32 467.06 734.22 468.12 733.12 469.18 733.11 469.18 Z" data-drauu_index="8"></path>
</svg>