<svg width="980" height="551" xmlns="http://www.w3.org/2000/svg" xmlns:xlink="http://www.w3.org/1999/xlink">
<path fill="#ff595e" d="M 347.73 466.51 Q 347.73 466.51 346.74 464.40 345.74 462.29 345.74 460.05 345.74 457.80 345.74 455.70 345.74 453.59 345.74 451.36 345.74 449.12 345.74 447.59 345.74 446.06 345.55 444.16 345.37 442.27 345.28 440.02 345.20 437.77 344.80 435.85 344.40 433.92 344.20 431.97 344.01 430.03 343.75 427.93 343.48 425.83 343.18 423.19 342.87 420.54 342.73 418.61 342.60 416.68 342.18 414.66 341.76 412.65 341.55 409.88 341.35 407.11 340.70 403.40 340.06 399.68 339.78 397.86 339.50 396.03 339.00 393.57 338.51 391.12 338.28 389.01 338.05 386.89 337.60 384.80 337.14 382.70 336.92 380.51 336.70 378.31 336.11 376.92 335.51 375.53 334.99 373.12 334.46 370.72 334.08 369.24 333.70 367.75 333.18 366.45 332.67 365.14 332.07 363.82 331.47 362.49 331.14 361.15 330.82 359.80 330.51 358.12 330.20 356.44 329.90 355.45 329.60 354.46 329.43 352.46 329.25 350.46 328.85 349.12 328.44 347.78 328.22 346.21 328.00 344.65 327.92 343.41 327.83 342.16 327.61 340.58 327.39 338.99 327.11 337.36 326.83 335.73 326.69 332.99 326.56 330.24 326.14 327.90 325.71 325.57 325.52 323.08 325.32 320.60 324.50 317.65 323.69 314.71 322.78 312.31 321.87 309.92 321.43 307.54 320.98 305.16 320.80 303.38 320.62 301.59 320.55 300.06 320.47 298.52 320.10 297.34 319.72 296.17 319.51 294.65 319.30 293.13 319.22 292.12 319.14 291.10 319.11 289.88 319.08 288.66 318.71 287.21 318.33 285.75 318.14 283.76 317.95 281.77 317.53 280.40 317.11 279.03 316.88 277.45 316.66 275.88 316.57 274.43 316.48 272.98 316.46 271.63 316.43 270.29 315.86 268.51 315.29 266.74 314.76 264.81 314.22 262.89 313.48 261.04 312.74 259.19 312.25 257.08 311.77 254.97 311.37 253.11 310.97 251.26 310.47 249.71 309.96 248.16 309.87 246.97 309.78 245.77 309.19 244.44 308.60 243.12 309.16 240.95 309.72 238.79 309.72 238.79 309.73 238.79 309.73 238.79 309.74 238.79 310.95 240.14 312.15 241.48 312.96 243.48 313.76 245.48 313.93 246.84 314.09 248.20 314.48 249.31 314.88 250.42 315.27 252.24 315.67 254.07 316.28 256.73 316.89 259.40 317.47 260.56 318.05 261.73 318.36 262.79 318.68 263.86 319.04 265.79 319.39 267.73 319.89 268.87 320.38 270.01 320.43 271.38 320.47 272.74 320.55 274.04 320.62 275.34 320.79 276.62 320.95 277.91 321.44 279.65 321.93 281.39 322.08 283.11 322.22 284.82 322.65 286.68 323.07 288.53 323.17 290.58 323.27 292.62 323.42 293.83 323.56 295.04 324.01 296.67 324.46 298.30 324.53 299.75 324.60 301.20 324.76 302.83 324.92 304.45 325.27 306.49 325.62 308.52 326.58 311.09 327.55 313.66 328.43 316.97 329.30 320.28 329.48 322.58 329.65 324.87 330.10 327.46 330.55 330.05 330.66 332.55 330.77 335.06 331.06 336.75 331.36 338.45 331.59 340.17 331.82 341.89 331.90 343.01 331.97 344.12 332.13 345.40 332.29 346.68 332.76 348.41 333.24 350.14 333.34 351.74 333.44 353.35 333.78 354.53 334.13 355.71 334.62 358.28 335.12 360.86 335.76 362.28 336.40 363.69 336.98 365.22 337.57 366.75 337.97 368.32 338.38 369.90 338.80 371.97 339.23 374.05 339.95 375.97 340.68 377.89 340.86 379.87 341.05 381.86 341.54 384.16 342.03 386.47 342.23 388.40 342.43 390.33 342.94 392.88 343.45 395.42 343.73 397.21 344.00 399.01 344.67 402.92 345.34 406.82 345.51 409.34 345.68 411.85 346.13 414.12 346.59 416.40 346.72 418.24 346.84 420.08 347.15 422.71 347.45 425.33 347.72 427.49 347.99 429.64 348.16 431.39 348.32 433.13 348.76 435.37 349.19 437.61 349.27 439.75 349.35 441.88 349.55 443.97 349.74 446.06 349.74 447.59 349.74 449.12 349.74 451.36 349.74 453.59 349.74 455.70 349.74 457.80 349.74 460.05 349.74 462.29 348.75 464.40 347.75 466.51 347.74 466.51 Z" data-drauu_index="6"></path><path fill="#ff595e" d="M 309.67 238.11 Q 309.67 238.11 308.19 238.90 306.70 239.69 305.29 239.76 303.88 239.83 302.32 239.94 300.76 240.05 299.37 240.07 297.99 240.09 296.84 240.09 295.69 240.10 294.47 240.10 293.25 240.10 292.21 240.10 291.17 240.10 289.23 240.10 287.28 240.10 285.66 240.10 284.03 240.10 282.57 240.10 281.11 240.10 279.72 240.10 278.33 240.10 276.78 240.10 275.23 240.10 274.19 240.10 273.15 240.10 271.93 240.10 270.72 240.10 268.86 240.10 267.01 240.10 265.06 240.10 263.12 240.10 261.91 240.10 260.70 240.10 258.84 240.10 256.98 240.10 255.81 239.89 254.64 239.68 253.26 239.58 251.88 239.48 250.82 239.46 249.77 239.45 247.99 238.93 246.21 238.41 244.28 238.29 242.35 238.17 240.59 238.15 238.83 238.13 236.92 238.12 235.01 238.11 232.69 237.70 230.36 237.30 228.39 237.15 226.42 237.00 224.80 236.93 223.19 236.86 220.99 236.43 218.80 235.99 217.60 235.83 216.41 235.66 215.19 235.60 213.97 235.53 212.68 235.50 211.40 235.47 208.68 235.04 205.96 234.60 204.66 234.46 203.36 234.32 201.46 234.22 199.55 234.13 197.66 234.11 195.76 234.10 194.52 234.09 193.28 234.09 191.38 233.68 189.49 233.27 187.58 233.13 185.66 232.99 183.68 232.92 181.70 232.85 179.70 232.82 177.71 232.79 175.52 232.78 173.33 232.77 171.82 232.76 170.31 232.76 168.90 232.76 167.49 232.75 166.13 232.75 164.76 232.75 162.62 232.75 160.47 232.75 158.82 232.75 157.17 232.75 156.08 232.75 155.00 232.75 152.13 232.12 149.26 231.49 148.25 231.28 147.25 231.06 145.62 230.94 143.99 230.81 142.40 230.37 140.81 229.93 139.51 229.72 138.21 229.51 136.93 229.47 135.65 229.43 134.61 229.43 133.57 229.42 132.00 229.42 130.43 229.41 129.06 229.41 127.68 229.41 126.34 229.41 124.99 229.41 123.28 228.91 121.56 228.41 120.58 226.89 119.61 225.37 119.49 224.11 119.37 222.85 120.35 220.26 121.32 217.68 121.33 217.68 121.33 217.68 121.34 217.68 121.34 217.68 122.32 219.46 123.29 221.23 123.35 222.34 123.41 223.45 124.20 224.43 124.99 225.41 126.34 225.41 127.68 225.41 129.06 225.41 130.44 225.41 132.01 225.42 133.59 225.42 134.66 225.43 135.73 225.43 137.17 225.48 138.62 225.53 140.28 225.81 141.94 226.09 143.07 226.45 144.20 226.82 146.16 226.99 148.11 227.16 149.32 227.43 150.54 227.70 152.77 228.23 155.00 228.75 156.08 228.75 157.17 228.75 158.82 228.75 160.48 228.75 162.62 228.75 164.76 228.75 166.13 228.75 167.50 228.75 168.91 228.76 170.32 228.76 171.84 228.76 173.35 228.77 175.56 228.78 177.77 228.80 179.80 228.83 181.83 228.86 183.91 228.93 185.98 229.00 188.18 229.19 190.38 229.37 191.84 229.73 193.31 230.09 194.55 230.09 195.78 230.10 197.73 230.11 199.67 230.13 200.71 230.16 201.75 230.20 202.78 230.27 203.82 230.35 205.37 230.53 206.93 230.72 209.21 231.10 211.49 231.47 212.85 231.50 214.20 231.54 215.58 231.62 216.96 231.70 218.28 231.89 219.59 232.07 221.48 232.47 223.37 232.86 225.05 232.94 226.73 233.01 228.90 233.19 231.07 233.36 233.06 233.74 235.04 234.11 236.96 234.12 238.88 234.13 240.71 234.15 242.54 234.17 243.65 234.22 244.76 234.28 246.09 234.44 247.42 234.60 248.65 235.03 249.87 235.46 251.75 235.51 253.62 235.56 255.31 235.83 257.00 236.10 258.85 236.10 260.70 236.10 261.91 236.10 263.12 236.10 265.06 236.10 267.01 236.10 268.86 236.10 270.72 236.10 271.93 236.10 273.15 236.10 274.19 236.10 275.23 236.10 276.78 236.10 278.33 236.10 279.72 236.10 281.11 236.10 282.57 236.10 284.03 236.10 285.66 236.10 287.28 236.10 289.23 236.10 291.17 236.10 292.21 236.10 293.24 236.10 294.46 236.10 295.68 236.10 296.82 236.09 297.96 236.09 299.28 236.07 300.59 236.06 301.85 235.98 303.11 235.90 304.16 235.73 305.22 235.56 306.25 235.65 307.27 235.73 308.47 236.91 309.67 238.09 309.67 238.10 Z" data-drauu_index="7"></path><path fill="#ff595e" d="M 307.00 237.42 Q 307.00 237.42 308.82 236.24 310.64 235.06 311.87 234.97 313.11 234.89 314.81 234.84 316.52 234.78 317.93 234.78 319.34 234.77 320.50 234.76 321.65 234.76 322.88 234.76 324.10 234.76 325.41 234.76 326.73 234.76 328.06 234.76 329.39 234.76 330.44 234.76 331.49 234.76 332.52 234.76 333.54 234.76 334.74 234.76 335.95 234.76 338.19 234.76 340.42 234.76 341.95 234.76 343.48 234.76 344.90 234.76 346.31 234.76 348.10 234.76 349.89 234.76 351.31 234.76 352.73 234.76 353.79 234.76 354.85 234.76 356.24 234.76 357.62 234.76 358.88 234.76 360.14 234.76 361.47 234.76 362.79 234.76 364.06 234.78 365.32 234.80 366.49 234.26 367.65 233.72 369.58 233.60 371.51 233.47 374.67 233.46 377.83 233.45 379.55 233.44 381.26 233.43 382.96 233.43 384.66 233.43 386.06 233.43 387.47 233.43 388.81 233.43 390.16 233.43 391.50 233.43 392.84 233.43 393.98 233.43 395.13 233.43 396.48 233.43 397.83 233.43 399.75 233.43 401.67 233.43 403.07 233.43 404.46 233.43 405.82 233.43 407.18 233.43 408.52 233.43 409.87 233.43 411.21 233.43 412.55 233.43 414.29 233.43 416.03 233.43 417.44 233.43 418.85 233.43 420.20 233.43 421.55 233.43 423.00 233.43 424.45 233.43 428.27 233.43 432.10 233.43 436.26 233.43 440.43 233.43 443.93 233.43 447.43 233.43 449.68 233.43 451.94 233.43 453.86 233.43 455.77 233.43 456.97 233.43 458.17 233.43 459.64 233.43 461.10 233.43 462.38 233.43 463.66 233.43 464.90 233.43 466.13 233.43 467.81 233.43 469.49 233.43 470.78 233.43 472.07 233.43 473.38 233.43 474.70 233.43 476.60 233.43 478.50 233.43 480.46 233.43 482.43 233.43 484.03 233.43 485.63 233.43 487.08 233.43 488.53 233.43 489.91 233.43 491.29 233.43 492.79 233.43 494.29 233.43 495.65 233.43 497.01 233.43 498.36 233.43 499.70 233.43 500.94 233.43 502.19 233.43 503.98 233.43 505.78 233.43 507.00 233.43 508.23 233.43 509.51 233.43 510.80 233.43 512.90 233.43 514.99 233.43 516.26 233.43 517.52 233.43 518.63 233.43 519.75 233.43 521.73 233.43 523.72 233.43 525.34 233.43 526.96 233.43 528.34 233.43 529.73 233.43 530.80 233.43 531.87 233.43 533.59 232.91 535.30 232.39 536.45 232.01 537.61 231.63 537.75 230.62 537.89 229.61 538.61 228.01 539.32 226.41 539.69 225.28 540.06 224.14 541.07 222.38 542.08 220.62 542.09 220.62 542.09 220.62 542.10 220.62 542.10 220.62 542.98 223.31 543.86 225.99 543.19 227.35 542.53 228.70 542.08 229.85 541.63 231.01 541.29 232.23 540.95 233.45 539.93 234.51 538.90 235.56 537.17 235.98 535.44 236.39 533.66 236.91 531.87 237.43 530.80 237.43 529.73 237.43 528.34 237.43 526.96 237.43 525.34 237.43 523.72 237.43 521.73 237.43 519.75 237.43 518.63 237.43 517.52 237.43 516.26 237.43 514.99 237.43 512.90 237.43 510.80 237.43 509.51 237.43 508.23 237.43 507.00 237.43 505.78 237.43 503.98 237.43 502.19 237.43 500.94 237.43 499.70 237.43 498.36 237.43 497.01 237.43 495.65 237.43 494.29 237.43 492.79 237.43 491.29 237.43 489.91 237.43 488.53 237.43 487.08 237.43 485.63 237.43 484.03 237.43 482.43 237.43 480.46 237.43 478.50 237.43 476.60 237.43 474.70 237.43 473.38 237.43 472.07 237.43 470.78 237.43 469.49 237.43 467.81 237.43 466.13 237.43 464.90 237.43 463.66 237.43 462.38 237.43 461.10 237.43 459.64 237.43 458.17 237.43 456.97 237.43 455.77 237.43 453.86 237.43 451.94 237.43 449.68 237.43 447.43 237.43 443.93 237.43 440.43 237.43 436.26 237.43 432.10 237.43 428.27 237.43 424.45 237.43 423.00 237.43 421.55 237.43 420.20 237.43 418.85 237.43 417.44 237.43 416.03 237.43 414.29 237.43 412.55 237.43 411.21 237.43 409.87 237.43 408.52 237.43 407.18 237.43 405.82 237.43 404.46 237.43 403.07 237.43 401.67 237.43 399.75 237.43 397.83 237.43 396.48 237.43 395.13 237.43 393.98 237.43 392.84 237.43 391.50 237.43 390.16 237.43 388.81 237.43 387.47 237.43 386.07 237.43 384.67 237.43 382.97 237.43 381.28 237.43 379.56 237.44 377.85 237.45 374.73 237.46 371.62 237.47 369.70 237.60 367.77 237.74 366.68 238.23 365.59 238.73 364.19 238.74 362.79 238.76 361.47 238.76 360.14 238.76 358.88 238.76 357.62 238.76 356.24 238.76 354.85 238.76 353.79 238.76 352.73 238.76 351.31 238.76 349.89 238.76 348.10 238.76 346.31 238.76 344.90 238.76 343.48 238.76 341.95 238.76 340.42 238.76 338.19 238.76 335.95 238.76 334.74 238.76 333.54 238.76 332.52 238.76 331.49 238.76 330.44 238.76 329.39 238.76 328.06 238.76 326.73 238.76 325.41 238.76 324.10 238.76 322.88 238.76 321.66 238.76 320.51 238.76 319.35 238.77 317.98 238.77 316.60 238.78 314.99 238.83 313.38 238.88 312.21 238.96 311.04 239.04 309.02 238.24 307.00 237.44 307.00 237.43 Z" data-drauu_index="8"></path><path fill="#ffca3a" d="M 495.33 461.83 Q 495.33 461.83 494.98 459.94 494.63 458.05 495.55 456.62 496.47 455.20 497.56 453.37 498.65 451.55 499.50 450.02 500.34 448.49 500.89 447.45 501.44 446.42 501.97 445.33 502.50 444.24 503.08 442.25 503.65 440.26 504.27 439.16 504.88 438.06 505.40 436.78 505.93 435.50 506.89 434.64 507.86 433.77 508.51 432.38 509.15 431.00 509.63 429.88 510.11 428.76 510.73 427.44 511.35 426.12 513.29 423.83 515.22 421.53 516.10 420.18 516.97 418.82 518.15 417.04 519.32 415.27 520.18 413.79 521.03 412.32 521.77 410.94 522.51 409.55 522.99 408.45 523.47 407.34 524.29 405.89 525.10 404.44 525.93 403.45 526.76 402.45 527.44 400.29 528.13 398.14 528.78 396.93 529.43 395.73 530.67 393.68 531.91 391.64 532.76 389.91 533.62 388.18 533.91 385.97 534.21 383.75 534.77 381.44 535.34 379.14 535.96 376.84 536.58 374.53 537.23 372.21 537.88 369.88 538.54 367.72 539.21 365.56 540.06 362.74 540.92 359.92 541.25 357.70 541.58 355.48 542.34 352.82 543.10 350.16 543.59 347.80 544.08 345.44 545.72 342.24 547.37 339.04 547.97 337.17 548.57 335.30 548.82 334.15 549.08 333.00 549.18 331.46 549.28 329.92 549.76 328.39 550.24 326.87 550.38 325.55 550.52 324.24 550.60 322.89 550.67 321.55 551.11 319.62 551.55 317.70 551.72 316.64 551.88 315.59 552.15 313.95 552.42 312.32 552.75 311.13 553.08 309.94 553.63 308.61 554.18 307.27 554.34 306.20 554.49 305.12 554.57 303.72 554.66 302.31 555.11 300.52 555.56 298.73 556.24 296.35 556.91 293.96 557.26 292.58 557.62 291.20 558.00 290.11 558.38 289.02 558.72 288.02 559.06 287.03 559.40 286.03 559.73 285.03 560.41 283.29 561.09 281.56 561.38 280.52 561.66 279.47 562.01 278.34 562.37 277.21 563.35 275.24 564.33 273.28 565.30 271.36 566.26 269.44 566.61 268.20 566.96 266.96 567.82 265.54 568.69 264.13 569.33 262.77 569.98 261.42 570.43 260.12 570.89 258.82 571.83 257.57 572.77 256.32 573.59 254.88 574.42 253.43 575.24 252.30 576.07 251.17 576.48 249.97 576.90 248.77 577.87 247.71 578.84 246.65 579.58 244.58 580.31 242.50 580.88 241.23 581.45 239.96 581.86 238.70 582.28 237.44 582.82 236.18 583.36 234.91 583.90 233.93 584.43 232.95 585.03 231.36 585.63 229.77 586.03 228.84 586.44 227.92 586.89 226.89 587.35 225.86 587.99 224.25 588.63 222.64 588.70 221.21 588.78 219.78 589.39 218.15 590.01 216.51 590.27 214.82 590.52 213.12 590.98 211.40 591.43 209.68 591.78 208.56 592.12 207.44 590.75 207.17 589.37 206.90 588.24 206.51 587.12 206.11 585.45 204.76 583.79 203.41 583.79 203.41 583.79 203.40 583.79 203.40 583.79 203.39 586.15 202.81 588.52 202.22 589.44 202.63 590.37 203.03 591.77 203.63 593.18 204.22 594.35 204.96 595.52 205.71 595.74 207.50 595.95 209.29 595.31 210.53 594.67 211.77 594.57 212.79 594.46 213.80 594.22 215.24 593.97 216.67 593.54 217.86 593.11 219.05 592.88 220.42 592.64 221.80 592.18 223.52 591.71 225.24 591.20 226.93 590.69 228.62 590.02 229.93 589.35 231.23 588.89 232.39 588.44 233.55 587.80 234.84 587.17 236.13 586.62 237.43 586.07 238.72 585.58 240.16 585.10 241.59 584.01 243.73 582.93 245.88 581.74 248.08 580.56 250.29 579.94 251.90 579.31 253.50 578.59 254.47 577.88 255.44 576.25 257.83 574.63 260.22 574.10 261.69 573.58 263.16 572.82 264.72 572.06 266.28 571.42 267.21 570.78 268.13 570.31 269.67 569.84 271.22 568.87 273.15 567.90 275.08 567.04 276.75 566.18 278.42 565.83 279.52 565.49 280.62 565.00 282.12 564.52 283.61 564.02 284.96 563.53 286.30 563.19 287.31 562.85 288.32 562.17 290.27 561.49 292.22 561.07 293.80 560.65 295.37 560.24 296.41 559.83 297.45 559.63 298.60 559.43 299.75 559.04 301.16 558.65 302.57 558.54 304.18 558.44 305.79 558.16 307.29 557.88 308.80 557.40 309.91 556.92 311.03 556.64 312.00 556.36 312.97 556.10 314.59 555.83 316.21 555.64 317.42 555.44 318.62 555.05 320.20 554.66 321.78 554.58 323.25 554.49 324.72 554.26 326.43 554.03 328.13 553.65 329.18 553.26 330.24 553.12 332.06 552.98 333.88 552.67 335.21 552.37 336.55 551.64 338.72 550.91 340.90 549.44 343.60 547.98 346.29 547.46 348.78 546.94 351.26 546.24 353.68 545.54 356.09 545.14 358.58 544.75 361.07 543.89 363.90 543.03 366.74 542.38 368.85 541.73 370.96 541.09 373.27 540.44 375.57 539.83 377.84 539.22 380.10 538.69 382.23 538.16 384.35 537.69 387.13 537.22 389.91 536.27 391.81 535.33 393.71 534.13 395.68 532.94 397.64 532.38 398.65 531.83 399.67 531.35 400.80 530.87 401.93 529.74 404.15 528.61 406.36 527.87 407.65 527.14 408.95 526.59 410.19 526.04 411.44 525.26 412.89 524.49 414.33 523.57 415.90 522.66 417.47 521.49 419.24 520.32 421.01 519.29 422.57 518.25 424.14 516.60 426.00 514.95 427.86 514.36 429.10 513.78 430.34 513.22 431.63 512.66 432.92 512.12 433.81 511.58 434.70 511.13 435.62 510.68 436.55 509.82 437.34 508.96 438.14 508.23 439.74 507.50 441.34 506.92 443.33 506.35 445.31 505.66 446.80 504.97 448.30 504.40 449.36 503.84 450.42 502.96 452.01 502.09 453.60 500.94 455.51 499.80 457.42 499.08 458.45 498.36 459.48 496.86 460.66 495.35 461.84 495.34 461.84 Z" data-drauu_index="9"></path><path fill="#ffca3a" d="M 592.85 207.37 Q 592.85 207.37 594.01 206.38 595.16 205.39 596.21 205.38 597.26 205.38 598.91 205.07 600.56 204.76 601.86 204.75 603.17 204.73 604.40 204.16 605.62 203.60 608.00 203.35 610.37 203.11 610.37 203.12 610.38 203.12 610.38 203.12 610.38 203.13 609.19 204.92 607.99 206.71 606.47 207.44 604.96 208.17 603.47 208.45 601.98 208.73 600.92 208.76 599.85 208.80 598.58 209.09 597.31 209.37 596.23 209.37 595.16 209.36 594.01 208.37 592.85 207.39 592.85 207.38 Z" data-drauu_index="10"></path><path fill="#8ac926" d="M 535.41 457.16 Q 535.41 457.16 536.27 453.60 537.13 450.04 538.61 447.05 540.08 444.06 541.32 441.78 542.55 439.50 543.60 437.08 544.66 434.66 545.77 432.89 546.88 431.12 548.33 429.21 549.78 427.30 550.65 425.35 551.52 423.41 552.35 421.87 553.18 420.33 553.70 419.33 554.23 418.33 554.65 417.18 555.07 416.03 556.29 414.95 557.51 413.87 558.67 411.79 559.82 409.70 561.60 407.38 563.38 405.07 564.02 403.89 564.66 402.70 565.74 400.79 566.82 398.88 568.02 396.56 569.23 394.25 570.55 392.05 571.87 389.85 573.20 387.76 574.53 385.67 575.45 384.07 576.37 382.46 577.21 381.29 578.05 380.12 578.72 378.97 579.38 377.82 580.51 376.26 581.63 374.70 582.67 373.29 583.71 371.89 584.26 370.83 584.82 369.78 586.16 368.15 587.50 366.53 588.75 364.81 590.00 363.10 590.89 361.64 591.77 360.19 592.93 358.21 594.08 356.24 595.62 354.32 597.15 352.40 597.64 351.26 598.14 350.11 599.43 348.08 600.71 346.04 602.07 344.37 603.42 342.70 604.88 340.56 606.34 338.42 607.10 336.83 607.86 335.24 609.08 333.59 610.30 331.94 610.89 330.85 611.49 329.75 612.14 328.49 612.80 327.23 613.54 326.19 614.28 325.15 614.97 323.43 615.67 321.71 616.31 319.83 616.94 317.95 618.19 317.15 619.43 316.35 620.35 315.30 621.27 314.24 621.96 313.18 622.66 312.12 623.27 311.15 623.87 310.17 624.67 309.07 625.47 307.98 626.32 306.40 627.18 304.82 627.62 303.76 628.06 302.70 629.00 301.50 629.93 300.29 630.25 299.20 630.57 298.10 631.03 296.71 631.50 295.32 632.20 293.85 632.89 292.37 633.50 291.13 634.10 289.89 634.74 288.83 635.38 287.77 636.01 286.51 636.63 285.25 636.94 284.18 637.25 283.11 637.92 281.57 638.59 280.03 638.75 278.80 638.90 277.58 639.74 275.71 640.57 273.83 640.72 272.06 640.88 270.29 640.90 269.10 640.92 267.91 641.13 266.32 641.33 264.72 641.41 263.58 641.49 262.44 641.57 260.37 641.64 258.30 642.36 256.98 643.08 255.66 643.28 254.60 643.48 253.54 643.54 251.57 643.60 249.61 643.61 248.06 643.61 246.51 643.83 245.42 644.04 244.33 644.14 242.66 644.23 240.98 644.25 239.41 644.27 237.85 644.59 236.23 644.90 234.62 645.23 233.34 645.55 232.06 646.19 230.56 646.83 229.05 647.27 227.50 647.72 225.94 648.50 224.44 649.29 222.95 649.44 221.73 649.59 220.51 649.94 219.43 650.29 218.36 651.00 217.45 651.71 216.55 652.32 215.32 652.93 214.08 653.26 212.99 653.59 211.90 654.28 210.63 654.97 209.37 656.19 208.33 657.40 207.30 658.72 207.04 660.03 206.78 661.35 206.75 662.67 206.72 663.91 206.72 665.16 206.72 666.84 206.71 668.52 206.71 670.38 207.16 672.24 207.61 673.39 207.72 674.53 207.82 677.31 208.56 680.09 209.29 681.37 209.62 682.64 209.95 683.60 210.53 684.57 211.10 686.07 211.23 687.57 211.37 688.82 211.37 690.08 211.38 690.21 209.90 690.35 208.43 690.35 206.98 690.36 205.53 690.36 204.52 690.36 203.52 690.36 202.17 690.37 200.82 690.37 199.57 690.37 198.31 689.36 197.85 688.36 197.39 686.39 197.56 684.42 197.72 683.05 197.81 681.68 197.90 680.14 197.95 678.59 198.00 677.28 198.01 675.97 198.02 675.00 198.31 674.03 198.61 672.91 198.93 671.79 199.26 670.79 199.40 669.80 199.54 668.68 200.00 667.57 200.46 667.00 202.01 666.43 203.56 665.38 204.62 664.32 205.67 662.40 207.28 660.47 208.88 660.47 208.88 660.46 208.88 660.46 208.88 660.46 208.88 660.62 206.69 660.78 204.50 661.91 203.09 663.04 201.68 663.28 200.17 663.52 198.65 664.41 197.96 665.30 197.26 666.69 196.60 668.08 195.93 669.39 195.63 670.70 195.33 671.82 194.94 672.93 194.56 674.45 194.29 675.96 194.02 677.22 194.01 678.49 194.00 679.96 193.95 681.43 193.91 682.61 193.84 683.80 193.77 685.15 193.57 686.50 193.37 688.09 193.41 689.67 193.46 690.66 193.57 691.66 193.67 692.54 194.17 693.43 194.67 693.90 196.49 694.37 198.31 694.37 199.57 694.37 200.82 694.36 202.17 694.36 203.52 694.36 204.53 694.36 205.54 694.35 207.02 694.35 208.50 694.29 209.75 694.24 211.00 693.74 212.47 693.25 213.94 692.33 214.58 691.41 215.22 690.08 215.30 688.75 215.38 687.49 215.35 686.23 215.33 684.92 215.15 683.62 214.98 682.68 214.40 681.74 213.82 680.20 213.42 678.65 213.02 677.36 212.48 676.07 211.93 675.07 211.86 674.06 211.79 672.45 211.57 670.83 211.35 669.67 211.03 668.52 210.71 666.85 210.71 665.17 210.72 663.32 210.73 661.46 210.74 660.23 210.81 659.00 210.89 658.27 211.63 657.54 212.36 657.09 213.59 656.63 214.81 656.14 215.92 655.65 217.02 655.17 218.06 654.70 219.10 654.11 220.06 653.53 221.01 653.32 222.38 653.12 223.74 652.26 225.41 651.41 227.09 651.07 228.21 650.74 229.34 650.14 230.82 649.54 232.31 649.46 233.45 649.39 234.59 648.83 236.24 648.27 237.88 648.25 239.50 648.23 241.11 648.19 242.28 648.15 243.44 647.88 244.99 647.61 246.54 647.61 248.09 647.60 249.64 647.57 251.34 647.54 253.03 647.35 254.45 647.15 255.86 646.34 257.28 645.53 258.70 645.51 260.71 645.48 262.73 645.39 263.99 645.30 265.26 645.11 266.62 644.92 267.98 644.90 269.22 644.88 270.46 644.67 272.48 644.45 274.50 643.63 275.63 642.80 276.77 642.82 277.92 642.83 279.07 642.58 280.27 642.32 281.47 641.70 282.86 641.09 284.24 640.81 285.20 640.52 286.16 640.07 287.59 639.62 289.01 638.79 289.90 637.95 290.78 637.49 291.73 637.04 292.67 636.52 294.04 636.01 295.42 635.48 296.34 634.94 297.26 634.63 298.39 634.31 299.52 633.95 300.46 633.58 301.40 632.89 302.35 632.21 303.30 631.79 304.44 631.37 305.58 630.49 306.90 629.61 308.21 629.17 309.26 628.72 310.31 627.59 311.82 626.46 313.33 625.58 314.81 624.69 316.30 624.06 317.25 623.43 318.21 621.64 319.77 619.85 321.33 619.58 322.35 619.31 323.37 618.83 324.40 618.36 325.42 617.95 326.43 617.54 327.45 616.94 328.26 616.35 329.08 615.67 330.38 614.99 331.69 614.24 333.01 613.50 334.34 612.47 335.67 611.45 337.01 610.55 338.84 609.64 340.67 608.08 342.94 606.53 345.22 605.31 346.71 604.08 348.20 602.93 349.99 601.77 351.79 601.03 353.34 600.28 354.88 598.91 356.57 597.53 358.26 596.36 360.27 595.18 362.28 594.21 363.86 593.23 365.45 591.90 367.28 590.56 369.11 589.45 370.40 588.33 371.69 587.63 372.97 586.93 374.26 585.90 375.65 584.87 377.04 583.85 378.44 582.83 379.84 582.06 381.15 581.29 382.46 580.56 383.46 579.84 384.45 578.87 386.14 577.90 387.82 576.60 389.86 575.30 391.91 574.04 394.00 572.78 396.10 571.54 398.47 570.30 400.85 569.23 402.74 568.16 404.63 567.35 406.07 566.55 407.52 564.94 409.57 563.33 411.62 562.45 413.22 561.57 414.83 560.09 416.25 558.61 417.68 558.19 418.93 557.77 420.18 557.23 421.21 556.70 422.23 555.92 423.66 555.15 425.08 554.06 427.39 552.97 429.70 551.62 431.49 550.26 433.27 549.29 434.77 548.32 436.27 547.19 438.84 546.07 441.40 544.87 443.62 543.67 445.84 542.14 448.92 540.62 452.00 538.02 454.58 535.42 457.17 535.42 457.16 Z" data-drauu_index="11"></path><path fill="#1982c4" d="M 705.72 248.77 Q 705.72 248.77 706.49 247.61 707.25 246.44 709.43 246.30 711.61 246.17 713.41 246.15 715.21 246.13 716.32 245.87 717.44 245.62 718.78 245.54 720.13 245.47 721.45 245.46 722.78 245.45 724.11 245.45 725.44 245.45 726.59 245.45 727.73 245.45 728.87 245.45 730.00 245.45 731.39 245.45 732.77 245.45 733.83 245.45 734.88 245.45 736.10 245.45 737.32 245.45 738.99 245.45 740.66 245.45 742.05 245.45 743.45 245.45 744.79 245.45 746.14 245.45 747.29 245.45 748.43 245.45 749.65 245.46 750.87 245.47 752.85 246.45 754.83 247.44 754.83 247.44 754.83 247.45 754.83 247.45 754.83 247.46 752.85 248.44 750.87 249.43 749.65 249.44 748.43 249.45 747.29 249.45 746.14 249.45 744.79 249.45 743.45 249.45 742.05 249.45 740.66 249.45 738.99 249.45 737.32 249.45 736.10 249.45 734.88 249.45 733.83 249.45 732.77 249.45 731.39 249.45 730.00 249.45 728.87 249.45 727.73 249.45 726.59 249.45 725.45 249.45 724.12 249.45 722.79 249.45 721.51 249.46 720.23 249.47 719.09 249.51 717.96 249.55 716.60 249.84 715.24 250.13 713.47 250.15 711.71 250.17 709.87 250.26 708.04 250.36 706.88 249.58 705.73 248.79 705.72 248.78 Z" data-drauu_index="14"></path><path fill="#8ac926" d="M 538.76 449.15 Q 538.76 449.15 538.89 451.13 539.01 453.11 537.70 454.84 536.39 456.56 535.78 457.92 535.17 459.28 534.71 460.33 534.25 461.37 533.58 462.85 532.92 464.33 532.37 465.99 531.82 467.65 531.67 468.70 531.51 469.74 531.47 470.99 531.43 472.24 530.42 474.89 529.42 477.55 529.41 477.55 529.41 477.55 529.40 477.55 529.40 477.55 528.41 475.53 527.43 473.52 527.44 472.13 527.46 470.75 527.61 469.17 527.76 467.60 528.40 466.14 529.04 464.69 529.70 462.56 530.36 460.43 530.93 459.05 531.51 457.67 531.97 456.63 532.44 455.59 533.16 454.53 533.88 453.46 534.66 452.39 535.43 451.33 537.09 450.23 538.75 449.14 538.75 449.15 Z" data-drauu_index="1"></path><path fill="#6a4c93" d="M 623.57 463.17 Q 623.57 463.17 622.99 461.55 622.42 459.93 622.78 458.77 623.14 457.60 623.47 456.21 623.79 454.83 624.36 453.32 624.93 451.82 625.11 450.81 625.30 449.79 625.88 448.64 626.46 447.48 627.34 446.38 628.22 445.28 628.47 443.98 628.73 442.68 629.30 440.61 629.87 438.53 630.47 436.33 631.07 434.13 631.52 432.36 631.96 430.59 632.37 429.38 632.77 428.17 633.32 427.07 633.86 425.97 634.27 424.68 634.67 423.40 634.77 421.33 634.86 419.26 635.11 418.21 635.35 417.16 636.09 415.64 636.83 414.13 637.14 412.60 637.45 411.08 637.98 409.93 638.51 408.77 639.10 406.34 639.69 403.91 639.85 402.85 640.02 401.79 640.58 400.63 641.14 399.47 641.76 397.17 642.38 394.88 642.53 393.76 642.69 392.63 643.24 391.43 643.79 390.22 644.58 386.64 645.37 383.05 646.05 380.74 646.73 378.44 647.70 376.85 648.67 375.26 649.17 374.21 649.67 373.16 650.07 372.16 650.47 371.16 654.33 364.28 658.19 357.39 660.44 353.87 662.68 350.36 663.58 348.58 664.48 346.80 665.32 345.53 666.17 344.25 666.85 343.04 667.52 341.84 668.00 340.78 668.48 339.72 669.87 338.37 671.26 337.01 672.41 335.53 673.56 334.06 674.22 332.92 674.87 331.78 676.04 330.34 677.21 328.91 678.47 327.55 679.74 326.18 680.85 325.03 681.96 323.88 682.81 323.01 683.67 322.13 684.54 321.08 685.41 320.03 686.47 319.08 687.53 318.12 688.29 317.41 689.05 316.69 690.12 315.63 691.20 314.58 692.49 313.16 693.79 311.75 695.16 311.03 696.54 310.31 697.55 308.53 698.57 306.76 699.36 306.10 700.15 305.45 701.45 303.32 702.76 301.20 703.35 300.37 703.94 299.54 704.72 298.09 705.50 296.64 706.22 295.46 706.94 294.27 707.82 292.80 708.71 291.33 709.29 290.50 709.87 289.66 710.77 288.64 711.66 287.62 712.50 286.18 713.33 284.75 715.34 281.14 717.35 277.53 718.34 276.04 719.32 274.55 720.08 273.21 720.85 271.88 722.14 269.57 723.43 267.26 724.20 266.04 724.97 264.82 725.59 263.67 726.21 262.53 726.90 261.64 727.58 260.76 727.73 260.57 727.88 260.38 728.07 260.22 728.25 260.07 728.47 259.97 728.69 259.87 728.93 259.83 729.16 259.78 729.41 259.79 729.65 259.80 729.88 259.87 730.11 259.94 730.32 260.07 730.52 260.19 730.70 260.36 730.87 260.53 730.99 260.73 731.12 260.94 731.20 261.17 731.27 261.40 731.29 261.64 731.30 261.88 731.26 262.11 731.22 262.35 731.12 262.57 731.03 262.79 727.69 263.00 724.34 263.20 723.01 263.09 721.67 262.97 720.61 263.28 719.56 263.59 718.09 264.10 716.61 264.62 715.65 264.88 714.68 265.14 712.06 264.30 709.45 263.47 709.45 263.46 709.45 263.46 709.45 263.45 709.45 263.45 712.16 262.23 714.87 261.02 716.74 260.36 718.61 259.71 720.27 259.35 721.94 258.99 723.38 259.11 724.81 259.23 726.20 259.99 727.58 260.76 727.73 260.57 727.88 260.38 728.07 260.23 728.25 260.07 728.47 259.97 728.69 259.87 728.93 259.83 729.16 259.78 729.41 259.79 729.65 259.80 729.88 259.87 730.11 259.94 730.32 260.07 730.52 260.19 730.70 260.36 730.87 260.53 730.99 260.73 731.12 260.94 731.20 261.17 731.27 261.40 731.29 261.64 731.30 261.88 731.26 262.11 731.22 262.35 731.12 262.57 731.03 262.79 730.52 263.28 730.01 263.76 729.18 265.36 728.36 266.95 727.64 268.09 726.92 269.22 725.62 271.54 724.32 273.87 723.49 275.31 722.66 276.76 721.71 278.19 720.76 279.61 719.03 282.39 717.30 285.17 716.50 286.67 715.70 288.18 715.20 289.20 714.69 290.22 713.92 291.08 713.15 291.95 712.52 292.85 711.90 293.74 711.13 295.05 710.35 296.35 709.29 298.04 708.23 299.74 707.19 301.52 706.15 303.31 705.28 304.72 704.40 306.13 703.02 307.72 701.64 309.32 700.95 310.40 700.27 311.49 699.66 312.44 699.05 313.39 697.17 314.33 695.28 315.28 694.66 316.33 694.04 317.38 693.29 318.13 692.54 318.87 691.72 319.66 690.89 320.44 689.80 321.37 688.71 322.30 687.62 323.62 686.53 324.93 685.68 325.79 684.84 326.66 683.75 327.78 682.67 328.90 681.48 330.18 680.29 331.46 679.31 332.63 678.32 333.80 677.51 335.17 676.70 336.54 675.32 338.26 673.94 339.98 672.99 340.73 672.04 341.47 671.52 342.64 671.01 343.81 670.25 345.14 669.49 346.47 668.77 347.54 668.04 348.62 667.05 350.56 666.05 352.51 663.85 355.95 661.65 359.39 657.92 366.02 654.18 372.66 653.73 373.78 653.27 374.91 652.66 376.16 652.04 377.41 651.30 378.51 650.55 379.61 649.90 381.82 649.25 384.03 648.60 386.56 647.96 389.10 647.29 391.20 646.62 393.30 646.38 394.78 646.13 396.26 645.71 397.34 645.29 398.43 644.62 400.47 643.95 402.51 643.72 403.82 643.50 405.13 643.07 406.43 642.64 407.73 642.02 409.67 641.40 411.62 640.90 413.77 640.40 415.93 639.63 417.67 638.86 419.41 638.80 421.03 638.75 422.64 638.33 424.32 637.92 426.00 637.31 427.41 636.70 428.82 636.41 430.14 636.12 431.47 635.70 432.48 635.27 433.49 635.05 434.51 634.82 435.54 634.43 436.48 634.05 437.43 633.91 438.44 633.76 439.45 633.23 441.31 632.70 443.17 632.01 445.49 631.32 447.81 630.26 449.21 629.20 450.61 628.94 451.92 628.67 453.24 628.18 454.50 627.69 455.76 627.32 457.27 626.96 458.78 626.62 459.91 626.27 461.03 624.93 462.10 623.58 463.18 623.58 463.17 Z" data-drauu_index="2"></path><path fill="#6a4c93" d="M 729.10 262.80 Q 729.10 262.80 730.25 261.81 731.40 260.82 733.03 260.82 734.66 260.81 735.86 260.81 737.06 260.81 738.28 260.81 739.51 260.81 740.83 260.81 742.15 260.81 744.81 261.80 747.48 262.80 747.48 262.80 747.48 262.81 747.48 262.81 747.48 262.82 744.81 263.81 742.15 264.81 740.83 264.81 739.51 264.81 738.28 264.81 737.06 264.81 735.86 264.81 734.66 264.81 733.03 264.80 731.40 264.80 730.25 263.81 729.10 262.82 729.10 262.81 Z" data-drauu_index="3"></path><path fill="#ff595e" d="M 222.17 475.86 Q 222.17 475.86 222.05 473.88 221.93 471.90 222.29 469.98 222.66 468.07 222.74 466.46 222.83 464.85 223.30 463.61 223.77 462.37 224.96 460.92 226.15 459.47 227.90 459.05 229.65 458.63 231.48 458.82 233.31 459.00 234.33 459.06 235.35 459.12 236.63 459.14 237.91 459.16 240.11 459.59 242.31 460.02 243.96 460.76 245.61 461.49 246.62 461.76 247.63 462.03 248.75 462.39 249.86 462.74 251.28 462.85 252.69 462.96 254.11 463.02 255.53 463.09 257.15 463.54 258.77 463.99 260.52 464.20 262.28 464.41 263.75 464.45 265.23 464.49 266.63 464.70 268.04 464.91 269.48 465.31 270.91 465.70 272.67 465.76 274.43 465.82 275.84 465.83 277.26 465.84 279.19 465.84 281.11 465.85 282.41 465.85 283.71 465.85 285.43 465.85 287.15 465.85 288.93 465.85 290.72 465.85 291.95 465.85 293.17 465.85 294.46 465.85 295.75 465.85 296.87 465.85 297.99 465.85 299.43 465.85 300.87 465.85 302.25 465.85 303.63 465.85 306.46 465.85 309.30 465.85 311.52 465.85 313.74 465.85 315.45 465.85 317.16 465.85 318.66 465.85 320.15 465.85 321.17 465.85 322.19 465.85 324.45 466.29 326.70 466.72 327.75 466.84 328.80 466.96 330.76 467.05 332.73 467.14 334.35 467.15 335.98 467.16 337.06 467.17 338.14 467.18 339.70 467.38 341.27 467.59 342.53 468.14 343.80 468.69 344.87 469.18 345.95 469.67 347.07 469.74 348.19 469.81 349.21 469.83 350.23 469.85 351.90 469.85 353.56 469.85 354.77 469.85 355.97 469.85 357.26 469.85 358.54 469.85 359.66 469.85 360.78 469.85 362.02 469.85 363.27 469.85 364.37 469.85 365.48 469.85 367.08 469.85 368.68 469.85 370.06 469.85 371.45 469.85 373.06 469.85 374.68 469.85 376.06 469.86 377.43 469.86 378.67 469.59 379.90 469.32 381.34 469.27 382.78 469.21 384.13 469.20 385.48 469.19 387.15 468.43 388.82 467.67 390.66 467.29 392.50 466.91 394.13 466.79 395.75 466.66 396.75 466.08 397.74 465.51 398.97 465.40 400.19 465.29 401.82 465.26 403.45 465.23 404.65 464.87 405.86 464.50 406.95 464.31 408.05 464.12 410.11 464.01 412.16 463.89 413.39 463.88 414.62 463.88 416.59 463.32 418.55 462.77 419.89 462.69 421.23 462.62 422.74 462.23 424.25 461.84 425.43 461.65 426.61 461.46 427.95 461.37 429.28 461.29 431.39 461.24 433.50 461.19 435.14 461.18 436.78 461.18 437.98 461.17 439.18 461.17 440.41 461.17 441.64 461.17 442.96 461.17 444.27 461.17 445.61 461.17 446.94 461.17 448.76 461.64 450.59 462.10 451.09 462.98 451.60 463.86 451.74 466.14 451.89 468.41 451.89 470.20 451.89 472.00 450.91 473.90 449.94 475.81 449.93 475.81 449.93 475.81 449.92 475.81 449.92 475.81 448.93 473.92 447.95 472.02 447.92 470.26 447.89 468.49 447.41 466.83 446.94 465.17 445.61 465.17 444.27 465.17 442.96 465.17 441.64 465.17 440.41 465.17 439.18 465.17 437.99 465.17 436.79 465.18 435.17 465.18 433.55 465.19 431.54 465.24 429.52 465.28 428.38 465.34 427.24 465.41 426.22 465.57 425.20 465.73 423.34 466.17 421.47 466.61 419.38 466.77 417.29 466.93 416.04 467.39 414.78 467.85 413.53 467.87 412.27 467.89 411.22 467.92 410.17 467.94 408.54 468.15 406.92 468.36 405.24 468.79 403.56 469.22 402.01 469.25 400.47 469.28 399.37 469.32 398.28 469.37 397.34 469.93 396.40 470.50 394.89 470.66 393.38 470.82 391.40 471.19 389.43 471.57 387.47 472.38 385.50 473.19 384.18 473.20 382.86 473.21 381.62 473.25 380.39 473.29 378.93 473.57 377.48 473.85 376.08 473.85 374.68 473.85 373.06 473.85 371.45 473.85 370.06 473.85 368.68 473.85 367.08 473.85 365.48 473.85 364.37 473.85 363.27 473.85 362.02 473.85 360.78 473.85 359.66 473.85 358.54 473.85 357.25 473.85 355.97 473.85 354.76 473.85 353.55 473.85 352.51 473.85 351.47 473.85 350.23 473.84 348.99 473.84 347.77 473.79 346.56 473.74 344.84 473.36 343.12 472.98 341.89 472.26 340.67 471.54 339.39 471.36 338.12 471.18 337.03 471.17 335.95 471.16 334.29 471.15 332.63 471.14 330.45 471.03 328.28 470.93 326.85 470.72 325.41 470.51 323.80 470.18 322.19 469.85 321.17 469.85 320.15 469.85 318.66 469.85 317.16 469.85 315.45 469.85 313.74 469.85 311.52 469.85 309.30 469.85 306.46 469.85 303.63 469.85 302.25 469.85 300.87 469.85 299.43 469.85 297.99 469.85 296.87 469.85 295.75 469.85 294.46 469.85 293.17 469.85 291.95 469.85 290.72 469.85 288.93 469.85 287.15 469.85 285.43 469.85 283.71 469.85 282.41 469.85 281.11 469.85 279.86 469.85 278.61 469.85 277.22 469.84 275.83 469.83 274.22 469.80 272.61 469.77 271.43 469.71 270.25 469.65 268.83 469.25 267.41 468.86 266.28 468.68 265.15 468.49 263.56 468.44 261.98 468.40 260.89 468.31 259.79 468.22 258.71 468.02 257.63 467.82 256.48 467.45 255.32 467.08 253.82 467.01 252.32 466.94 250.49 466.75 248.66 466.56 247.56 466.20 246.46 465.85 244.96 465.35 243.46 464.85 242.29 464.35 241.12 463.85 239.50 463.50 237.88 463.16 236.51 463.14 235.15 463.12 233.63 462.97 232.11 462.81 231.11 462.71 230.12 462.60 228.90 462.72 227.68 462.83 227.24 463.96 226.80 465.09 226.72 466.81 226.63 468.53 226.46 469.92 226.28 471.31 225.89 472.50 225.51 473.68 223.85 474.77 222.19 475.87 222.18 475.86 Z" data-drauu_index="5"></path><path fill="#1982c4" d="M 563.46 465.84 Q 563.46 465.84 562.69 464.30 561.92 462.75 563.14 461.00 564.36 459.25 565.30 458.36 566.23 457.48 567.65 456.50 569.07 455.51 569.87 454.67 570.67 453.84 571.64 452.86 572.61 451.89 573.51 450.44 574.41 448.99 575.47 447.86 576.53 446.72 577.46 445.22 578.39 443.72 579.10 442.36 579.81 441.01 580.25 439.92 580.70 438.83 581.68 437.41 582.67 436.00 583.56 435.24 584.45 434.49 585.13 433.05 585.80 431.61 586.98 430.51 588.16 429.41 589.19 428.12 590.22 426.84 590.81 425.62 591.39 424.41 591.69 423.18 592.00 421.94 593.11 419.94 594.22 417.94 595.02 416.47 595.81 414.99 595.95 413.97 596.09 412.95 596.61 411.81 597.13 410.67 597.82 409.17 598.51 407.68 599.10 406.08 599.69 404.48 600.36 403.48 601.04 402.48 601.72 401.68 602.40 400.88 602.90 399.80 603.40 398.71 604.20 397.81 605.00 396.90 605.25 395.78 605.50 394.65 606.15 393.01 606.79 391.37 607.16 390.33 607.53 389.30 608.09 388.35 608.64 387.41 608.98 386.32 609.31 385.23 610.11 383.73 610.92 382.23 612.05 380.54 613.19 378.84 614.08 377.07 614.98 375.30 615.79 374.01 616.59 372.72 617.44 371.78 618.28 370.85 619.27 369.92 620.25 368.99 620.95 367.62 621.64 366.24 622.73 365.38 623.82 364.51 624.23 363.47 624.64 362.43 625.46 361.34 626.28 360.24 627.72 359.68 629.17 359.12 630.02 357.92 630.88 356.72 631.96 356.01 633.03 355.31 634.39 354.16 635.74 353.02 636.92 351.99 638.10 350.96 638.83 349.77 639.57 348.58 640.59 347.86 641.60 347.15 642.53 346.64 643.46 346.13 644.26 345.09 645.05 344.04 645.64 343.08 646.23 342.12 646.56 340.86 646.90 339.60 646.92 338.40 646.94 337.21 646.95 336.09 646.95 334.96 646.95 333.75 646.95 332.53 646.95 330.07 646.95 327.60 646.95 326.45 646.95 325.29 646.95 323.66 646.95 322.03 647.01 320.49 647.07 318.94 647.82 317.79 648.56 316.64 648.73 315.37 648.90 314.09 648.92 313.03 648.95 311.97 649.21 310.28 649.47 308.59 650.13 307.77 650.79 306.95 651.33 305.70 651.86 304.46 652.06 303.09 652.25 301.72 652.27 299.98 652.29 298.24 652.51 297.07 652.72 295.90 653.11 294.68 653.49 293.46 653.77 291.87 654.05 290.29 654.45 289.15 654.85 288.00 655.42 287.03 655.99 286.06 656.53 284.37 657.08 282.68 657.65 281.56 658.23 280.43 658.79 279.44 659.34 278.45 660.14 277.31 660.94 276.17 661.56 275.30 662.17 274.43 662.81 272.88 663.46 271.33 664.37 269.86 665.29 268.39 665.70 267.40 666.11 266.42 667.10 265.53 668.10 264.64 668.75 263.79 669.41 262.94 669.94 261.76 670.46 260.57 671.31 259.54 672.16 258.51 672.93 257.59 673.69 256.67 674.91 255.65 676.12 254.63 677.06 254.27 678.01 253.91 679.38 253.22 680.75 252.53 681.42 251.79 682.10 251.05 683.80 249.72 685.50 248.39 686.53 247.95 687.55 247.51 689.07 246.94 690.58 246.36 693.21 246.42 695.84 246.48 695.84 246.48 695.85 246.49 695.85 246.49 695.85 246.50 694.17 248.32 692.48 250.14 691.27 250.54 690.05 250.95 688.75 251.41 687.45 251.88 686.32 252.73 685.20 253.58 684.53 254.35 683.86 255.11 682.50 255.80 681.14 256.48 680.22 257.08 679.31 257.69 678.30 258.19 677.29 258.70 676.42 259.67 675.54 260.64 674.78 261.64 674.01 262.64 673.53 263.61 673.06 264.57 672.54 265.52 672.02 266.48 670.82 267.32 669.63 268.16 668.90 269.66 668.16 271.16 667.56 272.20 666.96 273.23 666.50 274.35 666.04 275.46 665.34 276.76 664.63 278.05 663.82 279.05 663.01 280.05 662.20 281.41 661.40 282.76 660.75 283.82 660.11 284.88 659.72 286.56 659.34 288.23 658.84 289.40 658.34 290.56 657.95 291.61 657.55 292.65 657.30 294.28 657.05 295.91 656.67 297.09 656.29 298.26 656.27 300.10 656.24 301.94 656.06 303.49 655.88 305.03 655.22 306.38 654.56 307.74 653.88 308.81 653.21 309.88 653.08 310.95 652.95 312.02 652.92 313.24 652.88 314.46 652.68 315.85 652.48 317.24 651.66 318.40 650.84 319.57 650.90 320.80 650.95 322.03 650.95 323.66 650.95 325.29 650.95 326.45 650.95 327.60 650.95 329.42 650.95 331.23 650.95 332.52 650.95 333.80 650.95 334.86 650.95 335.92 650.94 337.25 650.93 338.57 650.84 339.94 650.76 341.31 650.34 342.76 649.93 344.20 648.92 345.52 647.90 346.84 647.14 347.64 646.37 348.44 645.55 349.11 644.74 349.78 643.67 350.47 642.60 351.16 641.71 352.52 640.83 353.87 639.79 354.81 638.75 355.76 637.61 356.64 636.47 357.52 635.41 358.24 634.35 358.96 633.45 359.67 632.54 360.38 632.01 361.26 631.49 362.14 630.11 362.82 628.74 363.50 628.18 364.48 627.62 365.47 627.10 366.42 626.58 367.38 625.30 368.46 624.03 369.54 623.59 370.60 623.16 371.65 622.14 372.65 621.12 373.64 620.43 374.41 619.74 375.18 619.04 376.34 618.33 377.49 617.69 378.70 617.05 379.90 616.30 381.08 615.55 382.27 614.59 383.64 613.63 385.01 613.09 386.42 612.56 387.82 611.94 389.39 611.32 390.95 610.80 392.12 610.29 393.30 609.86 394.30 609.43 395.30 609.19 396.42 608.95 397.55 608.48 398.53 608.01 399.52 607.17 400.50 606.34 401.48 605.91 402.45 605.48 403.42 604.41 404.76 603.34 406.11 602.92 407.04 602.50 407.96 601.84 409.31 601.19 410.66 600.61 412.05 600.03 413.44 599.88 414.68 599.72 415.92 599.00 417.11 598.28 418.30 597.30 419.97 596.32 421.65 595.88 422.82 595.44 423.99 595.23 425.37 595.02 426.74 594.56 427.68 594.10 428.63 593.20 429.43 592.30 430.23 590.82 431.80 589.35 433.37 588.90 434.38 588.46 435.39 587.74 436.47 587.02 437.54 586.06 438.45 585.11 439.36 584.44 440.38 583.77 441.39 583.06 442.78 582.36 444.17 581.50 445.73 580.64 447.29 580.06 448.35 579.48 449.41 578.06 451.00 576.65 452.59 576.06 453.63 575.48 454.66 574.50 455.65 573.52 456.64 572.43 457.72 571.35 458.80 569.43 460.25 567.51 461.71 566.64 462.64 565.78 463.56 564.63 464.70 563.48 465.85 563.47 465.84 Z" data-drauu_index="16"></path><path fill="#ff595e" d="M 647.61 473.19 Q 647.61 473.19 647.04 471.57 646.46 469.95 646.94 468.27 647.41 466.59 648.05 465.11 648.70 463.62 649.97 461.38 651.24 459.14 651.67 457.57 652.10 456.00 652.48 454.78 652.86 453.55 652.94 452.22 653.01 450.88 653.76 449.65 654.51 448.42 654.96 447.11 655.42 445.80 655.93 444.55 656.44 443.31 657.18 441.57 657.92 439.84 658.67 438.38 659.42 436.92 659.72 435.77 660.02 434.63 660.44 433.71 660.85 432.80 661.23 431.58 661.60 430.37 662.10 429.23 662.59 428.09 662.74 426.73 662.89 425.36 663.71 424.05 664.52 422.74 665.08 421.59 665.63 420.44 665.68 419.08 665.72 417.71 666.29 416.80 666.85 415.88 667.44 414.70 668.03 413.52 668.43 412.42 668.83 411.33 668.93 410.20 669.02 409.08 669.70 408.02 670.37 406.97 670.34 405.79 670.30 404.61 670.58 403.13 670.87 401.65 671.75 400.05 672.64 398.45 673.29 396.58 673.93 394.71 674.43 393.66 674.92 392.60 675.26 391.52 675.60 390.44 675.63 389.21 675.66 387.98 675.67 386.77 675.67 385.56 675.68 384.38 675.69 383.20 676.32 381.83 676.96 380.46 676.98 378.86 677.00 377.27 677.00 375.96 677.01 374.65 677.01 373.32 677.01 371.99 677.01 370.65 677.01 369.31 677.23 368.24 677.44 367.17 677.53 366.15 677.63 365.13 677.65 364.06 677.67 362.99 677.67 361.39 677.68 359.79 678.28 358.24 678.87 356.68 678.91 355.62 678.94 354.55 678.97 353.25 679.00 351.94 679.01 350.61 679.01 349.28 679.01 347.95 679.01 346.61 679.01 345.28 679.01 343.94 679.02 342.81 679.02 341.69 678.60 340.57 678.18 339.46 677.97 338.07 677.76 336.68 677.72 335.31 677.69 333.94 677.52 332.63 677.35 331.32 676.22 329.95 675.09 328.58 674.07 327.80 673.06 327.03 672.07 326.09 671.08 325.14 670.00 324.07 668.92 323.00 668.26 322.07 667.60 321.13 666.49 320.52 665.38 319.91 664.40 317.88 663.41 315.86 663.41 315.86 663.42 315.85 663.42 315.85 663.42 315.85 666.15 316.75 668.89 317.66 669.94 318.55 671.00 319.43 671.82 320.25 672.65 321.07 673.79 322.19 674.93 323.31 675.69 323.99 676.46 324.67 677.88 325.96 679.30 327.26 680.27 328.83 681.24 330.41 681.46 331.49 681.68 332.56 681.69 333.86 681.71 335.16 681.76 336.25 681.80 337.33 682.17 338.59 682.53 339.86 682.77 341.23 683.01 342.61 683.01 343.94 683.01 345.28 683.01 346.62 683.01 347.95 683.01 349.29 683.01 350.64 682.99 352.01 682.98 353.38 682.90 354.90 682.82 356.41 682.24 358.13 681.67 359.85 681.67 361.44 681.67 363.04 681.65 364.20 681.62 365.36 681.48 366.70 681.35 368.04 681.18 369.35 681.01 370.66 681.01 371.99 681.01 373.33 681.01 374.66 681.00 376.00 680.99 377.33 680.98 378.66 680.86 380.07 680.74 381.49 680.21 382.99 679.67 384.49 679.67 385.79 679.67 387.08 679.65 388.24 679.64 389.40 679.53 390.85 679.43 392.31 678.70 393.73 677.97 395.15 677.41 396.36 676.86 397.56 676.47 399.02 676.08 400.48 675.49 401.62 674.91 402.77 674.60 403.76 674.30 404.74 674.20 406.18 674.10 407.61 673.49 409.24 672.88 410.88 672.56 412.35 672.25 413.82 671.45 415.18 670.65 416.53 670.08 417.45 669.52 418.37 669.47 419.69 669.42 421.01 668.74 422.33 668.07 423.66 667.57 424.54 667.08 425.43 666.89 426.46 666.70 427.50 666.13 429.15 665.56 430.80 665.15 432.27 664.73 433.74 664.29 434.75 663.84 435.76 663.57 436.76 663.31 437.76 662.77 438.84 662.23 439.92 661.42 441.40 660.62 442.87 660.37 443.87 660.13 444.86 659.46 446.77 658.79 448.68 657.83 450.06 656.87 451.44 656.83 452.54 656.80 453.65 656.48 454.62 656.17 455.59 655.89 457.15 655.62 458.72 655.16 459.92 654.71 461.12 653.81 462.69 652.91 464.26 652.45 465.32 651.99 466.38 651.34 467.66 650.68 468.94 650.50 470.00 650.31 471.05 648.97 472.12 647.63 473.19 647.62 473.19 Z" data-drauu_index="17"></path><path fill="#ffca3a" d="M 683.67 461.17 Q 683.67 461.17 682.70 459.84 681.74 458.50 681.36 457.43 680.99 456.35 680.80 454.86 680.60 453.37 680.53 452.37 680.46 451.37 680.41 449.80 680.37 448.24 680.36 446.67 680.35 445.09 680.35 443.63 680.35 442.17 680.35 441.11 680.35 440.04 680.35 438.46 680.35 436.88 680.35 435.50 680.35 434.12 680.35 432.78 680.35 431.44 680.35 429.83 680.35 428.22 680.35 427.13 680.35 426.04 680.55 423.95 680.74 421.85 681.03 420.50 681.33 419.15 681.67 418.13 682.00 417.12 683.01 415.61 684.02 414.11 684.46 413.09 684.89 412.07 685.56 411.01 686.23 409.96 686.55 408.79 686.86 407.62 687.69 406.24 688.51 404.85 688.75 403.61 688.99 402.36 689.59 401.46 690.19 400.56 690.79 398.75 691.40 396.95 691.80 395.93 692.19 394.91 693.08 393.15 693.97 391.40 694.14 389.97 694.31 388.55 694.34 387.10 694.37 385.65 694.06 384.15 693.76 382.65 693.01 381.51 692.27 380.38 690.58 379.54 688.89 378.71 687.89 377.80 686.89 376.88 687.31 374.42 687.73 371.96 687.73 371.96 687.74 371.96 687.74 371.96 687.75 371.96 689.48 373.70 691.21 375.45 692.46 376.10 693.71 376.76 694.73 377.47 695.74 378.17 696.46 379.04 697.18 379.90 697.49 381.60 697.79 383.30 698.07 384.46 698.36 385.62 698.33 387.22 698.30 388.83 698.08 390.45 697.86 392.07 697.43 393.03 696.99 394.00 696.54 394.91 696.09 395.82 695.43 397.46 694.77 399.09 694.40 400.14 694.02 401.18 693.33 402.97 692.64 404.75 692.34 405.74 692.04 406.74 691.08 408.32 690.12 409.91 689.55 411.40 688.99 412.89 688.45 413.79 687.92 414.70 687.10 416.14 686.28 417.59 685.76 418.80 685.23 420.01 684.98 421.13 684.72 422.24 684.54 424.14 684.35 426.04 684.35 427.13 684.35 428.22 684.35 429.83 684.35 431.44 684.35 432.78 684.35 434.12 684.35 435.50 684.35 436.88 684.35 438.46 684.35 440.04 684.35 441.81 684.35 443.58 684.35 445.20 684.36 446.81 684.37 448.19 684.39 449.57 684.48 451.23 684.57 452.89 684.71 454.07 684.84 455.25 685.24 456.86 685.63 458.46 684.66 459.81 683.69 461.17 683.68 461.17 Z" data-drauu_index="18"></path><path fill="#8ac926" d="M 705.72 463.84 Q 705.72 463.84 705.40 462.25 705.08 460.66 705.44 458.86 705.80 457.06 706.59 454.74 707.38 452.42 708.49 449.70 709.61 446.99 710.62 443.99 711.64 440.99 712.87 437.92 714.10 434.85 714.77 432.33 715.44 429.81 716.15 427.84 716.86 425.88 717.10 424.12 717.34 422.35 717.88 420.44 718.41 418.52 719.02 416.58 719.63 414.64 720.28 412.83 720.93 411.02 721.80 409.05 722.68 407.09 722.97 405.17 723.26 403.25 723.81 401.09 724.37 398.94 724.98 396.70 725.60 394.46 726.24 392.17 726.89 389.87 727.79 387.81 728.68 385.75 728.98 384.34 729.29 382.93 729.86 381.36 730.44 379.79 731.06 378.20 731.67 376.61 732.09 375.08 732.51 373.55 732.89 371.93 733.26 370.32 733.85 368.73 734.43 367.14 734.85 365.95 735.27 364.77 735.64 363.69 736.01 362.62 736.63 360.59 737.26 358.57 737.86 357.28 738.45 355.98 739.46 353.73 740.47 351.49 741.29 349.74 742.12 348.00 742.63 346.73 743.15 345.47 743.56 344.37 743.97 343.27 744.56 341.96 745.14 340.65 745.70 339.10 746.26 337.56 747.08 336.56 747.90 335.56 748.11 334.57 748.32 333.59 748.67 332.51 749.02 331.43 749.74 329.95 750.45 328.47 751.53 326.79 752.62 325.12 753.47 323.94 754.31 322.77 755.20 321.36 756.09 319.95 756.99 318.99 757.90 318.04 758.36 316.40 758.81 314.76 759.61 313.46 760.42 312.16 761.60 310.69 762.79 309.23 763.32 308.32 763.85 307.41 764.26 306.49 764.67 305.57 765.34 304.59 766.01 303.60 766.64 302.69 767.26 301.78 767.96 300.94 768.66 300.10 769.63 298.51 770.59 296.92 771.61 295.71 772.62 294.49 774.12 293.19 775.62 291.89 775.95 290.88 776.27 289.87 777.24 289.00 778.20 288.13 778.87 287.01 779.54 285.89 780.97 284.19 782.41 282.48 783.27 281.71 784.14 280.94 785.48 279.66 786.81 278.38 788.12 277.18 789.42 275.97 790.38 275.42 791.34 274.86 792.95 273.99 794.55 273.11 795.29 272.23 796.02 271.34 797.04 270.56 798.06 269.79 798.68 268.81 799.29 267.83 801.03 266.57 802.77 265.30 802.77 265.30 802.78 265.31 802.78 265.31 802.78 265.31 802.82 267.70 802.86 270.08 801.81 271.41 800.76 272.74 799.77 273.47 798.77 274.20 797.86 275.23 796.95 276.26 795.64 276.94 794.33 277.63 793.34 278.15 792.35 278.66 791.53 279.58 790.71 280.50 789.46 281.55 788.21 282.60 786.87 283.79 785.53 284.98 784.66 286.07 783.78 287.17 782.82 288.25 781.86 289.32 781.30 290.25 780.73 291.18 779.92 292.27 779.11 293.36 778.47 294.25 777.83 295.15 776.91 295.90 776.00 296.65 775.18 297.81 774.37 298.98 773.50 299.83 772.62 300.68 771.59 302.36 770.56 304.04 769.43 305.63 768.30 307.23 767.79 308.35 767.27 309.48 766.53 310.68 765.78 311.87 764.79 313.09 763.79 314.30 762.86 316.02 761.93 317.75 760.79 319.75 759.64 321.76 758.60 323.43 757.56 325.11 756.76 326.21 755.96 327.32 754.98 328.81 754.01 330.30 753.29 332.08 752.57 333.87 752.23 334.98 751.89 336.10 751.43 337.10 750.98 338.09 750.18 339.12 749.38 340.15 749.09 341.21 748.79 342.28 748.26 343.47 747.72 344.66 747.28 345.82 746.85 346.99 746.29 348.34 745.73 349.70 744.93 351.41 744.12 353.12 743.10 355.39 742.09 357.66 741.53 358.86 740.98 360.06 740.58 361.00 740.18 361.94 739.99 362.93 739.79 363.91 739.42 365.00 739.04 366.10 738.61 367.32 738.18 368.53 737.67 369.88 737.16 371.23 736.76 372.92 736.37 374.62 735.89 376.34 735.40 378.06 734.79 379.62 734.19 381.18 733.69 382.50 733.19 383.82 732.77 385.58 732.35 387.35 731.54 389.16 730.74 390.96 730.10 393.24 729.45 395.53 728.85 397.74 728.24 399.94 727.72 401.93 727.20 403.91 726.77 406.29 726.34 408.68 725.52 410.53 724.69 412.37 724.07 414.11 723.44 415.84 722.85 417.73 722.26 419.61 721.78 421.28 721.30 422.94 720.96 425.09 720.62 427.23 719.96 429.04 719.30 430.85 718.56 433.59 717.81 436.33 716.62 439.31 715.43 442.28 714.37 445.39 713.31 448.50 712.24 451.11 711.16 453.73 710.43 455.82 709.70 457.91 709.19 460.16 708.67 462.42 707.20 463.13 705.73 463.84 705.72 463.84 Z" data-drauu_index="19"></path><path fill="#1982c4" d="M 751.13 466.50 Q 751.13 466.50 751.54 465.12 751.95 463.73 752.65 462.10 753.35 460.47 754.88 458.81 756.40 457.16 757.30 456.05 758.20 454.95 759.45 453.30 760.69 451.64 761.49 450.99 762.29 450.34 763.01 449.49 763.73 448.63 764.88 447.41 766.04 446.20 768.14 443.90 770.24 441.60 770.95 440.62 771.65 439.63 772.44 438.71 773.22 437.80 773.78 436.50 774.34 435.19 775.68 433.24 777.03 431.29 778.35 429.54 779.68 427.78 780.65 426.63 781.61 425.47 782.32 424.34 783.02 423.20 783.96 421.87 784.89 420.53 786.07 418.98 787.25 417.44 788.69 415.47 790.12 413.50 791.29 411.74 792.46 409.97 793.50 408.11 794.55 406.25 796.65 403.74 798.76 401.24 799.70 399.61 800.64 397.98 801.73 396.55 802.81 395.13 803.57 393.88 804.33 392.63 805.03 391.34 805.74 390.06 806.60 388.27 807.46 386.49 807.63 384.93 807.80 383.37 808.29 382.16 808.79 380.94 809.46 378.83 810.13 376.73 810.65 375.15 811.17 373.58 811.38 372.40 811.59 371.22 812.34 369.48 813.09 367.75 814.16 365.55 815.23 363.34 815.61 361.83 816.00 360.31 816.16 358.95 816.33 357.59 816.40 356.26 816.48 354.93 816.71 353.29 816.95 351.64 817.25 350.32 817.56 349.00 818.07 347.10 818.59 345.20 818.78 343.76 818.97 342.32 819.06 341.11 819.16 339.90 820.26 337.67 821.36 335.44 821.70 334.08 822.05 332.72 822.20 331.43 822.36 330.13 822.43 328.82 822.50 327.51 822.53 325.81 822.56 324.11 822.57 322.23 822.59 320.36 822.59 318.79 822.60 317.22 822.60 315.40 822.60 313.58 822.60 312.04 822.60 310.50 822.61 309.08 822.61 307.66 822.61 306.28 822.61 304.91 822.61 303.18 822.61 301.44 822.61 299.93 822.61 298.43 822.61 297.02 822.61 295.61 822.61 293.86 822.61 292.11 822.61 290.60 822.61 289.09 822.42 287.81 822.24 286.54 822.15 285.09 822.06 283.65 821.84 281.84 821.62 280.04 821.47 278.43 821.33 276.82 821.30 275.35 821.28 273.88 820.51 272.18 819.75 270.48 819.59 269.19 819.43 267.90 819.09 266.70 818.76 265.49 818.48 264.10 818.21 262.72 818.11 261.35 818.01 259.98 817.13 259.00 816.25 258.01 815.76 257.03 815.27 256.05 815.21 253.70 815.14 251.35 815.15 251.35 815.15 251.35 815.16 251.35 815.16 251.34 817.22 253.38 819.29 255.41 820.09 256.42 820.90 257.42 821.46 259.15 822.03 260.88 822.16 262.26 822.29 263.65 822.85 265.58 823.41 267.51 823.54 268.70 823.66 269.89 824.47 271.86 825.28 273.84 825.30 275.24 825.32 276.65 825.43 277.93 825.53 279.22 825.79 281.32 826.06 283.41 826.13 284.71 826.20 286.00 826.40 287.54 826.61 289.09 826.61 290.60 826.61 292.11 826.61 293.86 826.61 295.61 826.61 297.02 826.61 298.43 826.61 299.93 826.61 301.44 826.61 303.18 826.61 304.91 826.61 306.28 826.61 307.66 826.61 309.08 826.60 310.51 826.60 312.05 826.60 313.59 826.60 315.41 826.60 317.23 826.59 318.81 826.59 320.38 826.57 322.29 826.56 324.19 826.52 325.96 826.49 327.74 826.41 329.18 826.32 330.63 826.12 332.20 825.91 333.77 825.40 335.53 824.90 337.30 824.00 338.81 823.11 340.33 823.02 341.60 822.93 342.87 822.69 344.55 822.45 346.24 821.95 348.08 821.45 349.91 821.18 351.07 820.91 352.22 820.69 353.69 820.47 355.16 820.38 356.63 820.30 358.10 820.08 359.71 819.86 361.33 819.35 363.20 818.83 365.08 817.79 367.23 816.74 369.39 816.13 370.69 815.52 371.98 815.24 373.42 814.96 374.85 813.95 377.30 812.95 379.75 812.70 381.15 812.45 382.55 812.00 384.13 811.55 385.72 810.78 387.73 810.01 389.75 809.63 390.86 809.25 391.97 808.50 393.34 807.74 394.72 806.86 396.14 805.99 397.56 805.04 398.79 804.09 400.01 802.95 401.92 801.81 403.82 799.92 406.02 798.03 408.22 796.91 410.20 795.79 412.18 794.57 414.02 793.35 415.86 791.89 417.87 790.43 419.87 789.30 421.35 788.17 422.82 787.29 424.08 786.40 425.33 785.54 426.69 784.68 428.04 783.77 429.12 782.87 430.19 781.59 431.89 780.31 433.58 779.14 435.23 777.96 436.88 777.12 438.62 776.28 440.36 775.57 441.19 774.86 442.01 773.87 443.31 772.87 444.62 771.53 445.69 770.19 446.77 769.58 447.85 768.96 448.93 767.85 450.09 766.75 451.25 765.76 452.36 764.77 453.48 763.68 454.53 762.60 455.58 761.95 456.53 761.30 457.48 760.29 458.71 759.28 459.94 758.12 461.05 756.96 462.17 756.47 463.26 755.98 464.35 755.08 465.67 754.17 466.99 752.66 466.76 751.14 466.52 751.14 466.51 Z" data-drauu_index="20"></path>
</svg>