<svg width="980" height="551" xmlns="http://www.w3.org/2000/svg" xmlns:xlink="http://www.w3.org/1999/xlink">
<path fill="#ff595e" d="M 73.91 141.25 Q 73.91 141.25 74.51 139.97 75.12 138.69 76.35 138.28 77.59 137.87 78.90 136.90 80.21 135.93 81.03 134.99 81.84 134.06 83.70 133.19 85.56 132.33 87.15 131.12 88.74 129.91 90.06 128.89 91.39 127.87 92.39 127.20 93.39 126.54 94.45 125.11 95.50 123.68 96.30 123.04 97.09 122.40 97.83 121.53 98.56 120.67 99.95 119.85 101.35 119.03 102.61 118.37 103.87 117.72 106.39 116.37 108.91 115.02 110.18 114.53 111.44 114.05 112.84 112.99 114.25 111.93 115.91 110.84 117.56 109.76 118.88 109.18 120.20 108.60 121.87 108.28 123.53 107.96 124.66 107.92 125.78 107.88 126.81 107.88 127.84 107.87 129.39 107.87 130.94 107.87 132.28 107.70 133.63 107.53 134.85 107.13 136.07 106.74 137.53 106.65 138.99 106.56 140.35 106.55 141.71 106.54 142.85 106.53 144.00 106.53 145.22 106.53 146.44 106.53 147.76 106.53 149.07 106.53 150.40 106.53 151.74 106.53 153.07 106.53 154.41 106.53 155.74 106.53 157.08 106.53 158.22 106.53 159.37 106.53 160.58 106.53 161.80 106.53 163.12 106.53 164.43 106.53 165.77 106.53 167.10 106.53 168.43 106.53 169.77 106.53 171.10 106.53 172.44 106.53 173.77 106.53 175.11 106.53 176.17 106.53 177.23 106.53 179.29 106.53 181.34 106.53 183.14 106.53 184.93 106.54 187.02 107.53 189.12 108.52 189.12 108.52 189.12 108.53 189.12 108.53 189.12 108.54 187.02 109.53 184.93 110.52 183.14 110.53 181.34 110.53 179.29 110.53 177.23 110.53 176.17 110.53 175.11 110.53 173.77 110.53 172.44 110.53 171.10 110.53 169.77 110.53 168.43 110.53 167.10 110.53 165.77 110.53 164.43 110.53 163.12 110.53 161.80 110.53 160.58 110.53 159.37 110.53 158.22 110.53 157.08 110.53 155.74 110.53 154.41 110.53 153.07 110.53 151.74 110.53 150.40 110.53 149.07 110.53 147.76 110.53 146.44 110.53 145.23 110.53 144.01 110.53 142.87 110.53 141.73 110.54 140.43 110.55 139.12 110.56 137.96 110.61 136.81 110.67 135.66 111.05 134.51 111.43 132.73 111.65 130.94 111.87 129.40 111.87 127.85 111.87 126.30 111.89 124.75 111.90 123.45 111.99 122.14 112.09 120.60 112.78 119.06 113.47 117.93 114.24 116.79 115.02 115.93 115.72 115.07 116.42 113.98 117.09 112.89 117.77 111.69 118.23 110.49 118.69 109.14 119.25 107.78 119.81 106.75 120.54 105.71 121.28 103.61 122.31 101.51 123.35 100.53 124.45 99.55 125.55 98.46 126.59 97.36 127.64 96.52 128.72 95.67 129.81 94.75 130.42 93.83 131.03 92.44 132.11 91.05 133.18 90.15 133.82 89.25 134.45 88.18 135.23 87.11 136.01 85.91 136.41 84.70 136.80 83.71 137.92 82.73 139.04 81.86 139.73 80.99 140.42 79.88 141.05 78.78 141.69 77.66 141.98 76.55 142.28 75.23 141.77 73.92 141.27 73.91 141.26 Z" data-drauu_index="3"></path><path fill="#ffca3a" d="M 134.69 141.91 Q 134.69 141.91 135.90 140.76 137.10 139.60 138.52 139.49 139.93 139.38 141.48 138.99 143.03 138.60 144.64 138.06 146.25 137.52 148.12 136.89 149.99 136.27 151.94 135.62 153.88 134.98 154.93 134.39 155.98 133.80 157.78 132.79 159.58 131.78 160.85 131.32 162.11 130.86 162.98 130.05 163.85 129.23 164.80 128.81 165.75 128.39 167.01 127.84 168.28 127.30 169.21 126.91 170.14 126.53 171.10 126.18 172.06 125.84 173.25 125.49 174.45 125.14 176.15 124.22 177.86 123.29 178.75 122.46 179.65 121.63 181.31 121.15 182.98 120.67 184.57 119.74 186.16 118.82 187.01 117.86 187.87 116.91 189.27 115.92 190.67 114.93 191.79 114.26 192.90 113.59 193.47 112.21 194.04 110.84 195.52 110.11 196.99 109.38 197.98 108.77 198.97 108.16 200.41 108.03 201.84 107.90 203.17 107.89 204.50 107.87 205.83 107.87 207.17 107.87 208.50 107.87 209.84 107.87 211.18 107.87 212.51 107.87 214.12 107.87 215.73 107.87 217.11 107.87 218.49 107.87 219.50 107.50 220.51 107.13 221.82 106.92 223.14 106.72 224.88 106.64 226.63 106.56 228.20 106.55 229.77 106.54 231.15 106.53 232.53 106.53 233.87 106.53 235.22 106.53 236.55 106.53 237.89 106.53 238.95 106.53 240.02 106.53 241.30 106.53 242.59 106.53 243.83 106.53 245.08 106.53 246.21 106.53 247.33 106.53 248.63 106.53 249.93 106.53 251.26 106.53 252.59 106.53 253.64 106.53 254.69 106.53 256.26 106.53 257.83 106.53 259.20 106.53 260.58 106.53 262.95 107.53 265.32 108.52 265.32 108.52 265.32 108.53 265.32 108.53 265.32 108.54 262.95 109.53 260.58 110.53 259.20 110.53 257.83 110.53 256.26 110.53 254.69 110.53 253.64 110.53 252.59 110.53 251.26 110.53 249.93 110.53 248.63 110.53 247.33 110.53 246.21 110.53 245.08 110.53 243.83 110.53 242.59 110.53 241.30 110.53 240.02 110.53 238.95 110.53 237.89 110.53 236.55 110.53 235.22 110.53 233.87 110.53 232.53 110.53 231.16 110.53 229.79 110.54 228.25 110.55 226.71 110.56 225.15 110.62 223.60 110.69 222.14 111.06 220.68 111.43 219.59 111.65 218.51 111.86 217.12 111.87 215.73 111.87 214.12 111.87 212.51 111.87 211.18 111.87 209.84 111.87 208.51 111.87 207.17 111.87 205.85 111.87 204.52 111.87 203.25 111.88 201.98 111.90 200.58 112.26 199.17 112.62 198.07 113.11 196.97 113.60 196.33 115.01 195.69 116.42 194.82 117.17 193.95 117.92 192.80 118.25 191.64 118.58 190.79 119.67 189.95 120.77 188.38 121.67 186.82 122.56 185.91 123.28 185.00 124.00 183.48 124.48 181.96 124.96 180.64 125.98 179.32 127.01 177.76 127.87 176.21 128.73 174.81 129.17 173.40 129.60 171.83 130.19 170.26 130.77 168.70 131.45 167.14 132.14 166.10 132.82 165.06 133.49 163.78 134.18 162.49 134.87 161.20 135.35 159.91 135.84 158.90 136.58 157.90 137.31 156.53 138.04 155.16 138.77 153.21 139.42 151.26 140.07 149.38 140.69 147.51 141.31 145.74 141.90 143.97 142.48 142.08 142.93 140.18 143.37 138.92 143.42 137.65 143.48 136.17 142.70 134.69 141.93 134.69 141.92 Z" data-drauu_index="4"></path><path fill="#8ac926" d="M 172.09 141.91 Q 172.09 141.91 173.24 140.92 174.39 139.92 175.65 139.92 176.91 139.92 178.21 139.92 179.52 139.92 181.78 140.13 184.05 140.33 185.21 140.40 186.38 140.48 188.03 140.52 189.68 140.57 191.28 140.78 192.88 140.99 193.88 141.30 194.89 141.62 196.40 141.76 197.92 141.90 199.21 141.91 200.51 141.92 201.55 141.92 202.60 141.93 203.81 141.93 205.03 141.93 206.12 141.93 207.21 141.93 208.80 141.93 210.40 141.93 211.48 141.93 212.56 141.93 213.79 141.93 215.02 141.93 216.58 142.18 218.15 142.44 219.35 142.49 220.55 142.55 221.88 142.57 223.20 142.59 224.54 142.59 225.87 142.59 227.21 142.59 228.54 142.59 229.88 142.60 231.21 142.60 232.74 142.60 234.27 142.60 235.72 142.60 237.17 142.60 238.53 142.60 239.89 142.60 241.23 142.60 242.56 142.60 243.62 142.60 244.67 142.60 245.88 142.60 247.10 142.60 248.38 142.60 249.67 142.60 251.10 142.60 252.54 142.60 253.60 142.60 254.67 142.60 256.82 142.60 258.97 142.60 260.11 142.60 261.24 142.60 262.49 142.60 263.74 142.60 264.75 142.62 265.76 142.65 266.78 143.17 267.81 143.68 269.26 143.78 270.72 143.89 272.01 143.91 273.31 143.92 274.63 143.93 275.96 143.93 277.30 143.93 278.63 143.93 279.69 143.93 280.76 143.93 282.04 143.93 283.33 143.93 284.37 143.93 285.42 143.93 286.63 143.93 287.84 143.93 289.13 143.93 290.41 143.93 292.50 143.93 294.60 143.93 296.42 143.93 298.25 143.93 299.76 143.93 301.26 143.93 302.63 143.93 304.00 143.93 305.15 143.93 306.30 143.93 308.83 144.93 311.37 145.92 311.37 145.93 311.37 145.93 311.37 145.94 311.37 145.94 308.83 146.94 306.30 147.93 305.15 147.93 304.00 147.93 302.63 147.93 301.26 147.93 299.76 147.93 298.25 147.93 296.42 147.93 294.60 147.93 292.50 147.93 290.41 147.93 289.13 147.93 287.84 147.93 286.63 147.93 285.42 147.93 284.37 147.93 283.33 147.93 282.04 147.93 280.76 147.93 279.69 147.93 278.63 147.93 277.29 147.93 275.96 147.93 274.62 147.93 273.27 147.92 271.91 147.90 270.54 147.89 269.02 147.76 267.50 147.63 265.62 147.11 263.74 146.60 262.49 146.60 261.24 146.60 260.11 146.60 258.97 146.60 256.82 146.60 254.67 146.60 253.60 146.60 252.54 146.60 251.10 146.60 249.67 146.60 248.38 146.60 247.10 146.60 245.88 146.60 244.67 146.60 242.95 146.60 241.23 146.60 239.88 146.60 238.54 146.60 237.15 146.60 235.77 146.60 234.16 146.60 232.55 146.60 231.21 146.60 229.88 146.60 228.54 146.59 227.20 146.59 225.86 146.59 224.52 146.59 223.15 146.58 221.79 146.57 220.30 146.52 218.81 146.46 216.92 146.20 215.02 145.93 213.79 145.93 212.56 145.93 211.48 145.93 210.39 145.93 208.80 145.93 207.21 145.93 206.12 145.93 205.02 145.93 203.81 145.93 202.59 145.93 201.54 145.92 200.48 145.92 199.14 145.91 197.79 145.89 196.35 145.80 194.91 145.71 193.62 145.33 192.34 144.95 190.97 144.76 189.61 144.57 187.86 144.52 186.12 144.47 184.76 144.37 183.40 144.28 181.46 144.10 179.52 143.92 178.21 143.92 176.91 143.92 175.65 143.92 174.39 143.92 173.24 142.93 172.09 141.93 172.09 141.92 Z" data-drauu_index="5"></path><path fill="#8ac926" d="M 282.95 143.26 Q 282.95 143.26 281.77 141.81 280.59 140.37 280.93 138.96 281.26 137.56 281.35 136.52 281.45 135.49 281.50 133.70 281.55 131.92 281.57 130.76 281.59 129.59 281.61 128.24 281.62 126.88 281.62 125.55 281.63 124.21 281.63 122.87 281.63 121.54 282.14 119.72 282.65 117.89 283.07 116.76 283.49 115.63 283.55 114.15 283.62 112.67 283.63 111.39 283.64 110.11 285.18 108.07 286.71 106.03 286.72 106.03 286.72 106.03 286.73 106.03 286.73 106.03 287.17 108.12 287.61 110.20 287.62 111.47 287.62 112.74 287.58 113.80 287.55 114.86 287.10 116.44 286.66 118.02 286.14 119.78 285.63 121.54 285.63 122.88 285.62 124.22 285.62 125.56 285.62 126.91 285.61 128.29 285.59 129.67 285.57 130.86 285.54 132.04 285.48 133.97 285.42 135.91 284.99 137.96 284.55 140.01 283.76 141.63 282.97 143.26 282.96 143.26 Z" data-drauu_index="6"></path><path fill="#1982c4" d="M 351.74 142.60 Q 351.74 142.60 350.07 142.33 348.40 142.06 347.82 141.03 347.24 140.01 346.37 138.84 345.51 137.67 344.77 136.79 344.03 135.91 343.34 135.16 342.66 134.41 341.67 133.59 340.69 132.77 339.39 131.84 338.09 130.91 336.72 129.18 335.35 127.45 334.90 126.41 334.46 125.38 333.78 123.93 333.09 122.48 332.37 121.60 331.65 120.72 331.07 119.45 330.49 118.17 329.79 117.00 329.08 115.83 328.09 114.64 327.10 113.45 326.18 112.87 325.25 112.29 324.48 111.50 323.70 110.70 322.66 109.65 321.61 108.61 320.58 105.56 319.54 102.51 319.54 102.51 319.54 102.50 319.55 102.50 319.55 102.50 321.99 104.14 324.43 105.77 325.49 106.83 326.55 107.89 327.31 108.82 328.08 109.75 329.58 110.81 331.09 111.88 331.90 113.02 332.71 114.16 333.44 115.38 334.16 116.60 335.02 118.05 335.87 119.49 336.63 120.85 337.40 122.20 338.12 123.84 338.83 125.48 339.74 126.66 340.65 127.84 341.96 128.78 343.27 129.72 344.43 130.71 345.60 131.71 346.35 132.52 347.09 133.34 347.92 134.33 348.75 135.32 350.00 137.30 351.26 139.28 351.51 140.93 351.76 142.58 351.75 142.59 Z" data-drauu_index="7"></path><path fill="#6a4c93" d="M 455.26 139.92 Q 455.26 139.92 453.92 138.85 452.58 137.78 452.04 135.37 451.50 132.96 451.43 131.11 451.36 129.27 451.34 127.72 451.31 126.18 451.30 124.37 451.28 122.56 451.11 121.38 450.93 120.20 450.02 118.32 449.11 116.44 448.78 115.04 448.45 113.64 447.83 112.54 447.21 111.44 446.59 110.60 445.98 109.76 445.42 108.66 444.86 107.55 443.93 106.24 443.01 104.93 441.86 103.59 440.72 102.25 439.99 101.29 439.27 100.32 438.86 99.32 438.45 98.32 437.74 96.52 437.03 94.71 436.33 93.98 435.64 93.24 434.92 92.47 434.20 91.70 433.03 90.50 431.86 89.30 430.64 88.07 429.41 86.84 428.33 85.74 427.25 84.64 426.34 84.10 425.43 83.56 423.69 82.82 421.96 82.09 420.35 81.97 418.75 81.84 417.40 81.39 416.05 80.93 414.08 80.30 412.11 79.67 411.08 79.54 410.05 79.40 408.26 78.91 406.46 78.42 404.32 77.62 402.18 76.82 399.66 76.13 397.15 75.45 395.38 75.17 393.61 74.89 391.83 74.56 390.05 74.24 388.67 73.90 387.29 73.56 385.89 73.38 384.49 73.21 383.23 72.92 381.97 72.64 379.69 72.25 377.41 71.87 376.17 71.85 374.93 71.82 372.87 71.41 370.81 71.00 369.34 70.84 367.88 70.69 366.50 70.63 365.12 70.56 363.31 70.50 361.49 70.45 360.38 69.96 359.26 69.47 357.88 69.34 356.50 69.21 355.27 69.18 354.03 69.14 351.38 68.14 348.73 67.13 348.73 67.13 348.73 67.12 348.73 67.12 348.73 67.11 350.74 66.13 352.75 65.15 354.12 65.16 355.49 65.17 356.90 65.28 358.32 65.39 359.70 65.66 361.08 65.92 362.19 66.21 363.30 66.50 364.31 66.53 365.32 66.56 366.81 66.64 368.30 66.72 369.96 66.90 371.63 67.08 373.32 67.45 375.01 67.83 376.27 67.85 377.53 67.87 379.29 67.94 381.04 68.01 382.49 68.59 383.93 69.17 385.05 69.27 386.17 69.36 387.21 69.51 388.25 69.67 389.51 69.99 390.77 70.30 392.51 70.62 394.24 70.94 396.22 71.26 398.20 71.59 400.89 72.33 403.58 73.07 405.56 73.82 407.53 74.57 409.10 75.01 410.67 75.45 412.13 75.70 413.59 75.96 414.54 76.36 415.49 76.76 417.23 77.31 418.96 77.86 420.45 77.96 421.93 78.06 423.33 78.55 424.73 79.04 426.45 80.00 428.17 80.96 429.55 81.83 430.94 82.71 432.23 84.00 433.52 85.29 434.61 86.40 435.70 87.50 436.41 88.24 437.13 88.97 437.89 89.79 438.65 90.61 439.65 91.81 440.64 93.01 441.42 94.97 442.20 96.94 442.94 98.25 443.69 99.57 444.38 100.34 445.07 101.11 446.18 102.77 447.29 104.44 448.26 105.94 449.23 107.43 449.98 108.50 450.74 109.56 451.53 111.13 452.33 112.70 452.82 114.64 453.31 116.58 454.08 118.05 454.85 119.52 455.07 121.03 455.28 122.53 455.30 124.32 455.31 126.11 455.33 127.62 455.36 129.12 455.42 130.84 455.48 132.55 455.95 134.61 456.42 136.68 455.85 138.30 455.28 139.92 455.27 139.92 Z" data-drauu_index="10"></path><path fill="#ff595e" d="M 69.90 344.96 Q 69.90 344.96 69.33 343.33 68.76 341.71 69.40 340.54 70.03 339.36 70.73 338.45 71.43 337.54 72.41 336.68 73.38 335.82 74.40 335.15 75.42 334.49 76.47 333.91 77.51 333.33 78.78 331.73 80.04 330.12 80.75 329.38 81.46 328.63 82.01 327.71 82.57 326.78 83.43 325.38 84.29 323.97 84.88 323.12 85.48 322.27 86.15 321.48 86.83 320.69 87.83 319.09 88.83 317.49 89.90 315.75 90.98 314.01 91.83 313.07 92.67 312.13 93.92 311.26 95.16 310.40 95.66 309.50 96.16 308.61 97.80 307.82 99.43 307.03 100.57 306.25 101.70 305.47 102.57 304.70 103.44 303.93 105.12 303.47 106.80 303.01 107.80 302.70 108.80 302.38 110.22 302.31 111.63 302.24 112.63 301.94 113.62 301.64 114.98 301.30 116.35 300.96 117.68 300.93 119.02 300.90 120.35 300.89 121.68 300.88 122.94 300.88 124.19 300.88 125.74 301.10 127.30 301.32 128.36 301.41 129.42 301.50 130.54 301.73 131.66 301.96 132.76 302.37 133.86 302.78 135.48 302.82 137.09 302.87 138.82 303.10 140.55 303.32 141.69 303.70 142.82 304.08 144.50 303.88 146.18 303.67 147.60 303.62 149.03 303.57 150.38 303.57 151.73 303.56 153.07 303.56 154.41 303.55 155.85 303.55 157.30 303.55 158.67 303.55 160.04 303.55 161.81 303.55 163.57 303.55 165.26 303.55 166.94 303.55 168.04 303.55 169.13 303.55 170.73 303.55 172.32 303.55 173.71 303.55 175.09 303.55 176.43 303.55 177.78 303.55 179.12 303.55 180.45 303.55 181.52 303.55 182.58 303.55 185.13 303.55 187.68 303.55 189.15 303.55 190.62 303.55 191.63 303.55 192.64 303.55 193.91 303.55 195.18 303.55 196.50 303.55 197.82 303.55 199.16 303.55 200.49 303.55 201.83 303.55 203.16 303.55 204.47 303.56 205.78 303.56 206.72 303.01 207.65 302.45 209.07 302.35 210.49 302.25 211.84 302.24 213.18 302.22 214.51 302.22 215.85 302.22 218.33 303.21 220.81 304.21 220.81 304.21 220.81 304.22 220.81 304.22 220.81 304.23 218.33 305.22 215.85 306.22 214.53 306.22 213.20 306.22 211.91 306.24 210.63 306.25 209.58 306.12 208.54 305.98 207.21 306.76 205.89 307.54 204.52 307.55 203.16 307.55 201.83 307.55 200.49 307.55 199.16 307.55 197.82 307.55 196.50 307.55 195.18 307.55 193.91 307.55 192.64 307.55 191.63 307.55 190.62 307.55 189.15 307.55 187.68 307.55 185.13 307.55 182.58 307.55 181.52 307.55 180.45 307.55 179.12 307.55 177.78 307.55 176.43 307.55 175.09 307.55 173.71 307.55 172.32 307.55 170.73 307.55 169.13 307.55 168.04 307.55 166.94 307.55 165.26 307.55 163.57 307.55 161.81 307.55 160.04 307.55 157.70 307.55 155.36 307.55 154.22 307.55 153.07 307.56 151.75 307.56 150.42 307.56 149.12 307.58 147.82 307.60 146.70 307.67 145.57 307.74 143.83 307.88 142.09 308.01 140.87 307.61 139.65 307.21 138.34 307.04 137.04 306.87 135.69 306.84 134.33 306.80 132.98 306.55 131.62 306.29 130.38 305.89 129.14 305.49 127.75 305.35 126.37 305.21 125.28 305.05 124.19 304.88 122.94 304.88 121.69 304.88 120.38 304.89 119.07 304.90 117.89 304.92 116.72 304.95 115.72 305.31 114.73 305.68 113.23 305.96 111.74 306.24 110.28 306.30 108.82 306.35 107.41 306.65 105.99 306.95 105.09 307.77 104.19 308.60 103.36 309.24 102.52 309.89 100.83 310.47 99.14 311.05 98.33 312.32 97.51 313.60 96.56 314.22 95.61 314.84 94.91 315.60 94.22 316.36 93.54 317.63 92.85 318.91 91.95 320.02 91.04 321.14 90.46 322.21 89.88 323.28 88.79 324.67 87.70 326.05 86.83 327.48 85.96 328.91 84.49 330.85 83.02 332.79 82.34 333.55 81.66 334.31 80.60 335.53 79.53 336.76 78.14 337.61 76.75 338.47 75.66 339.24 74.57 340.02 73.58 341.42 72.59 342.83 71.25 343.90 69.92 344.96 69.91 344.96 Z" data-drauu_index="12"></path><path fill="#ffca3a" d="M 127.34 352.30 Q 127.34 352.30 128.52 351.15 129.70 350.00 131.29 348.84 132.87 347.68 134.59 346.90 136.30 346.12 137.53 345.18 138.75 344.24 140.76 342.98 142.78 341.72 144.92 340.26 147.05 338.81 150.57 336.97 154.09 335.13 156.32 333.99 158.55 332.84 160.57 332.11 162.60 331.38 164.12 330.73 165.64 330.09 167.28 329.41 168.92 328.74 169.97 328.27 171.03 327.80 172.11 327.39 173.19 326.98 174.34 326.45 175.49 325.92 176.87 325.46 178.24 324.99 179.11 324.32 179.97 323.64 180.92 323.18 181.86 322.72 183.13 322.57 184.40 322.41 185.37 322.04 186.35 321.66 187.38 321.44 188.41 321.23 189.68 321.13 190.96 321.04 192.62 320.99 194.28 320.95 196.06 320.40 197.84 319.86 199.22 319.75 200.61 319.63 201.83 319.63 203.05 319.63 204.68 319.07 206.30 318.51 208.06 318.08 209.81 317.65 210.88 317.27 211.95 316.90 212.96 316.56 213.97 316.22 215.26 315.46 216.55 314.69 218.05 313.92 219.56 313.16 221.13 312.77 222.70 312.39 223.70 311.60 224.70 310.82 225.58 310.26 226.46 309.71 227.81 309.35 229.17 309.00 230.39 308.27 231.62 307.55 233.01 306.53 234.40 305.50 236.06 305.24 237.73 304.98 239.13 304.94 240.53 304.90 241.69 304.90 242.84 304.89 244.07 304.89 245.29 304.89 246.60 304.89 247.92 304.89 249.25 304.89 250.58 304.89 251.92 304.89 253.25 304.89 254.59 304.89 255.92 304.89 257.07 304.89 258.21 304.89 259.43 304.89 260.65 304.89 262.73 304.89 264.82 304.89 266.19 304.89 267.57 304.89 269.30 304.89 271.04 304.89 273.12 304.89 275.21 304.89 276.67 304.89 278.13 304.89 279.13 304.89 280.14 304.89 281.14 304.89 282.14 304.89 283.41 304.89 284.67 304.89 286.00 304.89 287.32 304.89 288.46 304.89 289.60 304.89 290.85 304.57 292.10 304.25 293.39 303.96 294.67 303.68 296.01 303.63 297.35 303.57 298.68 303.56 300.01 303.56 301.06 303.56 302.11 303.55 303.32 303.55 304.54 303.55 306.78 303.55 309.02 303.55 310.17 303.55 311.32 303.55 312.38 303.55 313.44 303.55 315.02 303.55 316.59 303.55 317.97 303.59 319.35 303.62 321.06 304.58 322.76 305.54 322.76 305.55 322.76 305.55 322.76 305.56 322.76 305.56 321.06 306.53 319.35 307.49 317.97 307.52 316.59 307.55 315.02 307.55 313.44 307.55 312.38 307.55 311.32 307.55 310.17 307.55 309.02 307.55 306.78 307.55 304.54 307.55 303.33 307.55 302.11 307.55 300.41 307.56 298.71 307.56 297.47 307.58 296.23 307.59 294.87 307.79 293.51 307.99 291.56 308.44 289.60 308.89 288.46 308.89 287.32 308.89 286.00 308.89 284.67 308.89 283.41 308.89 282.14 308.89 281.14 308.89 280.14 308.89 279.13 308.89 278.13 308.89 276.67 308.89 275.21 308.89 273.12 308.89 271.04 308.89 269.30 308.89 267.57 308.89 266.19 308.89 264.82 308.89 262.73 308.89 260.65 308.89 259.43 308.89 258.21 308.89 257.07 308.89 255.92 308.89 254.59 308.89 253.25 308.89 251.92 308.89 250.58 308.89 249.25 308.89 247.92 308.89 246.60 308.89 245.29 308.89 244.07 308.89 242.86 308.89 241.72 308.90 240.59 308.90 239.32 308.93 238.05 308.96 236.64 309.17 235.23 309.37 233.71 310.47 232.19 311.58 230.92 312.26 229.65 312.95 228.50 313.38 227.34 313.81 226.08 314.78 224.82 315.75 223.15 316.27 221.48 316.79 220.34 317.24 219.20 317.70 218.18 318.14 217.16 318.58 216.26 319.27 215.35 319.96 214.31 320.32 213.27 320.67 212.24 321.04 211.20 321.40 209.83 321.87 208.45 322.34 206.97 322.45 205.48 322.56 203.72 323.08 201.97 323.60 200.93 323.64 199.90 323.68 198.55 323.86 197.20 324.04 195.81 324.49 194.42 324.93 192.83 324.98 191.23 325.03 189.45 325.23 187.67 325.43 186.24 325.91 184.81 326.39 183.78 326.43 182.75 326.47 181.13 327.63 179.51 328.78 178.33 329.17 177.15 329.56 175.88 330.14 174.62 330.71 173.63 331.09 172.64 331.46 171.54 331.95 170.44 332.44 168.82 333.10 167.20 333.77 165.57 334.46 163.94 335.15 162.15 335.78 160.37 336.40 158.15 337.54 155.94 338.68 152.62 340.40 149.30 342.12 147.10 343.61 144.89 345.11 143.02 346.28 141.14 347.45 139.53 348.61 137.93 349.77 136.60 350.32 135.27 350.88 134.30 351.61 133.32 352.34 131.84 353.09 130.36 353.85 128.85 353.08 127.34 352.31 127.34 352.30 Z" data-drauu_index="13"></path><path fill="#8ac926" d="M 166.08 349.62 Q 166.08 349.62 167.28 348.47 168.48 347.31 169.64 346.87 170.80 346.43 172.31 346.19 173.83 345.94 175.25 345.85 176.67 345.76 178.04 345.72 179.41 345.68 180.76 345.67 182.12 345.65 183.86 345.64 185.61 345.63 186.72 345.63 187.82 345.63 189.06 345.63 190.30 345.63 192.36 345.63 194.43 345.63 196.06 345.63 197.69 345.63 199.08 345.63 200.47 345.63 201.81 345.63 203.16 345.63 204.77 345.63 206.38 345.63 207.76 345.63 209.15 345.63 210.79 345.63 212.42 345.63 214.01 345.83 215.60 346.03 217.29 346.10 218.98 346.18 220.48 346.21 221.98 346.25 225.78 346.65 229.59 347.06 231.53 347.22 233.47 347.39 234.67 347.46 235.86 347.53 237.12 347.56 238.38 347.59 239.95 348.03 241.52 348.47 242.68 348.60 243.85 348.74 244.92 348.80 246.00 348.87 247.22 348.90 248.43 348.93 249.70 349.15 250.97 349.37 252.29 349.77 253.61 350.16 254.87 350.41 256.12 350.65 257.62 350.95 259.11 351.24 260.22 351.35 261.34 351.47 262.71 351.72 264.08 351.98 265.12 352.31 266.16 352.63 267.96 352.77 269.76 352.90 270.86 352.92 271.96 352.94 273.57 352.96 275.18 352.97 276.94 352.97 278.71 352.98 280.40 352.98 282.09 352.98 283.65 352.98 285.21 352.98 286.29 352.98 287.37 352.98 289.34 352.98 291.31 352.98 292.56 352.98 293.80 352.98 294.91 352.98 296.02 352.98 297.62 352.98 299.22 352.98 300.60 352.98 301.98 352.98 303.26 352.71 304.55 352.45 305.94 352.39 307.33 352.33 308.61 352.34 309.89 352.35 310.78 351.83 311.67 351.32 313.10 351.19 314.54 351.06 316.62 351.40 318.71 351.73 318.71 351.74 318.71 351.74 318.71 351.75 318.71 351.75 316.83 353.36 314.96 354.97 313.66 355.12 312.35 355.28 310.54 355.80 308.72 356.32 307.46 356.34 306.19 356.36 305.17 356.45 304.15 356.55 303.07 356.76 302.00 356.98 300.61 356.98 299.22 356.98 297.62 356.98 296.02 356.98 294.91 356.98 293.80 356.98 292.56 356.98 291.31 356.98 289.34 356.98 287.37 356.98 286.29 356.98 285.21 356.98 283.65 356.98 282.08 356.98 280.40 356.98 278.71 356.98 276.93 356.97 275.15 356.97 273.52 356.96 271.88 356.94 269.77 356.86 267.67 356.78 265.49 356.34 263.32 355.91 262.12 355.68 260.93 355.44 259.63 355.31 258.33 355.17 256.84 354.87 255.36 354.58 253.26 354.16 251.16 353.74 249.74 353.33 248.33 352.92 247.04 352.89 245.75 352.86 244.55 352.78 243.34 352.70 241.86 352.50 240.37 352.30 239.31 351.94 238.25 351.58 236.93 351.55 235.62 351.52 234.38 351.45 233.13 351.38 231.15 351.20 229.16 351.03 225.52 350.64 221.89 350.25 220.34 350.21 218.80 350.17 216.94 350.09 215.08 350.00 213.75 349.81 212.42 349.63 210.78 349.63 209.15 349.63 207.76 349.63 206.38 349.63 204.77 349.63 203.16 349.63 201.81 349.63 200.47 349.63 199.08 349.63 197.69 349.63 196.06 349.63 194.43 349.63 192.36 349.63 190.30 349.63 189.06 349.63 187.83 349.63 186.73 349.63 185.63 349.63 183.89 349.64 182.16 349.65 180.84 349.67 179.52 349.68 178.22 349.72 176.92 349.75 175.67 349.83 174.41 349.90 173.26 350.05 172.10 350.21 170.57 350.70 169.05 351.19 167.57 350.42 166.08 349.64 166.08 349.63 Z" data-drauu_index="14"></path><path fill="#8ac926" d="M 287.63 354.30 Q 287.63 354.30 288.93 351.99 290.22 349.67 292.00 348.26 293.77 346.84 294.57 345.81 295.37 344.78 297.25 343.18 299.13 341.58 300.42 340.41 301.70 339.24 302.63 338.36 303.56 337.48 304.34 336.73 305.11 335.97 305.79 335.13 306.47 334.29 307.64 333.68 308.81 333.08 310.11 331.87 311.42 330.65 312.70 329.52 313.98 328.39 315.05 327.79 316.12 327.18 316.91 326.52 317.70 325.85 318.62 324.71 319.55 323.57 320.37 322.97 321.18 322.37 321.92 321.18 322.66 319.98 323.79 318.78 324.92 317.57 325.78 316.34 326.64 315.11 327.53 313.93 328.41 312.76 329.40 312.03 330.39 311.30 331.71 309.41 333.03 307.52 334.17 306.27 335.31 305.02 336.08 304.05 336.85 303.07 337.78 301.75 338.72 300.42 340.73 299.80 342.74 299.18 342.75 299.18 342.75 299.19 342.75 299.19 342.76 299.19 342.11 301.21 341.47 303.24 340.71 304.40 339.94 305.57 339.25 306.52 338.55 307.47 337.52 308.50 336.48 309.54 335.48 311.22 334.49 312.90 333.22 313.86 331.95 314.83 331.12 315.76 330.29 316.68 329.45 318.07 328.62 319.46 327.77 320.36 326.92 321.26 325.86 322.45 324.80 323.64 323.83 324.64 322.85 325.63 322.38 326.52 321.91 327.41 321.07 328.18 320.23 328.95 319.12 329.83 318.01 330.71 316.61 331.70 315.20 332.70 313.80 333.65 312.39 334.61 310.91 335.76 309.42 336.92 308.66 337.88 307.90 338.84 307.11 339.61 306.31 340.38 305.35 341.29 304.39 342.20 303.05 343.42 301.70 344.65 300.09 345.97 298.47 347.29 297.38 348.62 296.28 349.95 294.50 351.37 292.72 352.80 290.18 353.56 287.64 354.32 287.63 354.31 Z" data-drauu_index="15"></path><path fill="#6a4c93" d="M 445.92 166.65 Q 445.92 166.65 444.20 168.00 442.47 169.36 440.19 169.54 437.91 169.72 436.09 169.98 434.28 170.23 432.14 170.54 430.00 170.84 428.47 171.32 426.95 171.80 425.54 172.37 424.14 172.94 422.56 173.25 420.97 173.57 419.76 174.02 418.55 174.47 417.02 174.72 415.49 174.98 414.47 175.08 413.46 175.17 412.41 175.36 411.36 175.54 410.39 175.81 409.43 176.09 408.25 176.72 407.06 177.36 405.71 178.29 404.36 179.21 402.86 179.77 401.36 180.33 400.35 180.96 399.34 181.60 398.39 182.45 397.44 183.31 395.92 183.89 394.40 184.47 392.96 185.01 391.52 185.55 390.38 186.07 389.23 186.58 387.08 187.86 384.92 189.14 384.92 189.13 384.92 189.13 384.92 189.12 384.91 189.12 385.44 186.97 385.97 184.82 387.44 183.66 388.90 182.50 390.55 181.86 392.20 181.22 393.24 180.87 394.28 180.52 395.26 179.78 396.25 179.03 397.40 178.44 398.56 177.84 399.39 177.20 400.23 176.57 401.27 176.17 402.31 175.78 403.24 175.14 404.18 174.49 405.37 173.89 406.56 173.29 407.83 172.58 409.10 171.88 410.33 171.58 411.56 171.27 413.22 171.15 414.88 171.03 416.04 170.87 417.21 170.70 418.72 170.17 420.24 169.63 421.45 169.43 422.65 169.23 424.22 168.60 425.78 167.97 427.61 167.43 429.43 166.88 431.58 166.58 433.73 166.27 435.67 166.00 437.61 165.74 439.65 165.59 441.69 165.44 443.80 166.03 445.92 166.63 445.92 166.64 Z" data-drauu_index="16"></path><path fill="#6a4c93" d="M 518.73 152.60 Q 518.73 152.60 520.17 152.66 521.61 152.73 523.64 153.19 525.67 153.65 527.11 154.68 528.55 155.70 529.68 156.80 530.81 157.89 531.37 159.37 531.93 160.85 531.99 162.24 532.05 163.63 532.06 164.97 532.07 166.30 532.44 167.30 532.80 168.29 533.07 169.91 533.33 171.54 533.36 172.92 533.39 174.31 533.40 175.38 533.41 176.45 533.41 177.47 533.41 178.49 533.18 180.29 532.96 182.09 532.87 183.26 532.79 184.43 532.95 186.08 533.12 187.73 533.20 188.96 533.29 190.19 533.11 191.30 532.94 192.41 532.86 193.74 532.78 195.06 532.76 196.11 532.75 197.17 532.74 198.45 532.74 199.73 532.74 201.06 532.74 202.39 532.74 203.72 532.74 205.05 532.74 206.39 532.74 207.72 532.74 209.23 532.73 210.74 533.00 211.81 533.27 212.88 533.33 214.09 533.39 215.30 533.40 216.55 533.40 217.79 533.17 219.38 532.95 220.98 532.58 222.27 532.21 223.57 531.47 224.53 530.73 225.49 529.37 226.64 528.01 227.78 526.55 227.91 525.08 228.04 523.73 228.05 522.38 228.07 521.05 228.07 519.71 228.07 517.86 228.34 516.01 228.61 514.63 228.67 513.24 228.72 512.01 228.73 510.78 228.74 509.20 228.74 507.61 228.74 506.31 228.74 505.00 228.74 502.82 228.74 500.64 228.74 498.92 228.74 497.21 228.74 496.10 228.74 494.98 228.74 493.94 228.74 492.89 228.74 491.67 228.74 490.46 228.74 489.17 228.74 487.89 228.74 486.58 228.74 485.26 228.74 483.55 228.74 481.84 228.74 479.39 228.74 476.93 228.74 474.54 228.74 472.16 228.74 470.37 228.74 468.59 228.74 466.68 228.74 464.77 228.74 463.58 228.74 462.38 228.74 460.14 228.74 457.91 228.74 454.85 228.74 451.78 228.74 449.71 228.74 447.64 228.74 445.04 228.74 442.43 228.74 440.74 228.74 439.06 228.74 437.00 228.74 434.94 228.74 433.21 228.93 431.48 229.12 429.32 229.51 427.16 229.90 425.83 229.95 424.50 230.01 423.38 230.02 422.25 230.04 421.28 230.39 420.30 230.74 418.42 230.95 416.54 231.16 415.01 231.23 413.48 231.31 412.06 231.34 410.65 231.37 409.53 231.73 408.42 232.09 406.92 232.29 405.42 232.49 403.93 232.74 402.44 233.00 400.63 233.31 398.83 233.61 397.01 233.75 395.19 233.89 393.25 234.31 391.30 234.73 389.17 234.93 387.03 235.13 385.89 235.70 384.75 236.28 383.38 236.62 382.01 236.96 380.20 237.15 378.39 237.35 377.25 237.37 376.11 237.39 374.50 237.41 372.90 237.42 371.83 237.59 370.76 237.75 368.08 236.92 365.41 236.10 365.41 236.09 365.41 236.09 365.41 236.08 365.41 236.08 367.61 234.97 369.81 233.87 371.34 233.64 372.88 233.42 374.45 233.41 376.03 233.40 377.08 233.38 378.12 233.36 379.61 233.21 381.10 233.07 382.11 232.85 383.11 232.63 384.86 231.90 386.60 231.16 388.54 230.99 390.47 230.82 392.68 230.36 394.89 229.90 396.53 229.78 398.16 229.67 399.96 229.36 401.76 229.06 403.34 228.79 404.92 228.52 406.11 228.38 407.31 228.24 408.92 227.81 410.52 227.37 411.91 227.34 413.29 227.31 414.72 227.25 416.15 227.18 417.63 227.05 419.11 226.93 420.62 226.49 422.13 226.05 423.24 226.03 424.34 226.01 425.56 225.96 426.77 225.92 427.78 225.83 428.79 225.75 429.92 225.44 431.06 225.14 433.00 224.94 434.94 224.74 437.00 224.74 439.06 224.74 440.74 224.74 442.43 224.74 445.04 224.74 447.64 224.74 449.71 224.74 451.78 224.74 454.85 224.74 457.91 224.74 460.14 224.74 462.38 224.74 463.58 224.74 464.77 224.74 466.68 224.74 468.59 224.74 470.37 224.74 472.16 224.74 474.54 224.74 476.93 224.74 479.39 224.74 481.84 224.74 483.55 224.74 485.26 224.74 486.58 224.74 487.89 224.74 489.17 224.74 490.46 224.74 491.67 224.74 492.89 224.74 493.94 224.74 494.98 224.74 496.10 224.74 497.21 224.74 498.92 224.74 500.64 224.74 502.82 224.74 505.00 224.74 506.31 224.74 507.61 224.74 509.19 224.74 510.76 224.74 511.97 224.73 513.17 224.72 514.76 224.70 516.36 224.68 518.03 224.38 519.70 224.07 521.03 224.07 522.35 224.07 523.64 224.05 524.92 224.04 526.00 224.10 527.08 224.16 527.98 222.82 528.88 221.48 529.15 220.28 529.41 219.08 529.40 217.82 529.40 216.55 529.38 215.55 529.36 214.54 529.30 213.54 529.23 212.54 528.99 210.80 528.74 209.06 528.74 207.72 528.74 206.39 528.74 205.05 528.74 203.72 528.74 202.39 528.74 201.05 528.74 199.73 528.74 198.41 528.75 197.16 528.76 195.91 528.80 194.65 528.85 193.39 529.07 191.91 529.30 190.43 529.22 189.35 529.15 188.28 528.97 186.25 528.79 184.23 528.94 182.65 529.09 181.08 529.25 179.78 529.41 178.49 529.41 176.90 529.40 175.30 529.39 174.19 529.38 173.07 529.32 171.92 529.27 170.76 528.89 169.63 528.51 168.49 528.29 166.75 528.06 165.01 528.04 163.76 528.02 162.50 527.56 161.17 527.09 159.85 525.88 158.68 524.67 157.51 522.76 157.06 520.85 156.62 519.87 156.09 518.90 155.57 518.80 154.09 518.71 152.62 518.72 152.61 Z" data-drauu_index="18"></path><path fill="#1982c4" d="M 342.39 348.29 Q 342.39 348.29 342.33 346.59 342.27 344.88 343.23 343.75 344.18 342.62 345.52 340.28 346.85 337.93 347.68 337.04 348.52 336.14 350.09 335.38 351.67 334.62 352.68 333.45 353.69 332.28 354.80 330.60 355.92 328.91 356.57 327.29 357.21 325.67 357.59 324.69 357.97 323.72 358.47 322.68 358.97 321.64 359.03 320.07 359.08 318.50 359.09 317.47 359.09 316.44 359.09 315.23 359.10 314.02 359.10 311.97 359.10 309.92 359.10 308.87 359.10 307.82 358.86 306.51 358.61 305.20 359.06 304.28 359.50 303.36 361.12 302.83 362.75 302.30 364.10 302.27 365.45 302.23 366.79 302.23 368.13 302.22 369.74 302.22 371.35 302.22 372.73 302.22 374.12 302.22 375.17 302.22 376.23 302.22 377.80 302.22 379.38 302.22 380.76 302.22 382.13 302.22 383.19 302.22 384.25 302.22 385.63 302.22 387.01 302.22 388.27 302.22 389.53 302.22 391.81 302.22 394.10 302.22 395.17 302.22 396.25 302.22 397.28 302.22 398.31 302.22 399.52 302.22 400.72 302.22 402.20 302.22 403.67 302.22 404.87 302.22 406.07 302.22 408.31 302.22 410.55 302.22 413.23 302.22 415.91 302.22 418.78 302.22 421.65 302.22 424.02 302.22 426.39 302.22 428.16 302.22 429.94 302.22 431.46 302.22 432.98 302.22 434.78 302.22 436.58 302.22 438.11 302.22 439.65 302.22 440.87 302.22 442.10 302.22 443.20 302.22 444.30 302.22 445.92 302.22 447.53 302.22 449.95 302.22 452.37 302.22 454.74 302.22 457.11 302.22 458.69 302.22 460.28 302.22 461.33 302.22 462.39 302.22 463.99 302.22 465.59 302.22 466.66 302.22 467.72 302.22 468.94 302.22 470.16 302.22 471.83 302.22 473.50 302.22 474.90 302.22 476.30 302.22 477.92 302.22 479.54 302.22 481.31 302.22 483.08 302.22 484.30 302.22 485.52 302.22 486.62 302.22 487.71 302.22 489.14 302.22 490.56 302.22 491.94 302.22 493.31 302.22 495.05 302.22 496.78 302.22 499.44 302.22 502.10 302.22 503.61 302.22 505.13 302.22 506.15 302.22 507.18 302.22 509.12 302.22 511.06 302.22 512.66 302.22 514.27 302.22 515.66 302.22 517.04 302.22 518.29 302.22 519.54 302.22 521.23 302.22 522.92 302.22 525.42 303.02 527.92 303.82 527.92 303.83 527.92 303.83 527.92 303.84 527.92 303.84 525.42 305.03 522.92 306.22 521.23 306.22 519.54 306.22 518.29 306.22 517.04 306.22 515.66 306.22 514.27 306.22 512.66 306.22 511.06 306.22 509.12 306.22 507.18 306.22 506.15 306.22 505.13 306.22 503.61 306.22 502.10 306.22 499.44 306.22 496.78 306.22 495.05 306.22 493.31 306.22 491.94 306.22 490.56 306.22 489.14 306.22 487.71 306.22 486.62 306.22 485.52 306.22 484.30 306.22 483.08 306.22 481.31 306.22 479.54 306.22 477.92 306.22 476.30 306.22 474.90 306.22 473.50 306.22 471.83 306.22 470.16 306.22 468.94 306.22 467.72 306.22 466.66 306.22 465.59 306.22 463.99 306.22 462.39 306.22 461.33 306.22 460.28 306.22 458.69 306.22 457.11 306.22 454.74 306.22 452.37 306.22 449.95 306.22 447.53 306.22 445.92 306.22 444.30 306.22 443.20 306.22 442.10 306.22 440.87 306.22 439.65 306.22 438.11 306.22 436.58 306.22 434.78 306.22 432.98 306.22 431.46 306.22 429.94 306.22 428.16 306.22 426.39 306.22 424.02 306.22 421.65 306.22 418.78 306.22 415.91 306.22 413.23 306.22 410.55 306.22 408.31 306.22 406.07 306.22 404.87 306.22 403.67 306.22 402.20 306.22 400.72 306.22 399.52 306.22 398.31 306.22 397.28 306.22 396.25 306.22 395.17 306.22 394.10 306.22 391.81 306.22 389.53 306.22 388.27 306.22 387.01 306.22 385.63 306.22 384.25 306.22 383.19 306.22 382.13 306.22 380.76 306.22 379.38 306.22 377.80 306.22 376.23 306.22 374.49 306.22 372.75 306.22 371.30 306.22 369.85 306.22 368.33 306.22 366.81 306.22 365.53 306.24 364.25 306.25 363.37 305.72 362.49 305.18 362.79 306.48 363.10 307.77 363.10 308.85 363.10 309.93 363.10 311.98 363.10 314.03 363.09 315.24 363.09 316.46 363.07 318.19 363.06 319.93 362.91 321.41 362.77 322.89 362.23 324.03 361.70 325.18 361.27 326.26 360.85 327.35 360.38 328.35 359.92 329.35 358.96 331.03 358.00 332.70 357.30 333.86 356.60 335.02 354.98 336.62 353.35 338.23 352.35 338.58 351.34 338.93 350.62 339.73 349.89 340.53 349.14 341.30 348.39 342.07 347.84 343.59 347.30 345.10 346.45 346.10 345.60 347.10 344.00 347.70 342.41 348.30 342.40 348.30 Z" data-drauu_index="20"></path><path fill="#1982c4" d="M 512.04 272.17 Q 512.04 272.17 511.08 273.14 510.12 274.11 508.80 274.44 507.48 274.77 506.00 275.08 504.51 275.38 503.10 275.43 501.70 275.48 500.35 275.48 499.01 275.49 498.04 275.78 497.07 276.07 495.83 276.97 494.59 277.88 493.21 278.27 491.83 278.66 491.94 280.03 492.05 281.40 492.03 282.93 492.01 284.45 492.01 285.55 492.00 286.64 492.00 287.74 492.00 288.84 492.00 290.00 492.00 291.15 492.28 292.33 492.55 293.51 493.35 294.39 494.15 295.27 494.99 295.83 495.83 296.38 497.14 296.56 498.45 296.74 500.46 297.27 502.47 297.79 503.70 299.49 504.94 301.19 504.94 301.19 504.93 301.20 504.93 301.20 504.93 301.21 502.21 301.01 499.49 300.80 497.82 300.64 496.15 300.47 494.10 299.57 492.04 298.68 491.13 298.00 490.23 297.32 489.61 296.32 488.99 295.32 488.49 293.24 488.00 291.15 488.00 290.00 488.00 288.84 488.00 287.74 488.00 286.63 488.01 285.53 488.01 284.42 488.03 282.85 488.05 281.28 488.22 279.36 488.38 277.44 489.73 276.09 491.08 274.74 492.29 274.61 493.49 274.49 494.14 273.64 494.78 272.78 496.20 272.14 497.61 271.50 498.96 271.50 500.32 271.49 501.61 271.47 502.90 271.45 504.42 271.27 505.94 271.08 508.03 270.65 510.12 270.21 511.08 271.18 512.04 272.15 512.04 272.16 Z" data-drauu_index="23"></path><path fill="#1982c4" d="M 513.38 272.15 Q 513.38 272.15 514.72 271.15 516.06 270.16 517.54 270.16 519.01 270.16 520.37 270.16 521.73 270.16 523.45 270.16 525.18 270.16 526.47 270.16 527.77 270.16 529.10 270.16 530.42 270.16 531.83 270.18 533.23 270.20 534.32 270.69 535.41 271.19 536.93 272.13 538.45 273.08 540.12 273.86 541.79 274.64 542.48 275.67 543.17 276.71 543.86 277.85 544.55 279.00 544.96 280.05 545.37 281.11 545.94 282.04 546.51 282.97 546.62 284.42 546.73 285.88 546.46 287.33 546.20 288.78 545.64 290.50 545.08 292.21 544.42 293.60 543.77 294.98 543.01 296.24 542.25 297.49 541.86 298.42 541.46 299.35 540.01 300.03 538.57 300.70 537.40 301.29 536.23 301.88 535.00 302.27 533.78 302.67 532.41 302.76 531.03 302.85 529.71 302.80 528.38 302.75 527.04 302.28 525.70 301.82 525.70 301.81 525.70 301.81 525.69 301.81 525.69 301.80 527.03 300.40 528.36 299.00 529.64 298.92 530.92 298.85 531.96 298.83 533.01 298.81 534.44 298.37 535.87 297.93 537.18 297.31 538.49 296.69 539.17 295.62 539.85 294.56 540.47 293.29 541.09 292.02 541.66 290.16 542.23 288.31 542.48 287.14 542.74 285.96 542.40 284.62 542.06 283.27 541.66 282.25 541.26 281.23 540.49 279.98 539.71 278.72 538.70 277.83 537.68 276.94 536.42 276.04 535.16 275.13 534.06 274.63 532.96 274.12 531.69 274.14 530.42 274.16 529.10 274.16 527.77 274.16 526.47 274.16 525.18 274.16 523.45 274.16 521.73 274.16 520.37 274.16 519.01 274.16 517.54 274.16 516.06 274.16 514.72 273.16 513.38 272.17 513.38 272.16 Z" data-drauu_index="24"></path><path fill="#1982c4" d="M 506.70 272.15 Q 506.70 272.15 507.85 271.18 509.00 270.21 510.63 270.18 512.26 270.16 513.46 270.17 514.65 270.19 516.57 271.17 518.48 272.15 518.48 272.15 518.48 272.16 518.48 272.16 518.48 272.17 516.57 273.15 514.65 274.13 513.46 274.15 512.26 274.16 510.63 274.14 509.00 274.11 507.85 273.14 506.70 272.17 506.70 272.16 Z" data-drauu_index="25"></path><path fill="#ffffff" d="M 349.07 259.47 Q 349.07 259.47 348.07 258.32 347.08 257.17 347.10 255.65 347.12 254.14 347.63 253.08 348.13 252.02 348.48 250.11 348.82 248.20 349.23 247.20 349.65 246.20 350.02 245.23 350.40 244.25 351.76 243.33 353.13 242.40 354.32 242.30 355.52 242.20 357.09 242.16 358.66 242.13 360.21 242.38 361.76 242.63 363.31 242.69 364.86 242.76 365.92 242.98 366.98 243.21 368.11 243.59 369.24 243.97 370.87 244.55 372.50 245.14 374.04 245.27 375.57 245.40 376.59 245.42 377.61 245.43 379.43 245.85 381.25 246.26 383.12 246.41 384.99 246.55 387.33 246.61 389.67 246.68 391.45 246.71 393.22 246.74 395.12 246.75 397.02 246.77 398.60 246.77 400.18 246.78 401.23 246.78 402.29 246.78 403.50 246.78 404.72 246.78 406.00 246.78 407.29 246.78 409.19 246.78 411.09 246.78 412.27 246.78 413.45 246.78 415.30 246.78 417.14 246.78 418.50 246.78 419.87 246.78 422.00 246.78 424.14 246.78 426.17 246.78 428.20 246.78 429.45 246.78 430.71 246.78 432.78 246.78 434.86 246.78 436.87 246.78 438.89 246.78 439.95 246.78 441.01 246.78 442.42 246.78 443.83 246.78 445.01 246.78 446.19 246.78 448.41 246.78 450.64 246.78 452.74 246.78 454.84 246.78 456.50 246.78 458.16 246.78 460.59 246.78 463.03 246.78 464.83 246.78 466.63 246.78 468.17 246.78 469.70 246.78 471.12 246.78 472.54 246.78 474.10 246.78 475.67 246.78 477.29 246.78 478.92 246.78 480.37 246.78 481.83 246.78 486.87 246.78 491.91 246.78 494.43 246.78 496.95 246.78 499.76 246.78 502.56 246.78 504.90 246.78 507.24 246.78 509.39 246.78 511.54 246.78 513.22 246.78 514.90 246.78 516.96 246.78 519.02 246.78 520.47 246.78 521.92 246.78 523.88 246.78 525.84 246.78 527.82 246.78 529.81 246.78 531.42 246.78 533.03 246.78 535.06 246.78 537.09 246.78 539.49 246.78 541.89 246.78 543.68 246.78 545.46 246.78 547.37 246.78 549.29 246.78 550.87 246.78 552.45 246.78 554.27 246.78 556.10 246.78 558.21 246.78 560.33 246.78 562.00 246.78 563.67 246.78 565.53 246.78 567.39 246.78 568.95 246.78 570.51 246.78 571.94 246.78 573.37 246.78 575.36 246.78 577.35 246.78 578.54 246.78 579.74 246.78 581.01 246.78 582.29 246.78 583.60 246.78 584.91 246.78 586.23 246.78 587.56 246.78 588.89 246.78 590.22 246.78 591.95 246.78 593.69 246.78 595.21 246.78 596.73 246.78 598.01 246.62 599.29 246.47 601.26 246.32 603.24 246.17 604.45 246.16 605.66 246.15 607.61 245.60 609.57 245.05 611.11 244.97 612.65 244.89 613.71 244.68 614.77 244.47 616.94 244.33 619.12 244.18 620.72 243.58 622.31 242.99 624.16 242.90 626.01 242.81 627.31 242.80 628.61 242.78 629.94 242.78 631.27 242.78 632.32 242.78 633.38 242.78 634.94 242.78 636.51 242.78 637.89 242.78 639.27 242.78 640.61 242.78 641.95 242.78 643.56 242.78 645.17 242.78 646.56 242.78 647.95 242.78 649.29 242.78 650.63 242.78 651.97 242.78 653.31 242.78 654.65 242.78 655.98 242.78 657.32 242.78 658.65 242.78 659.72 242.78 660.78 242.78 661.88 243.25 662.97 243.73 663.57 245.36 664.18 246.98 664.00 247.97 663.82 248.96 663.75 250.09 663.68 251.23 663.66 252.55 663.64 253.88 663.01 255.26 662.38 256.63 662.36 257.76 662.34 258.89 661.14 261.09 659.94 263.28 659.93 263.28 659.93 263.28 659.92 263.28 659.92 263.28 659.15 261.60 658.39 259.92 658.39 258.83 658.39 257.73 658.72 256.10 659.05 254.46 659.36 253.45 659.66 252.44 659.71 251.02 659.75 249.61 660.27 248.19 660.78 246.78 659.72 246.78 658.65 246.78 657.32 246.78 655.98 246.78 654.65 246.78 653.31 246.78 651.97 246.78 650.63 246.78 649.29 246.78 647.95 246.78 646.56 246.78 645.17 246.78 643.56 246.78 641.95 246.78 640.61 246.78 639.27 246.78 637.89 246.78 636.51 246.78 634.94 246.78 633.38 246.78 632.33 246.78 631.28 246.78 629.95 246.78 628.63 246.78 627.36 246.80 626.09 246.81 624.30 246.87 622.51 246.93 620.90 247.55 619.30 248.17 617.40 248.29 615.50 248.41 614.17 248.64 612.85 248.88 610.59 249.04 608.32 249.20 607.08 249.66 605.83 250.13 604.60 250.15 603.37 250.17 601.84 250.25 600.30 250.33 598.52 250.56 596.73 250.78 595.21 250.78 593.69 250.78 591.95 250.78 590.22 250.78 588.89 250.78 587.56 250.78 586.23 250.78 584.91 250.78 583.60 250.78 582.29 250.78 581.01 250.78 579.74 250.78 578.54 250.78 577.35 250.78 575.36 250.78 573.37 250.78 571.94 250.78 570.51 250.78 568.95 250.78 567.39 250.78 565.53 250.78 563.67 250.78 562.00 250.78 560.33 250.78 558.21 250.78 556.10 250.78 554.27 250.78 552.45 250.78 550.87 250.78 549.29 250.78 547.37 250.78 545.46 250.78 543.68 250.78 541.89 250.78 539.49 250.78 537.09 250.78 535.06 250.78 533.03 250.78 531.42 250.78 529.81 250.78 527.82 250.78 525.84 250.78 523.88 250.78 521.92 250.78 520.47 250.78 519.02 250.78 516.96 250.78 514.90 250.78 513.22 250.78 511.54 250.78 509.39 250.78 507.24 250.78 504.90 250.78 502.56 250.78 499.76 250.78 496.95 250.78 494.43 250.78 491.91 250.78 486.87 250.78 481.83 250.78 480.37 250.78 478.92 250.78 477.29 250.78 475.67 250.78 474.10 250.78 472.54 250.78 471.12 250.78 469.70 250.78 468.17 250.78 466.63 250.78 464.83 250.78 463.03 250.78 460.59 250.78 458.16 250.78 456.50 250.78 454.84 250.78 452.74 250.78 450.64 250.78 448.41 250.78 446.19 250.78 445.01 250.78 443.83 250.78 442.42 250.78 441.01 250.78 439.95 250.78 438.89 250.78 436.87 250.78 434.86 250.78 432.78 250.78 430.71 250.78 429.45 250.78 428.20 250.78 426.17 250.78 424.14 250.78 422.00 250.78 419.87 250.78 418.50 250.78 417.14 250.78 415.30 250.78 413.45 250.78 412.27 250.78 411.09 250.78 409.19 250.78 407.29 250.78 406.00 250.78 404.72 250.78 403.50 250.78 402.28 250.78 401.22 250.78 400.17 250.78 398.58 250.77 397.00 250.77 395.08 250.75 393.16 250.74 391.36 250.71 389.56 250.68 387.11 250.61 384.66 250.53 382.48 250.34 380.31 250.15 378.92 249.79 377.54 249.43 376.46 249.41 375.38 249.40 373.85 249.27 372.31 249.13 371.11 248.57 369.91 248.00 368.33 247.75 366.75 247.50 365.75 247.13 364.76 246.75 363.36 246.70 361.96 246.64 360.34 246.38 358.72 246.13 357.24 246.16 355.77 246.20 354.63 246.74 353.49 247.29 353.09 248.26 352.69 249.23 352.40 250.73 352.11 252.23 351.57 253.34 351.03 254.45 351.06 255.81 351.08 257.17 350.08 258.32 349.09 259.47 349.08 259.47 Z" data-drauu_index="28"></path><path fill="#ffffff" d="M 485.99 365.65 Q 485.99 365.65 488.05 364.11 490.12 362.57 492.58 362.30 495.04 362.03 497.23 361.92 499.43 361.81 501.52 361.77 503.61 361.72 506.23 361.71 508.84 361.69 513.80 361.68 518.75 361.67 523.92 361.67 529.10 361.66 534.95 361.66 540.80 361.66 545.97 361.66 551.14 361.66 556.41 361.66 561.69 361.66 565.65 361.66 569.62 361.66 571.92 361.29 574.22 360.92 576.33 360.39 578.44 359.86 581.25 359.60 584.07 359.34 586.78 358.69 589.50 358.03 592.04 357.37 594.57 356.71 597.87 355.49 601.18 354.27 605.19 353.14 609.20 352.01 613.07 350.43 616.94 348.84 619.81 347.76 622.67 346.68 625.65 344.95 628.64 343.21 630.76 342.05 632.87 340.90 637.52 339.01 642.16 337.13 646.83 334.31 651.50 331.49 655.88 329.09 660.27 326.69 663.28 325.09 666.29 323.50 668.18 321.97 670.07 320.43 672.63 319.06 675.18 317.69 677.58 315.72 679.98 313.75 682.75 312.19 685.51 310.64 687.52 309.29 689.52 307.95 690.67 306.88 691.81 305.81 692.91 304.75 694.01 303.69 694.86 302.86 695.71 302.02 696.54 301.42 697.36 300.82 698.54 299.12 699.73 297.43 700.38 295.04 701.04 292.65 701.23 291.35 701.41 290.04 701.53 289.03 701.64 288.02 700.92 286.89 700.20 285.77 699.74 284.81 699.28 283.86 699.01 282.86 698.74 281.86 698.28 280.18 697.81 278.50 696.55 276.75 695.29 275.00 694.59 274.16 693.89 273.32 693.39 271.84 692.90 270.36 692.59 269.34 692.28 268.31 691.33 267.08 690.38 265.84 689.60 264.98 688.82 264.13 687.00 262.83 685.17 261.54 683.89 260.68 682.60 259.83 680.84 258.88 679.07 257.93 678.07 257.76 677.07 257.59 676.08 257.33 675.09 257.07 673.61 256.43 672.13 255.78 671.20 255.16 670.28 254.53 668.74 254.36 667.20 254.18 664.82 252.97 662.45 251.75 662.45 251.75 662.45 251.74 662.45 251.74 662.45 251.73 664.94 250.96 667.43 250.19 669.02 250.36 670.62 250.54 672.11 251.31 673.60 252.07 674.88 252.64 676.15 253.21 677.75 253.56 679.35 253.90 680.94 254.72 682.53 255.53 683.68 256.01 684.82 256.50 686.28 257.48 687.74 258.47 688.58 259.19 689.43 259.92 690.57 260.64 691.70 261.36 692.59 262.33 693.47 263.30 694.15 264.14 694.83 264.98 695.46 266.05 696.09 267.11 696.55 268.99 697.01 270.88 697.77 271.76 698.53 272.65 699.37 273.81 700.20 274.96 700.87 275.99 701.53 277.02 702.01 278.34 702.49 279.67 702.70 280.91 702.90 282.15 703.56 283.65 704.23 285.14 704.87 286.52 705.52 287.89 705.44 289.27 705.37 290.65 705.11 292.26 704.84 293.88 704.32 295.48 703.80 297.09 702.60 299.19 701.39 301.29 699.95 303.09 698.51 304.89 697.64 305.73 696.78 306.58 695.65 307.66 694.52 308.75 693.14 310.01 691.75 311.27 689.60 312.70 687.46 314.13 684.98 315.49 682.49 316.86 679.78 319.04 677.06 321.22 674.81 322.39 672.56 323.56 670.36 325.30 668.17 327.03 665.18 328.61 662.19 330.20 657.87 332.56 653.56 334.92 648.61 337.88 643.66 340.84 639.23 342.62 634.79 344.40 632.71 345.54 630.63 346.68 627.36 348.55 624.09 350.42 621.27 351.48 618.45 352.55 614.37 354.21 610.28 355.86 606.42 356.95 602.55 358.03 599.07 359.30 595.59 360.57 593.01 361.25 590.42 361.93 587.42 362.63 584.42 363.32 581.91 363.53 579.40 363.74 577.12 364.30 574.84 364.87 572.23 365.26 569.63 365.66 565.66 365.66 561.69 365.66 556.41 365.66 551.14 365.66 545.97 365.66 540.80 365.66 534.95 365.66 529.10 365.66 523.93 365.67 518.76 365.67 513.81 365.68 508.87 365.69 506.28 365.71 503.69 365.72 501.66 365.77 499.62 365.81 497.54 365.91 495.46 366.01 493.27 366.23 491.08 366.45 488.54 366.06 486.00 365.67 485.99 365.66 Z" data-drauu_index="29"></path>
</svg>