<svg width="980" height="551" xmlns="http://www.w3.org/2000/svg" xmlns:xlink="http://www.w3.org/1999/xlink">
<path fill="#ff595e" d="M 297.66 251.46 Q 297.66 251.46 297.56 252.96 297.46 254.45 296.23 254.99 295.00 255.52 293.82 256.11 292.65 256.71 292.14 257.79 291.63 258.88 290.75 259.87 289.87 260.87 289.77 262.09 289.66 263.30 289.38 264.77 289.09 266.24 288.73 267.49 288.36 268.74 288.34 269.97 288.31 271.21 288.31 272.26 288.30 273.30 288.30 274.59 288.30 275.87 288.30 277.20 288.30 278.52 288.30 280.24 288.30 281.96 289.21 283.02 290.13 284.09 291.44 284.12 292.76 284.15 294.05 284.17 295.35 284.18 296.40 284.18 297.44 284.18 298.65 284.39 299.86 284.61 301.12 284.99 302.39 285.38 302.64 284.32 302.89 283.25 303.74 281.83 304.60 280.40 305.10 279.44 305.60 278.47 306.44 277.45 307.28 276.42 307.45 275.04 307.61 273.67 307.63 272.39 307.66 271.12 307.67 269.41 307.67 267.70 307.67 266.68 307.67 265.67 307.41 264.24 307.15 262.81 306.11 261.62 305.06 260.43 304.11 259.74 303.16 259.04 302.31 258.43 301.46 257.82 299.99 257.67 298.52 257.52 295.91 256.50 293.30 255.47 293.30 255.47 293.30 255.46 293.30 255.46 293.30 255.45 296.02 254.49 298.75 253.52 300.33 253.70 301.91 253.87 303.33 254.63 304.76 255.38 305.71 255.86 306.65 256.34 307.96 257.72 309.27 259.10 309.88 259.91 310.49 260.71 310.86 262.14 311.24 263.57 311.45 264.61 311.67 265.65 311.67 266.68 311.67 267.71 311.67 269.44 311.66 271.17 311.63 272.56 311.60 273.96 311.36 275.59 311.13 277.22 310.23 278.43 309.34 279.64 308.66 281.17 307.97 282.69 307.42 283.62 306.87 284.54 306.42 285.70 305.97 286.86 305.43 287.72 304.89 288.58 303.89 289.00 302.89 289.42 301.42 289.18 299.94 288.95 298.68 288.57 297.42 288.18 296.37 288.18 295.32 288.18 293.97 288.16 292.61 288.15 291.15 288.04 289.69 287.94 288.47 287.41 287.25 286.89 286.36 286.28 285.47 285.68 284.88 283.82 284.30 281.96 284.30 280.24 284.30 278.52 284.30 277.20 284.30 275.87 284.30 274.58 284.30 273.29 284.31 272.23 284.31 271.16 284.34 269.79 284.38 268.41 284.71 266.78 285.04 265.15 285.35 264.16 285.66 263.17 285.78 261.76 285.89 260.35 286.58 259.10 287.26 257.84 288.15 256.81 289.04 255.77 289.73 254.79 290.41 253.80 291.29 253.19 292.16 252.57 293.47 252.05 294.77 251.53 296.21 251.49 297.64 251.45 297.65 251.46 Z" data-drauu_index="1"></path><path fill="#ff595e" d="M 237.54 301.54 Q 237.54 301.54 238.53 300.37 239.52 299.20 240.66 298.77 241.79 298.35 243.36 297.41 244.94 296.48 246.09 296.37 247.25 296.26 247.51 295.48 247.77 294.70 248.00 294.63 248.23 294.55 248.47 294.53 248.71 294.52 248.95 294.56 249.19 294.60 249.41 294.69 249.63 294.79 249.82 294.93 250.02 295.08 250.17 295.26 250.32 295.45 250.42 295.67 250.53 295.89 250.57 296.12 250.62 296.36 250.61 296.60 250.60 296.84 250.53 297.07 250.46 297.30 250.34 297.51 250.22 297.72 250.05 297.89 249.89 298.07 249.68 298.20 249.48 298.32 250.34 299.65 251.20 300.98 251.36 302.24 251.53 303.49 251.54 305.07 251.56 306.64 251.56 307.95 251.56 309.25 251.56 310.39 251.56 311.53 251.56 312.75 251.56 313.97 251.52 315.04 251.48 316.11 250.22 317.71 248.96 319.32 248.95 319.32 248.95 319.32 248.94 319.32 248.94 319.32 248.29 317.65 247.65 315.98 247.61 314.34 247.56 312.70 247.56 311.64 247.56 310.58 247.56 309.26 247.56 307.94 247.56 306.69 247.56 305.44 247.53 304.23 247.49 303.01 246.87 302.20 246.25 301.39 245.77 299.72 245.29 298.05 246.53 296.38 247.77 294.70 248.00 294.63 248.23 294.55 248.47 294.53 248.71 294.52 248.95 294.56 249.19 294.59 249.41 294.69 249.63 294.79 249.82 294.93 250.02 295.08 250.17 295.26 250.32 295.45 250.42 295.67 250.53 295.89 250.57 296.12 250.62 296.36 250.61 296.60 250.60 296.84 250.53 297.07 250.46 297.30 250.34 297.51 250.22 297.72 250.05 297.89 249.89 298.07 249.68 298.20 249.48 298.32 249.48 298.76 249.49 299.20 248.52 299.72 247.55 300.23 246.27 300.54 245.00 300.85 244.02 301.60 243.03 302.35 241.60 302.74 240.17 303.13 238.86 302.34 237.54 301.56 237.54 301.55 Z" data-drauu_index="4"></path><path fill="#ff595e" d="M 242.22 318.90 Q 242.22 318.90 243.37 317.91 244.52 316.92 246.15 316.92 247.78 316.91 249.17 316.91 250.56 316.91 251.90 316.93 253.25 316.95 255.06 317.93 256.88 318.90 256.88 318.91 256.88 318.91 256.88 318.92 256.88 318.92 255.06 319.90 253.25 320.87 251.90 320.89 250.56 320.91 249.17 320.91 247.78 320.91 246.15 320.90 244.52 320.90 243.37 319.91 242.22 318.92 242.22 318.91 Z" data-drauu_index="5"></path><path fill="#ff595e" d="M 257.58 303.54 Q 257.58 303.54 258.54 302.55 259.49 301.55 260.50 301.38 261.50 301.20 263.11 300.42 264.73 299.63 265.69 298.64 266.66 297.65 268.21 296.99 269.76 296.34 270.73 295.72 271.71 295.10 273.05 294.35 274.40 293.60 275.66 293.04 276.93 292.48 279.95 292.41 282.97 292.34 282.97 292.35 282.97 292.35 282.97 292.36 282.98 292.36 281.14 294.00 279.30 295.64 277.79 296.38 276.28 297.13 275.16 297.74 274.04 298.35 272.59 299.22 271.15 300.09 269.61 300.96 268.07 301.83 266.31 302.92 264.55 304.00 263.38 304.57 262.21 305.13 260.85 305.34 259.50 305.55 258.54 304.55 257.58 303.56 257.58 303.55 Z" data-drauu_index="6"></path><path fill="#ff595e" d="M 276.28 287.51 Q 276.28 287.51 278.01 286.52 279.74 285.52 280.85 285.52 281.97 285.52 283.22 285.52 284.46 285.52 285.76 285.52 287.05 285.52 287.99 285.52 288.92 285.52 289.16 285.55 289.40 285.58 289.63 285.66 289.85 285.75 290.05 285.89 290.25 286.02 290.41 286.20 290.57 286.38 290.68 286.60 290.79 286.81 290.85 287.05 290.91 287.28 290.91 287.52 290.91 287.76 290.85 288.00 290.79 288.23 290.68 288.44 290.57 288.66 290.41 288.84 290.25 289.02 290.05 289.15 289.85 289.29 289.63 289.38 289.40 289.46 289.16 289.49 288.92 289.52 287.87 291.01 286.81 292.51 286.07 293.56 285.34 294.61 284.43 295.78 283.52 296.94 281.35 297.34 279.19 297.74 279.19 297.73 279.18 297.73 279.18 297.73 279.17 297.73 280.48 295.25 281.78 292.78 282.88 291.23 283.98 289.68 284.72 288.94 285.46 288.19 286.28 287.37 287.10 286.54 288.01 286.03 288.92 285.52 289.16 285.55 289.40 285.58 289.63 285.66 289.85 285.75 290.05 285.89 290.25 286.02 290.41 286.20 290.57 286.38 290.68 286.60 290.79 286.81 290.85 287.05 290.91 287.28 290.91 287.52 290.91 287.76 290.85 288.00 290.79 288.23 290.68 288.44 290.57 288.66 290.41 288.84 290.25 289.02 290.05 289.15 289.85 289.29 289.63 289.38 289.40 289.46 289.16 289.49 288.92 289.52 287.99 289.52 287.05 289.52 285.76 289.52 284.46 289.52 283.22 289.52 281.97 289.52 280.85 289.52 279.74 289.52 278.01 288.53 276.28 287.53 276.28 287.52 Z" data-drauu_index="7"></path><path fill="#ffca3a" d="M 876.04 145.27 Q 876.04 145.27 876.25 146.64 876.46 148.02 875.56 148.75 874.66 149.48 873.24 150.75 871.81 152.03 871.30 152.99 870.78 153.95 870.47 155.34 870.15 156.73 870.09 158.24 870.03 159.74 870.02 161.03 870.02 162.33 870.02 163.46 870.02 164.60 870.57 165.68 871.12 166.75 872.24 167.58 873.37 168.40 873.99 167.36 874.61 166.32 875.70 165.80 876.78 165.29 878.10 164.00 879.42 162.72 880.02 161.67 880.62 160.62 880.96 159.44 881.31 158.26 880.79 157.04 880.26 155.83 879.64 154.84 879.01 153.86 877.88 152.79 876.75 151.73 876.05 149.51 875.35 147.30 875.36 147.29 875.36 147.29 875.36 147.29 875.37 147.28 877.14 147.79 878.91 148.31 879.54 149.25 880.16 150.19 881.55 151.34 882.94 152.48 883.65 153.59 884.35 154.70 884.82 155.84 885.29 156.98 884.96 158.57 884.64 160.16 884.50 161.42 884.36 162.68 883.41 164.06 882.46 165.45 881.21 166.25 879.97 167.06 878.53 168.07 877.09 169.07 875.94 169.83 874.78 170.59 873.41 171.09 872.04 171.59 871.00 170.93 869.96 170.27 869.08 169.77 868.19 169.27 867.64 168.25 867.09 167.23 866.55 165.91 866.02 164.60 866.02 163.46 866.02 162.32 866.02 161.01 866.03 159.70 866.06 158.46 866.08 157.22 866.41 156.04 866.74 154.86 866.89 153.38 867.03 151.90 868.01 150.52 868.98 149.13 870.05 148.78 871.11 148.43 872.21 147.01 873.30 145.58 874.66 145.42 876.02 145.26 876.03 145.26 Z" data-drauu_index="8"></path><path fill="#ffca3a" d="M 884.73 162.63 Q 884.73 162.63 885.71 163.96 886.69 165.28 887.22 166.89 887.75 168.51 887.88 170.04 888.01 171.57 888.02 172.67 888.04 173.76 888.05 175.06 888.05 176.35 888.04 177.92 888.03 179.49 887.55 180.65 887.06 181.80 886.59 182.80 886.12 183.81 885.02 184.81 883.92 185.81 882.72 186.39 881.52 186.97 880.41 187.69 879.30 188.41 877.97 189.09 876.64 189.76 873.73 190.00 870.82 190.23 870.81 190.23 870.81 190.22 870.81 190.22 870.81 190.22 872.21 188.58 873.61 186.95 874.83 186.46 876.06 185.98 877.29 185.36 878.51 184.75 879.36 184.01 880.22 183.27 881.26 182.72 882.30 182.17 882.90 181.07 883.50 179.98 883.78 178.83 884.05 177.68 884.05 176.37 884.05 175.06 884.04 173.86 884.03 172.66 884.00 171.59 883.96 170.52 883.77 169.38 883.59 168.24 883.17 166.80 882.74 165.35 883.72 163.99 884.71 162.63 884.72 162.63 Z" data-drauu_index="9"></path><path fill="#ffca3a" d="M 870.03 184.00 Q 870.03 184.00 871.03 185.15 872.02 186.30 871.71 187.90 871.40 189.50 870.46 190.43 869.52 191.36 871.93 192.00 874.35 192.65 874.35 192.66 874.35 192.66 874.35 192.67 874.35 192.67 871.99 193.51 869.63 194.36 868.29 193.87 866.95 193.38 866.41 192.29 865.87 191.20 866.27 189.90 866.66 188.61 867.34 187.46 868.02 186.30 869.02 185.15 870.01 184.00 870.02 184.00 Z" data-drauu_index="10"></path><path fill="#ffca3a" d="M 882.04 83.81 Q 882.04 83.81 882.20 81.71 882.36 79.60 883.86 78.64 885.35 77.69 886.41 77.34 887.47 76.99 888.91 76.29 890.36 75.59 891.73 75.07 893.10 74.56 894.43 74.52 895.76 74.49 897.12 74.49 898.48 74.49 899.46 74.90 900.44 75.31 901.03 76.16 901.62 77.01 901.82 78.55 902.02 80.10 902.04 81.85 902.07 83.60 902.07 85.17 902.07 86.73 901.67 88.05 901.26 89.36 900.66 90.62 900.06 91.89 899.15 93.12 898.25 94.35 897.12 95.25 896.00 96.15 894.80 97.31 893.61 98.46 892.87 99.22 892.14 99.98 890.59 100.22 889.05 100.46 887.70 100.40 886.35 100.34 885.28 98.95 884.21 97.55 884.47 95.84 884.73 94.13 886.16 93.39 887.59 92.65 888.79 92.09 889.98 91.53 891.50 91.37 893.01 91.22 894.38 91.20 895.74 91.18 896.89 91.17 898.03 91.17 899.55 91.73 901.07 92.30 902.44 93.97 903.80 95.65 904.82 96.27 905.84 96.89 906.72 97.52 907.60 98.15 909.10 99.88 910.60 101.60 910.59 101.60 910.59 101.61 910.59 101.61 910.59 101.62 908.59 101.80 906.59 101.98 905.41 101.26 904.23 100.55 903.25 100.06 902.27 99.58 901.05 98.04 899.82 96.50 898.93 95.84 898.04 95.17 896.91 95.17 895.77 95.18 894.49 95.20 893.21 95.21 891.83 95.39 890.45 95.56 889.03 96.03 887.62 96.49 888.84 96.67 890.07 96.84 890.96 95.70 891.86 94.57 892.64 93.83 893.41 93.10 894.59 92.17 895.76 91.24 896.67 89.99 897.57 88.75 897.82 87.74 898.07 86.74 898.07 85.18 898.07 83.62 898.06 82.59 898.05 81.57 898.22 80.01 898.38 78.46 897.10 78.47 895.82 78.49 894.38 78.43 892.94 78.38 891.81 78.97 890.68 79.56 889.69 80.17 888.70 80.78 887.14 81.34 885.57 81.89 883.81 82.86 882.05 83.82 882.04 83.82 Z" data-drauu_index="11"></path><path fill="#ffca3a" d="M 892.74 107.86 Q 892.74 107.86 893.54 109.71 894.33 111.55 893.82 113.08 893.30 114.61 892.83 116.33 892.35 118.05 892.24 119.56 892.13 121.06 891.78 122.70 891.43 124.34 891.15 125.44 890.87 126.54 890.59 127.53 890.32 128.52 889.50 129.75 888.69 130.99 888.45 132.09 888.20 133.19 887.94 134.17 887.67 135.15 887.24 136.17 886.82 137.18 886.29 138.14 885.77 139.11 883.78 141.48 881.79 143.84 881.79 143.84 881.78 143.84 881.78 143.83 881.77 143.83 881.75 141.43 881.72 139.02 882.36 137.53 882.99 136.04 883.40 135.05 883.82 134.07 884.21 132.40 884.60 130.73 885.55 129.05 886.50 127.37 886.88 125.74 887.26 124.11 887.70 122.50 888.13 120.88 888.20 119.69 888.26 118.50 888.66 116.95 889.06 115.41 889.30 114.34 889.53 113.27 889.94 112.18 890.36 111.09 891.54 109.47 892.72 107.86 892.73 107.86 Z" data-drauu_index="12"></path><path fill="#ffca3a" d="M 878.71 134.57 Q 878.71 134.57 880.05 135.65 881.40 136.72 881.58 137.78 881.77 138.84 882.39 140.85 883.00 142.87 883.30 144.24 883.59 145.61 884.53 145.01 885.47 144.41 886.82 143.28 888.18 142.15 890.07 141.80 891.96 141.46 891.96 141.46 891.96 141.47 891.97 141.47 891.97 141.48 890.81 143.65 889.66 145.83 888.82 146.71 887.98 147.59 886.88 148.46 885.79 149.33 884.10 149.64 882.42 149.96 881.38 149.20 880.34 148.43 880.01 147.44 879.68 146.44 879.43 145.23 879.17 144.02 878.36 140.92 877.55 137.81 878.12 136.20 878.69 134.58 878.70 134.58 Z" data-drauu_index="13"></path><path fill="#8ac926" d="M 427.22 143.25 Q 427.22 143.25 428.95 141.89 430.68 140.53 431.91 140.54 433.13 140.55 435.42 140.57 437.71 140.58 439.08 140.79 440.45 141.00 441.84 141.39 443.24 141.78 445.58 141.84 447.92 141.90 449.08 141.91 450.24 141.91 452.44 142.32 454.65 142.73 455.84 142.88 457.03 143.04 458.81 143.13 460.59 143.22 462.08 143.24 463.57 143.26 465.47 143.55 467.36 143.85 468.19 144.62 469.01 145.39 469.43 147.09 469.85 148.79 469.90 150.20 469.94 151.60 469.95 152.94 469.96 154.29 469.96 155.63 469.96 156.96 469.96 158.03 469.96 159.09 469.96 160.38 469.96 161.66 469.96 162.99 469.96 164.32 469.96 165.46 469.96 166.60 469.64 168.19 469.32 169.77 468.53 170.68 467.74 171.59 466.30 172.06 464.85 172.53 463.54 172.58 462.24 172.63 460.91 172.63 459.59 172.64 458.26 172.64 456.92 172.64 455.87 172.64 454.82 172.64 453.25 172.64 451.69 172.64 450.31 172.64 448.93 172.64 447.59 172.64 446.24 172.64 444.91 172.64 443.57 172.64 442.42 172.64 441.28 172.64 440.06 172.64 438.84 172.64 437.80 172.64 436.77 172.64 435.00 172.64 433.23 172.64 431.90 172.36 430.57 172.08 429.28 172.01 427.98 171.94 426.64 171.18 425.30 170.42 424.66 169.49 424.02 168.56 423.59 167.47 423.16 166.38 422.63 165.19 422.10 164.00 421.74 162.67 421.38 161.34 421.02 159.59 420.66 157.84 420.61 156.61 420.56 155.38 421.09 154.04 421.61 152.70 422.37 151.68 423.14 150.66 424.26 149.66 425.38 148.66 426.12 147.49 426.87 146.33 427.61 144.98 428.35 143.64 430.31 142.38 432.28 141.12 432.28 141.12 432.29 141.13 432.29 141.13 432.29 141.13 432.26 143.09 432.23 145.04 431.64 145.89 431.06 146.75 430.08 148.31 429.09 149.88 427.88 151.10 426.67 152.32 425.62 153.79 424.56 155.27 424.60 156.34 424.64 157.41 424.78 158.44 424.91 159.46 425.42 160.58 425.93 161.70 425.85 162.71 425.76 163.72 426.55 164.87 427.34 166.01 427.88 167.03 428.42 168.05 429.75 168.08 431.08 168.11 432.19 168.38 433.30 168.65 435.03 168.64 436.77 168.64 437.80 168.64 438.84 168.64 440.06 168.64 441.28 168.64 442.42 168.64 443.57 168.64 444.91 168.64 446.24 168.64 447.59 168.64 448.93 168.64 450.31 168.64 451.68 168.64 453.25 168.64 454.82 168.64 456.54 168.64 458.25 168.64 459.57 168.64 460.89 168.64 462.12 168.62 463.35 168.61 464.67 168.30 465.99 167.98 465.98 166.82 465.96 165.65 465.96 164.32 465.96 162.99 465.96 161.67 465.96 160.36 465.96 159.14 465.96 157.92 465.96 156.78 465.96 155.63 465.96 154.31 465.95 152.98 465.94 151.69 465.92 150.40 465.95 148.92 465.99 147.44 464.76 147.35 463.54 147.26 462.00 147.24 460.46 147.22 458.48 147.11 456.51 147.00 455.20 146.83 453.90 146.65 452.05 146.28 450.20 145.91 449.04 145.90 447.88 145.90 445.22 145.81 442.57 145.73 441.18 145.34 439.80 144.94 438.74 144.76 437.69 144.58 436.18 144.58 434.67 144.57 433.06 144.51 431.44 144.45 429.33 143.86 427.22 143.27 427.22 143.26 Z" data-drauu_index="0"></path><path fill="#8ac926" d="M 357.09 61.77 Q 357.09 61.77 357.87 60.60 358.65 59.44 359.93 59.53 361.20 59.63 363.10 60.20 365.00 60.77 366.22 61.47 367.44 62.18 368.75 62.88 370.07 63.59 371.19 64.49 372.31 65.40 373.54 67.10 374.76 68.80 375.07 69.77 375.37 70.75 376.06 72.15 376.74 73.56 376.68 75.16 376.62 76.77 376.48 77.85 376.34 78.92 375.68 79.82 375.01 80.72 373.30 81.21 371.59 81.69 369.86 82.51 368.12 83.32 366.51 83.53 364.89 83.74 363.31 83.51 361.73 83.27 360.92 82.68 360.10 82.09 359.31 81.77 358.52 81.46 358.30 81.36 358.08 81.26 357.89 81.12 357.70 80.97 357.55 80.78 357.40 80.59 357.30 80.37 357.20 80.15 357.16 79.91 357.11 79.67 357.13 79.43 357.14 79.19 357.21 78.96 357.29 78.73 357.41 78.53 357.53 78.32 357.70 78.15 357.87 77.98 358.08 77.85 358.29 77.73 358.52 77.66 358.75 77.58 358.99 77.57 359.23 77.55 359.47 77.60 359.70 77.64 360.60 77.11 361.50 76.57 362.55 76.53 363.59 76.49 364.87 76.48 366.15 76.48 367.89 76.73 369.63 76.98 370.85 78.36 372.06 79.74 372.23 81.25 372.40 82.77 372.42 83.87 372.44 84.97 372.16 86.37 371.89 87.77 371.56 89.51 371.23 91.24 370.33 92.19 369.43 93.14 368.91 94.12 368.38 95.10 367.48 95.59 366.57 96.09 365.13 96.68 363.69 97.26 362.10 97.76 360.51 98.27 358.88 98.37 357.25 98.47 355.71 98.49 354.17 98.50 351.95 96.66 349.72 94.81 349.73 94.81 349.73 94.81 349.74 94.81 349.74 94.80 351.94 94.65 354.14 94.50 355.65 94.49 357.15 94.47 358.94 94.33 360.73 94.20 362.28 93.57 363.84 92.95 364.77 92.52 365.71 92.09 366.77 90.41 367.84 88.74 367.99 87.20 368.15 85.65 368.28 84.32 368.40 82.98 368.35 81.86 368.30 80.74 367.23 80.61 366.16 80.48 364.91 80.48 363.66 80.49 362.22 80.38 360.77 80.27 359.64 80.87 358.52 81.46 358.30 81.36 358.08 81.26 357.89 81.12 357.70 80.97 357.55 80.78 357.40 80.59 357.30 80.37 357.20 80.15 357.16 79.91 357.11 79.67 357.13 79.43 357.14 79.19 357.21 78.96 357.29 78.73 357.41 78.53 357.53 78.32 357.70 78.15 357.87 77.98 358.08 77.85 358.29 77.73 358.52 77.66 358.75 77.58 358.99 77.57 359.23 77.55 359.47 77.60 359.70 77.64 361.10 78.27 362.49 78.90 363.56 79.33 364.62 79.75 366.04 79.59 367.46 79.43 368.58 78.66 369.70 77.88 371.13 77.61 372.57 77.33 372.66 75.58 372.75 73.84 372.15 72.87 371.55 71.90 371.04 70.62 370.53 69.34 369.86 68.49 369.19 67.65 368.11 67.00 367.04 66.36 365.70 65.55 364.36 64.74 363.37 64.21 362.38 63.68 360.88 63.52 359.38 63.35 358.23 62.57 357.09 61.79 357.09 61.78 Z" data-drauu_index="1"></path><path fill="#8ac926" d="M 380.48 96.50 Q 380.48 96.50 382.33 96.95 384.19 97.40 385.53 99.14 386.88 100.89 387.71 102.51 388.53 104.14 389.15 105.02 389.77 105.91 390.85 107.50 391.92 109.09 392.66 110.91 393.40 112.73 393.97 113.65 394.55 114.57 395.76 115.93 396.96 117.30 398.06 118.49 399.15 119.69 400.40 120.94 401.64 122.19 402.77 123.32 403.89 124.45 404.92 125.48 405.94 126.50 406.79 127.04 407.63 127.58 408.50 128.22 409.37 128.86 410.61 129.99 411.85 131.12 413.04 133.70 414.24 136.28 414.24 136.28 414.23 136.29 414.23 136.29 414.22 136.29 412.26 135.71 410.29 135.13 409.23 134.14 408.18 133.16 407.04 132.17 405.89 131.18 404.50 130.25 403.11 129.33 402.09 128.30 401.06 127.28 399.93 126.15 398.81 125.02 397.55 123.75 396.29 122.48 395.36 121.50 394.43 120.52 393.80 119.62 393.16 118.72 392.16 117.70 391.16 116.67 390.42 115.44 389.68 114.20 389.13 112.76 388.59 111.31 387.53 109.74 386.48 108.17 385.71 107.05 384.95 105.92 384.32 104.61 383.70 103.31 382.53 101.77 381.36 100.22 380.91 98.37 380.46 96.52 380.47 96.51 Z" data-drauu_index="2"></path><path fill="#8ac926" d="M 399.17 130.56 Q 399.17 130.56 400.35 129.57 401.54 128.58 402.78 129.04 404.02 129.50 405.18 129.66 406.34 129.81 407.37 130.06 408.39 130.31 409.94 131.28 411.49 132.25 412.70 132.59 413.91 132.93 413.88 131.90 413.85 130.86 413.86 129.85 413.87 128.84 413.57 127.22 413.27 125.60 414.23 123.57 415.19 121.53 415.20 121.53 415.20 121.53 415.21 121.53 415.21 121.53 416.25 124.00 417.30 126.47 417.57 127.60 417.84 128.74 417.84 129.84 417.84 130.94 417.79 132.39 417.74 133.85 417.12 135.36 416.51 136.88 414.96 137.04 413.41 137.20 412.17 136.68 410.94 136.16 409.99 135.78 409.05 135.41 408.22 134.79 407.39 134.18 405.85 133.90 404.31 133.62 402.86 133.09 401.40 132.56 400.29 131.57 399.17 130.58 399.17 130.57 Z" data-drauu_index="3"></path><path fill="#1982c4" d="M 99.29 198.68 Q 99.29 198.68 100.95 197.89 102.61 197.10 103.94 197.39 105.26 197.67 106.63 198.11 108.00 198.54 110.11 198.60 112.22 198.66 113.69 198.67 115.15 198.68 116.16 198.69 117.17 198.69 118.37 198.69 119.56 198.69 121.22 198.70 122.88 198.70 123.97 198.70 125.06 198.70 126.46 198.70 127.86 198.70 129.59 198.70 131.32 198.70 132.86 198.70 134.41 198.70 135.45 198.70 136.49 198.70 138.47 198.70 140.45 198.70 141.48 198.70 142.51 198.70 144.07 198.70 145.63 198.70 147.68 198.17 149.74 197.64 151.00 197.55 152.26 197.47 153.48 197.15 154.70 196.84 156.86 196.49 159.03 196.14 160.64 195.92 162.26 195.71 163.25 195.32 164.25 194.93 165.37 194.86 166.49 194.79 167.86 194.22 169.23 193.66 171.18 193.53 173.13 193.40 174.26 193.38 175.39 193.36 177.19 193.36 178.99 193.36 180.65 193.35 182.32 193.35 183.79 193.35 185.27 193.35 186.67 193.35 188.06 193.35 189.65 193.35 191.23 193.35 192.91 193.35 194.60 193.35 195.97 193.35 197.33 193.35 198.97 193.85 200.60 194.34 201.47 194.99 202.33 195.64 203.41 196.12 204.50 196.61 206.12 196.64 207.74 196.67 209.44 196.70 211.15 196.72 212.27 197.21 213.39 197.70 214.80 198.51 216.21 199.32 216.65 200.33 217.09 201.34 216.83 203.20 216.56 205.06 216.45 206.32 216.34 207.59 215.82 208.84 215.30 210.10 215.12 211.85 214.94 213.60 214.57 215.19 214.21 216.79 213.61 217.68 213.00 218.58 212.50 219.98 212.00 221.38 211.35 223.29 210.69 225.20 210.47 226.57 210.24 227.94 209.71 228.99 209.17 230.05 209.05 231.18 208.92 232.32 208.89 233.40 208.86 234.49 208.42 236.01 207.98 237.52 207.78 239.01 207.57 240.51 207.15 241.45 206.73 242.39 205.87 242.99 205.01 243.60 203.23 243.82 201.46 244.04 199.60 244.07 197.74 244.09 195.77 244.10 193.79 244.10 192.18 244.10 190.57 244.10 189.48 244.11 188.39 244.11 186.99 244.11 185.60 244.11 184.33 244.11 183.07 244.11 181.36 244.11 179.65 244.11 177.86 244.11 176.07 244.11 174.74 244.11 173.40 244.11 171.66 244.11 169.92 244.11 168.50 244.10 167.08 244.10 165.28 243.83 163.48 243.55 162.31 243.52 161.14 243.49 159.49 243.47 157.85 243.45 156.46 243.44 155.07 243.44 153.61 243.44 152.16 243.44 150.59 243.44 149.03 243.44 147.02 243.44 145.01 243.44 143.38 243.44 141.76 243.44 140.69 243.44 139.62 243.44 138.31 243.44 137.00 243.44 135.29 243.44 133.57 243.44 132.01 243.44 130.46 243.43 128.97 243.71 127.48 243.98 125.70 244.01 123.91 244.05 122.01 244.07 120.12 244.08 118.94 244.09 117.75 244.10 116.10 244.10 114.45 244.10 113.05 244.10 111.66 244.10 110.31 244.11 108.97 244.11 107.82 244.11 106.68 244.11 105.46 244.11 104.24 244.11 102.42 243.79 100.60 243.48 99.92 242.64 99.24 241.81 98.97 240.18 98.71 238.55 98.68 237.36 98.64 236.16 99.05 233.38 99.46 230.59 99.60 229.28 99.74 227.97 99.83 226.25 99.92 224.52 99.94 223.32 99.96 222.12 99.96 220.98 99.96 219.83 99.96 218.75 99.96 217.66 99.96 216.07 99.96 214.49 99.96 213.10 99.96 211.72 99.96 210.38 99.96 209.03 99.96 207.89 99.96 206.74 99.96 205.52 99.96 204.30 100.96 201.66 101.95 199.01 101.96 199.01 101.96 199.01 101.97 199.01 101.97 199.01 102.97 201.66 103.96 204.30 103.96 205.52 103.96 206.74 103.96 207.89 103.96 209.03 103.96 210.38 103.96 211.72 103.96 213.10 103.96 214.49 103.96 216.07 103.96 217.66 103.96 218.75 103.96 219.84 103.95 221.51 103.94 223.18 103.90 224.76 103.86 226.35 103.78 227.38 103.71 228.42 103.53 229.98 103.34 231.53 102.99 233.81 102.64 236.09 102.67 237.16 102.70 238.24 103.47 239.17 104.24 240.11 105.46 240.11 106.68 240.11 107.82 240.11 108.97 240.11 110.31 240.11 111.66 240.10 113.05 240.10 114.44 240.10 116.08 240.10 117.73 240.10 118.91 240.09 120.09 240.08 121.96 240.07 123.83 240.05 125.47 240.02 127.11 239.99 128.76 239.72 130.42 239.44 131.99 239.44 133.57 239.44 135.29 239.44 137.00 239.44 138.31 239.44 139.62 239.44 140.69 239.44 141.76 239.44 143.38 239.44 145.01 239.44 147.02 239.44 149.03 239.44 150.59 239.44 152.16 239.44 153.62 239.44 155.08 239.44 156.48 239.44 157.88 239.45 159.57 239.47 161.26 239.49 162.52 239.53 163.79 239.56 165.45 239.84 167.12 240.11 168.52 240.11 169.92 240.11 171.66 240.11 173.40 240.11 174.74 240.11 176.07 240.11 177.86 240.11 179.65 240.11 181.36 240.11 183.07 240.11 184.33 240.11 185.60 240.11 186.99 240.11 188.39 240.11 189.48 240.11 190.56 240.10 192.18 240.10 193.79 240.10 195.75 240.10 197.72 240.09 199.49 240.07 201.27 240.05 202.52 239.22 203.77 238.39 203.97 237.35 204.17 236.31 204.52 235.32 204.87 234.34 204.91 233.15 204.94 231.97 205.33 230.00 205.72 228.04 206.11 226.87 206.50 225.69 206.75 224.68 207.00 223.66 207.42 222.69 207.84 221.73 208.51 219.83 209.18 217.94 209.88 216.15 210.58 214.37 210.85 212.85 211.13 211.33 211.75 209.24 212.37 207.15 212.51 205.69 212.65 204.23 212.94 202.95 213.24 201.67 212.08 201.16 210.91 200.66 209.30 200.67 207.69 200.67 206.44 200.66 205.19 200.64 203.94 200.49 202.69 200.34 201.28 199.57 199.88 198.80 198.61 198.08 197.33 197.35 195.97 197.35 194.60 197.35 192.91 197.35 191.23 197.35 189.65 197.35 188.06 197.35 186.67 197.35 185.27 197.35 183.79 197.35 182.32 197.35 180.65 197.35 178.99 197.36 177.79 197.36 176.58 197.36 175.55 197.37 174.52 197.37 172.90 197.41 171.28 197.45 170.22 197.59 169.15 197.74 167.21 198.27 165.27 198.80 164.20 199.20 163.14 199.61 161.22 199.87 159.29 200.13 157.91 200.26 156.54 200.39 154.52 200.92 152.50 201.46 150.92 201.57 149.33 201.68 147.48 202.19 145.63 202.70 144.07 202.70 142.51 202.70 141.48 202.70 140.45 202.70 138.47 202.70 136.49 202.70 135.45 202.70 134.41 202.70 132.86 202.70 131.32 202.70 129.59 202.70 127.86 202.70 126.46 202.70 125.06 202.70 123.97 202.70 122.87 202.70 121.22 202.70 119.56 202.69 118.36 202.69 117.16 202.69 116.14 202.69 115.13 202.68 113.64 202.67 112.15 202.66 110.89 202.64 109.64 202.61 108.45 202.54 107.25 202.47 105.82 202.02 104.38 201.57 103.25 201.31 102.12 201.05 100.70 199.88 99.29 198.70 99.29 198.69 Z" data-drauu_index="4"></path><path fill="#1982c4" d="M 151.40 248.12 Q 151.40 248.12 152.39 250.04 153.39 251.96 153.18 253.15 152.97 254.35 152.87 255.48 152.77 256.62 152.75 257.90 152.73 259.17 152.72 260.50 152.72 261.83 152.72 263.16 152.72 264.49 152.86 265.59 153.00 266.69 153.87 267.37 154.73 268.05 155.93 268.09 157.14 268.13 158.83 268.14 160.52 268.15 162.09 268.15 163.66 268.16 164.84 268.16 166.03 268.16 167.25 268.16 168.48 268.16 169.60 268.16 170.73 268.16 172.22 268.16 173.71 268.16 175.07 268.16 176.43 268.16 177.86 269.15 179.29 270.15 179.29 270.15 179.29 270.15 179.29 270.15 179.29 270.15 179.29 270.15 179.30 270.15 179.30 270.15 179.30 270.15 179.30 270.15 179.30 270.15 179.30 270.15 179.30 270.15 179.30 270.16 179.30 270.16 179.30 270.16 179.30 270.16 179.30 270.16 179.30 270.16 179.30 270.16 179.30 270.16 179.29 270.16 179.29 270.16 179.29 270.17 179.29 270.17 179.29 270.17 179.29 270.17 179.29 270.16 179.29 270.16 179.29 270.15 179.29 270.15 179.29 270.15 179.29 270.15 179.29 270.15 179.29 270.15 179.29 270.15 179.30 270.15 179.30 270.15 179.30 270.15 179.30 270.15 179.30 270.15 179.30 270.15 179.30 270.15 179.30 270.16 179.30 270.16 179.30 270.16 179.30 270.16 179.30 270.16 179.30 270.16 179.30 270.16 179.30 270.16 179.29 270.16 179.29 270.16 179.29 270.17 179.29 270.17 179.29 270.17 179.29 270.17 177.86 271.16 176.43 272.15 175.07 272.15 173.71 272.16 172.22 272.16 170.73 272.16 169.60 272.16 168.48 272.16 167.25 272.16 166.03 272.16 164.84 272.16 163.65 272.16 162.08 272.15 160.51 272.15 159.46 272.15 158.40 272.15 157.03 272.12 155.66 272.10 154.12 271.93 152.58 271.76 151.66 271.33 150.73 270.90 150.05 269.96 149.38 269.03 149.05 267.64 148.72 266.25 148.72 264.70 148.72 263.16 148.72 261.82 148.72 260.48 148.73 259.13 148.74 257.78 148.80 256.37 148.86 254.95 149.12 253.45 149.39 251.95 150.38 250.03 151.38 248.12 151.39 248.12 Z" data-drauu_index="5"></path><path fill="#1982c4" d="M 164.09 247.45 Q 164.09 247.45 165.08 248.41 166.07 249.37 166.08 250.88 166.08 252.39 166.08 253.76 166.08 255.13 166.08 256.55 166.08 257.98 165.85 259.77 165.63 261.57 165.53 262.79 165.43 264.00 164.73 265.45 164.03 266.89 163.78 268.12 163.54 269.35 163.49 270.61 163.43 271.88 163.59 273.17 163.75 274.47 163.88 275.80 164.02 277.14 164.04 278.50 164.06 279.85 164.07 281.19 164.07 282.53 164.07 283.67 164.07 284.81 164.36 286.15 164.64 287.48 164.59 290.04 164.54 292.60 164.53 292.60 164.53 292.60 164.52 292.60 164.52 292.60 162.78 290.91 161.04 289.22 160.57 288.03 160.09 286.84 160.08 285.83 160.07 284.82 160.07 283.67 160.07 282.53 160.07 281.21 160.06 279.89 160.04 278.62 160.03 277.36 159.93 276.34 159.84 275.32 159.63 274.24 159.42 273.16 159.45 271.74 159.48 270.33 159.67 268.67 159.86 267.01 160.67 265.32 161.49 263.62 161.62 262.09 161.76 260.56 161.92 259.27 162.08 257.98 162.08 256.55 162.08 255.13 162.08 253.76 162.08 252.39 162.08 250.88 162.08 249.37 163.07 248.41 164.07 247.45 164.08 247.45 Z" data-drauu_index="6"></path>
</svg>